<?xml version="1.0" encoding="utf-8"?>
<!-- Generator: Adobe Illustrator 27.1.0, SVG Export Plug-In . SVG Version: 6.00 Build 0)  -->
<svg version="1.1" id="Capa_2_00000038402230396140275900000005136193695568616380_"
	 xmlns="http://www.w3.org/2000/svg" xmlns:xlink="http://www.w3.org/1999/xlink" x="0px" y="0px" viewBox="0 0 1366 768"
	 style="enable-background:new 0 0 1366 768;" xml:space="preserve">
<style type="text/css">
	.st0{clip-path:url(#SVGID_00000145041849109580691950000010957372288041873317_);}
	.st1{fill:#131F2B;}
	.st2{opacity:0.5;}
	.st3{opacity:0.3;}
	.st4{fill:#23323E;}
	.st5{fill:none;}
</style>
<g id="Capa_1-2">
	<g>
		<g id="BG">
			<g>
				<defs>
					<rect id="SVGID_1_" width="1366" height="768"/>
				</defs>
				<clipPath id="SVGID_00000055664863284062398900000008673412468369495426_">
					<use xlink:href="#SVGID_1_"  style="overflow:visible;"/>
				</clipPath>
				<g style="clip-path:url(#SVGID_00000055664863284062398900000008673412468369495426_);">
					<rect id="BG-3" class="st1" width="1366" height="768"/>
					<g class="st2">
						<g>
							<g class="st3">
								<g>
									<path class="st4" d="M1299.7,524.3l-0.8-0.5l2.2-84.3l0-1l74.9-40.6l71.8,44l0.8,0.5l-2.2,84.2l0,1l-74.9,40.7
										L1299.7,524.3L1299.7,524.3z M1445.2,444.4l-69.3-42.5l-71.4,38.8l-2.1,81.3l69.3,42.5l71.4-38.8L1445.2,444.4
										L1445.2,444.4z"/>
									<path class="st4" d="M1109.9,627.1l-0.7-0.4l1.8-67.5l0-0.8l60-32.5l57.5,35.3l0.7,0.4l-1.8,67.4l0,0.8l-60,32.5
										L1109.9,627.1z M1226.4,563.1l-55.5-34l-57.2,31l-1.7,65.1l55.5,34l57.2-31L1226.4,563.1L1226.4,563.1z"/>
									<path class="st4" d="M1316.5,714.4l-0.7-0.5l1.9-71.3l0-0.8l63.4-34.4l60.8,37.3l0.7,0.5l-1.9,71.3l0,0.8l-63.4,34.4
										L1316.5,714.4L1316.5,714.4z M1439.7,646.8l-58.7-36l-60.5,32.8l-1.8,68.8l58.7,36l60.5-32.8L1439.7,646.8L1439.7,646.8z"
										/>
									<path class="st4" d="M1208,770.7l-0.4-0.2l1-39.7l0-0.5l35.3-19.1l33.8,20.7l0.4,0.2l-1,39.7l0,0.5l-35.3,19.1L1208,770.7
										L1208,770.7z M1276.5,733.1l-32.6-20l-33.6,18.2l-1,38.3l32.6,20l33.6-18.2L1276.5,733.1L1276.5,733.1z"/>
									<path class="st4" d="M1096.5,712.2l-0.4-0.2l1-39.7l0-0.5l35.3-19.1l33.8,20.7l0.4,0.2l-1,39.7l0,0.5l-35.3,19.1
										L1096.5,712.2L1096.5,712.2z M1165,674.5l-32.6-20l-33.6,18.2l-1,38.3l32.6,20l33.6-18.2L1165,674.5z"/>
									<path class="st4" d="M995.1,507.1l-0.4-0.3l1.2-44.2l0-0.5l39.3-21.3l37.7,23.1l0.4,0.3l-1.2,44.2l0,0.5l-39.3,21.3
										L995.1,507.1L995.1,507.1z M1071.5,465.2l-36.4-22.3l-37.5,20.4l-1.1,42.7l36.4,22.3l37.5-20.4L1071.5,465.2L1071.5,465.2z
										"/>
									<path class="st4" d="M1154.1,283.6l-0.2-0.1l0.7-24.8v-0.3l22-11.9l21.1,12.9l0.2,0.2l-0.7,24.8v0.3l-22,12L1154.1,283.6
										L1154.1,283.6z M1196.9,260.1l-20.4-12.5l-21,11.4l-0.6,23.9l20.4,12.5l21-11.4L1196.9,260.1L1196.9,260.1z"/>
									<path class="st4" d="M1344.6,300.7l-0.3-0.2l0.9-35.4l0-0.4l31.5-17.1l30.2,18.5l0.3,0.2l-0.9,35.4l0,0.4l-31.5,17.1
										L1344.6,300.7L1344.6,300.7z M1405.8,267.1l-29.1-17.9l-30,16.3l-0.9,34.2l29.1,17.9l30-16.3L1405.8,267.1z"/>
									<path class="st4" d="M1123.4,437.6l-0.6-0.4l1.5-58.2l0-0.7l51.7-28l49.6,30.4l0.6,0.4l-1.5,58.1l0,0.7l-51.7,28
										L1123.4,437.6L1123.4,437.6z M1223.9,382.4l-47.8-29.4l-49.3,26.8l-1.5,56.1l47.8,29.3l49.3-26.8L1223.9,382.4z"/>
									<polygon class="st4" points="1176.6,352.3 1175.9,295.2 1174.1,295.2 1174.8,352.3 									"/>
									
										<rect x="1223" y="540.8" transform="matrix(0.879 -0.4769 0.4769 0.879 -105.2844 668.862)" class="st4" width="84.4" height="2.2"/>
									<polygon class="st4" points="1171.9,529.1 1174.1,466.3 1171.9,466.2 1169.8,529 									"/>
									
										<rect x="1068.2" y="449" transform="matrix(0.879 -0.4769 0.4769 0.879 -81.7241 578.0907)" class="st4" width="59.9" height="2.2"/>
								</g>
								<g>
									<path class="st4" d="M1062.8,19.5l-0.8-0.5l2.2-84.3l0-1l74.9-40.7l71.8,44l0.8,0.5l-2.2,84.2l0,1l-74.9,40.7L1062.8,19.5
										L1062.8,19.5z M1208.3-60.5L1139-103l-71.4,38.8l-2.1,81.3l69.3,42.5l71.4-38.8C1206.2,20.8,1208.3-60.5,1208.3-60.5z"/>
									<path class="st4" d="M873,122.2l-0.7-0.4l1.8-67.4l0-0.8l60-32.5l57.5,35.3l0.7,0.4l-1.8,67.4l0,0.8l-60,32.5L873,122.2
										L873,122.2z M989.5,58.2l-55.5-34l-57.2,31l-1.7,65.1l55.5,34l57.2-31L989.5,58.2L989.5,58.2z"/>
									<path class="st4" d="M1079.6,209.6l-0.7-0.4l1.9-71.3l0-0.8l63.4-34.4l60.8,37.3l0.7,0.4l-1.9,71.3l0,0.8l-63.4,34.4
										L1079.6,209.6L1079.6,209.6z M1202.8,141.9l-58.7-36l-60.5,32.8l-1.8,68.8l58.7,36l60.5-32.8L1202.8,141.9L1202.8,141.9z"
										/>
									<path class="st4" d="M1241.4,285.3l-0.4-0.3l1.1-41.1l0-0.5l36.5-19.8l35,21.5l0.4,0.3l-1.1,41l0,0.5l-36.5,19.8
										L1241.4,285.3L1241.4,285.3z M1312.3,246.4l-33.8-20.7l-34.8,18.9l-1,39.6l33.8,20.7l34.8-18.9L1312.3,246.4L1312.3,246.4z
										"/>
									<path class="st4" d="M1267.3,106.8l-0.3-0.2l0.9-34.7l0-0.4l30.9-16.8l29.6,18.2l0.3,0.2l-0.9,34.7l0,0.4l-30.9,16.8
										L1267.3,106.8L1267.3,106.8z M1327.3,73.9l-28.6-17.5l-29.4,16l-0.9,33.5l28.6,17.5l29.4-16L1327.3,73.9L1327.3,73.9z"/>
									<path class="st4" d="M971.1,265.8l-0.4-0.2l1-39.7l0-0.5l35.3-19.1l33.8,20.7l0.4,0.2l-1.1,39.6l0,0.5l-35.3,19.1
										L971.1,265.8L971.1,265.8z M1039.6,228.2l-32.6-20l-33.6,18.2l-1,38.3l32.6,20l33.6-18.2L1039.6,228.2z"/>
									<path class="st4" d="M859.6,207.3l-0.4-0.2l1-39.7l0-0.5l35.3-19.1l33.8,20.7l0.4,0.2l-1,39.7l0,0.5L893.4,228L859.6,207.3
										L859.6,207.3z M928.1,169.6l-32.6-20l-33.6,18.2l-1,38.3l32.6,20l33.6-18.2L928.1,169.6L928.1,169.6z"/>
									<path class="st4" d="M758.2,2.3L757.7,2l1.2-44.2l0-0.5l39.3-21.3L836-41l0.4,0.3l-1.2,44.2l0,0.5l-39.3,21.3
										C795.9,25.4,758.2,2.3,758.2,2.3z M834.6-39.7L798.2-62l-37.5,20.3L759.5,1l36.4,22.3L833.4,3L834.6-39.7L834.6-39.7z"/>
									
										<rect x="986" y="35.9" transform="matrix(0.879 -0.4769 0.4769 0.879 106.7899 494.7953)" class="st4" width="84.4" height="2.2"/>
									<polygon class="st4" points="1268.6,73.2 1269.9,71.5 1206.8,19.9 1205.5,21.6 									"/>
									
										<rect x="1199.3" y="122.2" transform="matrix(0.879 -0.4769 0.4769 0.879 90.772 604.3365)" class="st4" width="73.5" height="2.2"/>
									<polygon class="st4" points="1243,245.4 1244.4,243.7 1202.4,210.7 1201.1,212.3 									"/>
									<polygon class="st4" points="935,24.2 937.1,-38.6 935,-38.7 932.9,24.1 									"/>
								</g>
							</g>
							<g>
								<g>
									<path class="st4" d="M1342.2,602.3l-60.9,33.1l-0.7-0.4l-58.4-35.8v-0.8l1.8-68.5l60.9-33.1l0.7,0.4L1344,533v0.8
										L1342.2,602.3L1342.2,602.3z M1281.3,632.2l58.1-31.5l1.8-66.1l-56.4-34.6l-58.1,31.5l-1.7,66.1L1281.3,632.2z"/>
									<path class="st4" d="M1464.6,687.6l-51.6,28l-0.6-0.3l-49.5-30.3v-0.7l1.6-58l51.6-28l0.6,0.3l49.5,30.4v0.7L1464.6,687.6
										L1464.6,687.6z M1413.1,712.9l49.2-26.7l1.5-56l-47.7-29.3l-49.2,26.7l-1.5,56L1413.1,712.9L1413.1,712.9z"/>
									<path class="st4" d="M1312.1,740.3l-25.1,13.6l-0.3-0.2l-24.1-14.8v-0.3l0.8-28.2l25.1-13.6l0.3,0.2l24.1,14.8v0.3
										L1312.1,740.3L1312.1,740.3z M1287,752.6l24-13l0.7-27.2l-23.2-14.3l-24,13l-0.7,27.2L1287,752.6z"/>
									<path class="st4" d="M1243.9,348l-17.9,9.7l-0.2-0.1l-17.2-10.5v-0.2l0.5-20.1l17.9-9.7l0.2,0.1l17.2,10.5v0.2L1243.9,348
										L1243.9,348z M1226,356.7l17.1-9.3l0.5-19.4l-16.6-10.2l-17.1,9.3l-0.5,19.4L1226,356.7L1226,356.7z"/>
									<path class="st4" d="M1170.8,494l-25.6,13.9l-0.3-0.2l-24.6-15.1v-0.3l0.8-28.8l25.6-13.9l0.3,0.2l24.6,15.1v0.3
										L1170.8,494L1170.8,494z M1145.2,506.6l24.4-13.2l0.7-27.8l-23.7-14.5l-24.4,13.2l-0.7,27.8L1145.2,506.6L1145.2,506.6z"/>
									<path class="st4" d="M1148.9,602.3l-28,15.2l-0.3-0.2l-26.8-16.5v-0.4l0.8-31.4l28-15.2l0.3,0.2l26.8,16.5v0.4
										L1148.9,602.3L1148.9,602.3z M1121,616l26.7-14.5l0.8-30.3l-25.9-15.9l-26.7,14.5l-0.8,30.3L1121,616z"/>
									<path class="st4" d="M1361.8,422.4l-42.1,22.8l-0.5-0.3l-40.3-24.7v-0.6l1.3-47.3l42.1-22.8l0.5,0.3l40.3,24.8v0.6
										L1361.8,422.4L1361.8,422.4z M1319.8,443l40.1-21.8l1.2-45.6l-38.9-23.9l-40.1,21.8l-1.2,45.6L1319.8,443z"/>
									<polygon class="st4" points="1226.2,532.2 1169.2,494 1170.1,492.6 1227.2,530.8 									"/>
									<polygon class="st4" points="1281.3,373.6 1242.7,347.8 1243.4,346.6 1282.1,372.4 									"/>
									
										<rect x="1337" y="517.1" transform="matrix(0.879 -0.4769 0.4769 0.879 -81.0769 716.5892)" class="st4" width="68.7" height="1.8"/>
									<polygon class="st4" points="1289.3,698 1287.6,698.1 1280.4,632.2 1282.2,632.1 									"/>
									
										<rect x="1308.1" y="697.2" transform="matrix(0.879 -0.4769 0.4769 0.879 -170.941 722.497)" class="st4" width="59.8" height="1.8"/>
									<polygon class="st4" points="1403.9,448.8 1360.2,422.4 1361.1,420.9 1404.8,447.3 									"/>
									
										<rect x="1358.4" y="362.5" transform="matrix(0.879 -0.4769 0.4769 0.879 -5.9485 703.3544)" class="st4" width="48.7" height="1.8"/>
								</g>
								<g>
									<path class="st4" d="M1102.9,216.8l-60.9,33.1l-0.7-0.4l-58.4-35.8v-0.8l1.8-68.5l60.9-33.1l0.7,0.4l58.4,35.9v0.8
										L1102.9,216.8z M1042.1,246.7l58.1-31.5l1.8-66.1l-56.4-34.6L987.4,146l-1.7,66.1L1042.1,246.7z"/>
									<path class="st4" d="M1257.6,119.3l-48.8,26.5l-0.6-0.3l-46.8-28.7v-0.7l1.5-54.8l48.8-26.5l0.6,0.3l46.8,28.7v0.7
										C1259.1,64.5,1257.6,119.3,1257.6,119.3z M1208.9,143.2l46.5-25.2l1.4-52.9l-45.1-27.7l-46.5,25.2l-1.4,52.9L1208.9,143.2z
										"/>
									<path class="st4" d="M1225.4,302.1l-51.6,28l-0.6-0.3l-49.5-30.4v-0.7l1.6-58l51.6-28l0.6,0.3l49.5,30.4v0.7L1225.4,302.1z
										 M1173.9,327.4l49.2-26.7l1.5-56l-47.7-29.3l-49.2,26.7l-1.5,56L1173.9,327.4L1173.9,327.4z"/>
									<path class="st4" d="M1206,421.4l-29.7,16.1l-0.3-0.2l-28.5-17.5v-0.4l0.9-33.4l29.7-16.1l0.3,0.2l28.5,17.5v0.4
										L1206,421.4L1206,421.4z M1176.3,436l28.3-15.4l0.8-32.2l-27.5-16.9l-28.3,15.4l-0.8,32.2L1176.3,436L1176.3,436z"/>
									<path class="st4" d="M1072.9,354.8l-25.1,13.6l-0.3-0.2l-24.1-14.8v-0.3l0.7-28.2l25.1-13.6l0.3,0.2l24.1,14.8v0.3
										L1072.9,354.8L1072.9,354.8z M1047.8,367.1l24-13l0.7-27.2l-23.2-14.3l-24,13l-0.7,27.2L1047.8,367.1z"/>
									<path class="st4" d="M1312.6,227.3l-28.7,15.6l-0.3-0.2l-27.5-16.9v-0.4l0.9-32.2l28.7-15.6l0.3,0.2l27.5,16.9v0.4
										L1312.6,227.3z M1283.9,241.4l27.4-14.8l0.8-31.1l-26.5-16.3l-27.4,14.8l-0.8,31.1L1283.9,241.4L1283.9,241.4z"/>
									<path class="st4" d="M1322.1,125.3l-28.7,15.6l-0.3-0.2l-27.5-16.9v-0.4l0.9-32.3l28.7-15.6l0.3,0.2l27.5,16.9v0.4
										L1322.1,125.3L1322.1,125.3z M1293.5,139.4l27.4-14.8l0.8-31.1l-26.5-16.3L1267.8,92l-0.8,31.1L1293.5,139.4z"/>
									<path class="st4" d="M931.6,108.5L906,122.4l-0.3-0.2l-24.5-15.1v-0.3l0.8-28.8l25.6-13.9l0.3,0.2l24.6,15.1v0.3
										L931.6,108.5L931.6,108.5z M906,121.1l24.4-13.2l0.7-27.8l-23.7-14.5L883,78.8l-0.7,27.8L906,121.1L906,121.1z"/>
									<path class="st4" d="M909.7,216.8l-28,15.2l-0.3-0.2l-26.8-16.4V215l0.8-31.4l28-15.2l0.3,0.2l26.8,16.5v0.4L909.7,216.8
										L909.7,216.8z M881.8,230.5l26.7-14.5l0.8-30.3l-25.9-15.9l-26.7,14.5l-0.8,30.3L881.8,230.5z"/>
									<path class="st4" d="M1122.6,37l-42.1,22.8l-0.5-0.3l-40.3-24.7v-0.6l1.3-47.3l42.1-22.8l0.5,0.3l40.3,24.8v0.6
										C1123.8-10.3,1122.6,36.9,1122.6,37z M1080.6,57.6l40.1-21.8l1.2-45.6L1083-33.7l-40.1,21.8l-1.2,45.6
										C1041.7,33.7,1080.6,57.6,1080.6,57.6z"/>
									<polygon class="st4" points="987,146.7 929.9,108.6 930.9,107.1 988,145.3 									"/>
									
										<rect x="1097.7" y="131.7" transform="matrix(0.879 -0.4769 0.4769 0.879 73.7885 555.8735)" class="st4" width="68.7" height="1.8"/>
									<polygon class="st4" points="1050.1,312.5 1048.4,312.6 1041.2,246.8 1042.9,246.6 									"/>
									
										<rect x="1068.9" y="311.7" transform="matrix(0.879 -0.4769 0.4769 0.879 -16.0757 561.7814)" class="st4" width="59.8" height="1.8"/>
									<polygon class="st4" points="1178.9,371.5 1177.2,371.6 1173.2,328.4 1175,328.2 									"/>
									<polygon class="st4" points="1164.7,63.3 1120.9,36.9 1121.8,35.4 1165.6,61.9 									"/>
								</g>
							</g>
						</g>
					</g>
					<rect id="BG-4" class="st5" width="1366" height="768"/>
					<g class="st2">
						<g>
							<g class="st3">
								<g>
									<path class="st4" d="M888,617.5l-0.8-0.5l2.2-84.3l0-1l74.9-40.6l71.8,44.1l0.8,0.5l-2.2,84.2l0,1l-74.9,40.7L888,617.5
										L888,617.5z M1033.5,537.6l-69.3-42.5l-71.5,38.8l-2.1,81.3l69.3,42.5l71.5-38.8L1033.5,537.6L1033.5,537.6z"/>
									<path class="st4" d="M698.1,720.3l-0.7-0.4l1.8-67.5l0-0.8l60-32.5l57.5,35.3l0.7,0.4l-1.8,67.4l0,0.8l-60,32.5
										L698.1,720.3z M814.6,656.3l-55.5-34l-57.2,31l-1.7,65.1l55.5,34l57.2-31L814.6,656.3L814.6,656.3z"/>
									<path class="st4" d="M904.8,807.7l-0.7-0.5l1.9-71.3l0-0.8l63.4-34.4l60.8,37.3l0.7,0.5l-1.9,71.3l0,0.8l-63.4,34.4
										L904.8,807.7L904.8,807.7z M1028,740l-58.7-36l-60.5,32.8l-1.8,68.8l58.7,36l60.5-32.8L1028,740L1028,740z"/>
									<path class="st4" d="M1092.4,704.9l-0.3-0.2l0.9-34.7l0-0.4l30.9-16.8l29.6,18.2l0.3,0.2l-0.9,34.7l0,0.4l-30.9,16.8
										L1092.4,704.9L1092.4,704.9z M1152.4,672l-28.6-17.5l-29.4,16l-0.9,33.5l28.6,17.5l29.4-16L1152.4,672L1152.4,672z"/>
									<path class="st4" d="M684.7,805.4l-0.4-0.2l1-39.7l0-0.5l35.3-19.1l33.8,20.7l0.4,0.2l-1,39.7l0,0.5l-35.3,19.1
										L684.7,805.4L684.7,805.4z M753.2,767.7l-32.6-20L687,766l-1,38.3l32.6,20l33.6-18.2L753.2,767.7z"/>
									<path class="st4" d="M583.3,600.4l-0.4-0.3l1.2-44.2l0-0.5l39.3-21.3l37.7,23.1l0.4,0.3l-1.2,44.2l0,0.5L621,623.5
										L583.3,600.4L583.3,600.4z M659.7,558.4l-36.4-22.3l-37.5,20.3l-1.1,42.7l36.4,22.3l37.5-20.3L659.7,558.4L659.7,558.4z"/>
									<path class="st4" d="M742.4,376.9l-0.2-0.1l0.7-24.8v-0.3l22-12l21.1,13l0.2,0.2l-0.7,24.8v0.3l-22,12L742.4,376.9
										L742.4,376.9z M785.2,353.4l-20.4-12.5l-21,11.4l-0.6,23.9l20.4,12.5l21-11.4L785.2,353.4z"/>
									<path class="st4" d="M932.9,393.9l-0.3-0.2l0.9-35.4l0-0.4l31.5-17.1l30.2,18.5l0.3,0.2l-0.9,35.4l0,0.4L963,412.4
										L932.9,393.9L932.9,393.9z M994,360.3l-29.1-17.9l-30,16.3l-0.9,34.2l29.1,17.9l30-16.3L994,360.3L994,360.3z"/>
									<path class="st4" d="M1056.3,442.2l-0.4-0.2l1-38.7l0-0.5l34.4-18.6l33,20.2l0.4,0.2l-1,38.6l0,0.5l-34.4,18.6
										L1056.3,442.2L1056.3,442.2z M1123.1,405.6l-31.8-19.5l-32.8,17.8l-1,37.3l31.8,19.5l32.8-17.8L1123.1,405.6L1123.1,405.6z
										"/>
									<path class="st4" d="M711.7,530.8l-0.6-0.4l1.5-58.2l0-0.7l51.7-28L814,474l0.6,0.4l-1.5,58.1l0,0.7l-51.7,28L711.7,530.8
										L711.7,530.8z M812.1,475.7l-47.8-29.4L715,473.1l-1.5,56.1l47.8,29.3l49.3-26.8L812.1,475.7L812.1,475.7z"/>
									<polygon class="st4" points="965.2,495.1 964.2,410.7 962,410.7 963.1,495.1 									"/>
									<polygon class="st4" points="764.8,445.5 764.1,388.4 762.4,388.4 763.1,445.5 									"/>
									
										<rect x="811.2" y="634" transform="matrix(0.879 -0.4769 0.4769 0.879 -199.5665 483.8096)" class="st4" width="84.4" height="2.2"/>
									<polygon class="st4" points="1093.7,671.2 1095.1,669.6 1032,618 1030.7,619.7 									"/>
									
										<rect x="1024.5" y="720.3" transform="matrix(0.879 -0.4769 0.4769 0.879 -215.5845 593.3508)" class="st4" width="73.5" height="2.2"/>
									<polygon class="st4" points="760.2,622.3 762.3,559.5 760.2,559.4 758.1,622.2 									"/>
									
										<rect x="656.4" y="542.2" transform="matrix(0.879 -0.4769 0.4769 0.879 -176.004 393.0371)" class="st4" width="59.9" height="2.2"/>
								</g>
								<g>
									<path class="st4" d="M651,112.7l-0.8-0.5l2.2-84.3l0-1l74.9-40.7l71.8,44l0.8,0.5l-2.2,84.2l0,1l-74.9,40.7L651,112.7
										L651,112.7z M796.6,32.7L727.3-9.8L655.8,29l-2.1,81.3l69.3,42.5l71.5-38.8L796.6,32.7L796.6,32.7z"/>
									<path class="st4" d="M461.2,215.4l-0.7-0.4l1.8-67.4l0-0.8l60-32.5l57.5,35.3l0.7,0.4l-1.8,67.4l0,0.8l-60,32.5
										L461.2,215.4L461.2,215.4z M577.7,151.4l-55.5-34l-57.2,31l-1.7,65.1l55.5,34l57.2-31L577.7,151.4L577.7,151.4z"/>
									<path class="st4" d="M667.8,302.8l-0.7-0.5L669,231l0-0.8l63.4-34.4l60.8,37.3l0.7,0.4l-1.9,71.3l0,0.8L728.7,340
										L667.8,302.8L667.8,302.8z M791.1,235.1l-58.7-36l-60.5,32.8l-1.8,68.8l58.7,36l60.5-32.8L791.1,235.1L791.1,235.1z"/>
									<path class="st4" d="M829.7,378.5l-0.4-0.3l1.1-41l0-0.5l36.5-19.8l35,21.5l0.4,0.3l-1.1,41l0,0.5L864.7,400L829.7,378.5
										L829.7,378.5z M900.6,339.6l-33.8-20.7L832,337.7l-1,39.6l33.8,20.7l34.8-18.9L900.6,339.6z"/>
									<path class="st4" d="M855.5,200l-0.3-0.2l0.9-34.7l0-0.4l30.9-16.8l29.6,18.1l0.3,0.2L916,201l0,0.4l-30.9,16.8L855.5,200
										L855.5,200z M915.5,167.1L887,149.6l-29.5,16l-0.9,33.5l28.6,17.5l29.5-16L915.5,167.1z"/>
									<path class="st4" d="M559.4,359l-0.4-0.2l1-39.7l0-0.5l35.3-19.1l33.8,20.7l0.4,0.2l-1,39.6l0,0.5l-35.3,19.1L559.4,359
										L559.4,359z M627.9,321.4l-32.6-20l-33.6,18.2l-1,38.3l32.6,20l33.6-18.2L627.9,321.4L627.9,321.4z"/>
									<path class="st4" d="M447.8,300.5l-0.4-0.2l1-39.7l0-0.5l35.3-19.1l33.8,20.7l0.4,0.2l-1,39.6l0,0.5l-35.3,19.1
										L447.8,300.5L447.8,300.5z M516.3,262.9l-32.6-20l-33.6,18.2l-1,38.3l32.6,20l33.6-18.2L516.3,262.9z"/>
									<path class="st4" d="M346.4,95.5l-0.4-0.3l1.2-44.2l0-0.5l39.3-21.3l37.7,23.1l0.4,0.3l-1.2,44.2l0,0.5l-39.3,21.3
										C384.1,118.6,346.4,95.5,346.4,95.5z M422.8,53.5l-36.4-22.3l-37.5,20.4l-1.1,42.7l36.4,22.3l37.5-20.3L422.8,53.5
										L422.8,53.5z"/>
									<path class="st4" d="M474.8,26l-0.6-0.4l1.5-58.2l0-0.7l51.7-28L577-30.9l0.6,0.4l-1.5,58.1l0,0.7l-51.7,28L474.8,26
										L474.8,26z M575.2-29.2l-47.8-29.4l-49.3,26.8l-1.5,56.1l47.8,29.3l49.3-26.8L575.2-29.2L575.2-29.2z"/>
									
										<rect x="574.3" y="129.1" transform="matrix(0.879 -0.4769 0.4769 0.879 12.5113 309.7466)" class="st4" width="84.4" height="2.2"/>
									<polygon class="st4" points="856.8,166.4 858.2,164.7 795.1,113.1 793.7,114.8 									"/>
									
										<rect x="787.5" y="215.5" transform="matrix(0.879 -0.4769 0.4769 0.879 -3.5044 419.2796)" class="st4" width="73.5" height="2.2"/>
									<polygon class="st4" points="831.3,338.6 832.6,336.9 790.7,303.9 789.3,305.6 									"/>
									<polygon class="st4" points="523.3,117.4 525.4,54.6 523.3,54.6 521.2,117.4 									"/>
									
										<rect x="419.5" y="37.3" transform="matrix(0.879 -0.4769 0.4769 0.879 36.0737 218.974)" class="st4" width="59.9" height="2.2"/>
								</g>
							</g>
							<g>
								<g>
									<path class="st4" d="M930.4,695.5l-61,33.1l-0.7-0.4l-58.4-35.8v-0.8l1.8-68.5l61-33.1l0.7,0.4l58.4,35.9v0.8L930.4,695.5
										L930.4,695.5z M869.6,725.4l58.1-31.5l1.8-66.1l-56.4-34.6l-58.1,31.5l-1.7,66.1L869.6,725.4L869.6,725.4z"/>
									<path class="st4" d="M1085.1,598l-48.8,26.5l-0.6-0.3L989,595.5v-0.7l1.5-54.8l48.8-26.5l0.6,0.3l46.8,28.7v0.7L1085.1,598
										L1085.1,598z M1036.3,621.9l46.5-25.2l1.4-52.9l-45.1-27.7l-46.5,25.2l-1.4,52.9L1036.3,621.9L1036.3,621.9z"/>
									<path class="st4" d="M1052.9,780.8l-51.6,28l-0.6-0.3l-49.5-30.3v-0.7l1.5-58l51.6-28l0.6,0.3l49.5,30.4v0.7L1052.9,780.8
										L1052.9,780.8z M1001.4,806.1l49.2-26.7l1.5-56l-47.7-29.3l-49.2,26.7l-1.5,56L1001.4,806.1L1001.4,806.1z"/>
									<path class="st4" d="M1140.1,706l-28.7,15.6l-0.3-0.2l-27.5-16.9v-0.4l0.9-32.2l28.7-15.6l0.3,0.2l27.5,16.9v0.4
										L1140.1,706z M1111.4,720.1l27.4-14.8l0.8-31.1l-26.5-16.3l-27.4,14.8l-0.8,31.1L1111.4,720.1L1111.4,720.1z"/>
									<path class="st4" d="M1149.6,604l-28.7,15.6l-0.3-0.2l-27.5-16.9v-0.4l0.9-32.2l28.7-15.6l0.3,0.2l27.5,16.9v0.4
										L1149.6,604z M1121,618.1l27.4-14.8l0.8-31.1l-26.5-16.3l-27.4,14.8l-0.8,31.1L1121,618.1L1121,618.1z"/>
									<path class="st4" d="M1054.7,447.7l-32,17.4l-0.4-0.2L991.7,446v-0.4l1-36l32-17.4l0.4,0.2l30.7,18.8v0.4L1054.7,447.7
										L1054.7,447.7z M1022.7,463.3l30.5-16.6l0.9-34.7l-29.6-18.2l-30.5,16.6l-0.9,34.7L1022.7,463.3L1022.7,463.3z"/>
									<path class="st4" d="M832.2,441.2l-17.9,9.7l-0.2-0.1l-17.2-10.5V440l0.5-20.1l17.9-9.7l0.2,0.1l17.2,10.5v0.2L832.2,441.2
										L832.2,441.2z M814.3,450l17.1-9.3l0.5-19.4l-16.6-10.2l-17.1,9.3l-0.5,19.4L814.3,450L814.3,450z"/>
									<path class="st4" d="M759,587.2l-25.6,13.9l-0.3-0.2l-24.5-15.1v-0.3l0.8-28.8l25.6-13.9l0.3,0.2l24.6,15.1v0.3L759,587.2
										L759,587.2z M733.5,599.8l24.4-13.2l0.7-27.8l-23.7-14.5l-24.4,13.2l-0.7,27.8L733.5,599.8L733.5,599.8z"/>
									<path class="st4" d="M737.2,695.5l-28,15.2l-0.3-0.2l-26.8-16.5v-0.4l0.8-31.4l28-15.2l0.3,0.2l26.8,16.5v0.4L737.2,695.5
										L737.2,695.5z M709.3,709.2l26.7-14.5l0.8-30.3l-25.9-15.9L684.2,663l-0.8,30.3L709.3,709.2z"/>
									<path class="st4" d="M950,515.7L908,538.5l-0.5-0.3l-40.3-24.7v-0.6l1.3-47.3l42.1-22.8l0.5,0.3l40.3,24.8v0.6L950,515.7
										L950,515.7z M908,536.3l40.1-21.8l1.2-45.6L910.5,445l-40.1,21.8l-1.2,45.6L908,536.3L908,536.3z"/>
									<polygon class="st4" points="814.5,625.4 757.4,587.3 758.4,585.8 815.4,624 									"/>
									<polygon class="st4" points="869.6,466.8 830.9,441 831.7,439.8 870.3,465.6 									"/>
									
										<rect x="925.2" y="610.4" transform="matrix(0.879 -0.4769 0.4769 0.879 -175.3568 531.5356)" class="st4" width="68.7" height="1.8"/>
									<polygon class="st4" points="877.6,791.2 875.9,791.4 868.7,725.5 870.4,725.3 									"/>
									<polygon class="st4" points="992.2,542 948.4,515.6 949.3,514.1 993.1,540.6 									"/>
									
										<rect x="946.7" y="455.7" transform="matrix(0.879 -0.4769 0.4769 0.879 -100.2317 518.2972)" class="st4" width="48.7" height="1.8"/>
								</g>
								<g>
									<path class="st4" d="M691.2,310l-61,33.1l-0.7-0.4l-58.4-35.8v-0.8l1.8-68.5l61-33.1l0.7,0.4l58.4,35.9v0.8L691.2,310z
										 M630.3,339.9l58.1-31.5l1.8-66.1l-56.4-34.6l-58.1,31.5l-1.7,66.1L630.3,339.9z"/>
									<path class="st4" d="M845.9,212.5L797.1,239l-0.5-0.3L749.8,210v-0.6l1.5-54.9L800,128l0.5,0.3l46.8,28.7v0.6L845.9,212.5
										L845.9,212.5z M797.1,236.4l46.5-25.2l1.4-52.9l-45.1-27.7l-46.5,25.2l-1.4,52.9L797.1,236.4L797.1,236.4z"/>
									<path class="st4" d="M813.7,395.3l-51.6,28l-0.6-0.3L712,392.6V392l1.5-58l51.6-28l0.6,0.3l49.5,30.4v0.7L813.7,395.3z
										 M762.2,420.6l49.2-26.7l1.5-56l-47.7-29.3l-49.2,26.7l-1.5,56L762.2,420.6L762.2,420.6z"/>
									<path class="st4" d="M794.2,514.6l-29.7,16.1l-0.3-0.2l-28.5-17.5v-0.4l0.9-33.4l29.7-16.1l0.3,0.2l28.5,17.5v0.4
										L794.2,514.6L794.2,514.6z M764.6,529.2l28.3-15.4l0.8-32.2l-27.5-16.9L738,480.1l-0.8,32.2L764.6,529.2L764.6,529.2z"/>
									<path class="st4" d="M661.2,448L636,461.6l-0.3-0.2l-24.1-14.8v-0.3l0.8-28.2l25.1-13.6l0.3,0.2l24.1,14.8v0.3L661.2,448
										L661.2,448z M636.1,460.3l24-13l0.7-27.2l-23.2-14.3l-24,13l-0.7,27.2L636.1,460.3z"/>
									<path class="st4" d="M900.9,320.5l-28.7,15.6l-0.3-0.2l-27.5-16.9v-0.4l0.9-32.2l28.7-15.6l0.3,0.2l27.5,16.9v0.4
										L900.9,320.5z M872.2,334.6l27.4-14.8l0.8-31.1l-26.5-16.3l-27.4,14.8l-0.8,31.1L872.2,334.6L872.2,334.6z"/>
									<path class="st4" d="M910.4,218.5l-28.7,15.6l-0.3-0.2L853.9,217v-0.4l0.9-32.3l28.7-15.6l0.3,0.2l27.5,16.9v0.4
										L910.4,218.5L910.4,218.5z M881.8,232.6l27.4-14.8l0.8-31.1l-26.5-16.3L856,185.2l-0.8,31.1L881.8,232.6L881.8,232.6z"/>
									<path class="st4" d="M815.5,62.2l-32,17.4l-0.4-0.2l-30.7-18.8v-0.4l1-36l32-17.4l0.4,0.2l30.7,18.8v0.4L815.5,62.2
										L815.5,62.2z M783.5,77.8l30.5-16.6l0.9-34.7L785.4,8.4L754.8,25l-0.9,34.7C753.9,59.7,783.5,77.9,783.5,77.8z"/>
									<path class="st4" d="M592.9,55.7L575,65.4l-0.2-0.1l-17.2-10.5v-0.2l0.5-20.1l17.9-9.7l0.2,0.1l17.2,10.5v0.2L592.9,55.7
										L592.9,55.7z M575,64.5l17.1-9.3l0.5-19.4l-16.6-10.2L559,34.9l-0.5,19.4L575,64.5L575,64.5z"/>
									<path class="st4" d="M519.8,201.8l-25.6,13.9l-0.3-0.2l-24.5-15.1v-0.3l0.8-28.8l25.6-13.9l0.3,0.2l24.6,15.1v0.3
										L519.8,201.8L519.8,201.8z M494.3,214.3l24.4-13.2l0.7-27.8l-23.7-14.5L471.3,172l-0.7,27.8L494.3,214.3L494.3,214.3z"/>
									<path class="st4" d="M498,310l-28,15.2l-0.3-0.2l-26.8-16.5v-0.4l0.8-31.4l28-15.2l0.3,0.2l26.8,16.5v0.4L498,310L498,310z
										 M470.1,323.8l26.7-14.5l0.8-30.3l-25.9-15.9L445,277.6l-0.8,30.3L470.1,323.8L470.1,323.8z"/>
									<path class="st4" d="M710.8,130.2L668.8,153l-0.5-0.3L628,128v-0.6l1.3-47.3l42.1-22.8l0.5,0.3l40.3,24.8v0.6L710.8,130.2z
										 M668.8,150.8l40.1-21.8l1.2-45.6l-38.9-23.9l-40.1,21.8l-1.2,45.6L668.8,150.8L668.8,150.8z"/>
									<polygon class="st4" points="575.3,239.9 518.2,201.8 519.2,200.3 576.2,238.5 									"/>
									<polygon class="st4" points="630.4,81.3 591.7,55.5 592.5,54.3 631.1,80.1 									"/>
									
										<rect x="686" y="224.9" transform="matrix(0.879 -0.4769 0.4769 0.879 -20.4878 370.8166)" class="st4" width="68.7" height="1.8"/>
									<polygon class="st4" points="638.4,405.7 636.7,405.9 629.5,340 631.2,339.8 									"/>
									
										<rect x="657.1" y="404.9" transform="matrix(0.879 -0.4769 0.4769 0.879 -110.3556 376.7278)" class="st4" width="59.8" height="1.8"/>
									<polygon class="st4" points="767.2,464.7 765.4,464.9 761.5,421.6 763.3,421.4 									"/>
									<polygon class="st4" points="753,156.6 709.2,130.1 710.1,128.6 753.9,155.1 									"/>
									
										<rect x="707.5" y="70.3" transform="matrix(0.879 -0.4769 0.4769 0.879 54.6372 357.5782)" class="st4" width="48.7" height="1.8"/>
								</g>
							</g>
						</g>
					</g>
					<g class="st2">
						<g>
							<g class="st3">
								<g>
									<path class="st4" d="M476.3,709.2l-0.8-0.5l2.2-84.3l0-1l74.9-40.7l71.8,44l0.8,0.5l-2.2,84.2l0,1l-74.9,40.7L476.3,709.2
										L476.3,709.2z M621.8,629.3l-69.3-42.5L481,625.5l-2.1,81.3l69.3,42.5l71.5-38.8L621.8,629.3L621.8,629.3z"/>
									<path class="st4" d="M286.5,812l-0.7-0.4l1.8-67.5l0-0.8l60-32.5l57.5,35.3l0.7,0.4l-1.8,67.4l0,0.8l-60,32.5L286.5,812z
										 M403,748l-55.5-34l-57.2,31l-1.7,65.1l55.5,34l57.2-31L403,748L403,748z"/>
									<path class="st4" d="M680.8,796.6l-0.3-0.2l0.9-34.7l0-0.4l30.9-16.8l29.6,18.2l0.3,0.2l-0.9,34.7l0,0.4l-30.9,16.8
										L680.8,796.6L680.8,796.6z M740.8,763.6l-28.6-17.5l-29.5,16l-0.9,33.5l28.6,17.5l29.5-16L740.8,763.6L740.8,763.6z"/>
									<path class="st4" d="M171.6,692l-0.4-0.3l1.2-44.2l0-0.5l39.3-21.3l37.7,23.1l0.4,0.3l-1.2,44.2l0,0.5l-39.3,21.3
										L171.6,692L171.6,692z M248.1,650.1l-36.4-22.3l-37.5,20.3l-1.1,42.7l36.4,22.3l37.5-20.3L248.1,650.1L248.1,650.1z"/>
									<path class="st4" d="M330.7,468.5l-0.2-0.1l0.6-24.8v-0.3l22-12l21.1,13l0.2,0.2l-0.6,24.8v0.3l-22,12L330.7,468.5
										L330.7,468.5z M373.5,445l-20.4-12.5l-21,11.4l-0.6,23.9l20.4,12.5l21-11.4L373.5,445L373.5,445z"/>
									<path class="st4" d="M521.2,485.5l-0.3-0.2l0.9-35.4l0-0.4l31.5-17.1l30.2,18.5l0.3,0.2l-0.9,35.4l0,0.4L551.4,504
										L521.2,485.5L521.2,485.5z M582.3,451.9l-29.1-17.9l-30,16.3l-0.9,34.2l29.1,17.9l30-16.3L582.3,451.9z"/>
									<path class="st4" d="M644.7,533.9l-0.4-0.2l1-38.7l0-0.5l34.4-18.6l33,20.2l0.4,0.2l-1,38.6l0,0.5l-34.4,18.7L644.7,533.9z
										 M711.4,497.2l-31.8-19.5l-32.8,17.8l-1,37.3l31.8,19.5l32.8-17.8L711.4,497.2L711.4,497.2z"/>
									<path class="st4" d="M300,622.5l-0.6-0.4L301,564l0-0.7l51.7-28l49.6,30.4l0.6,0.4l-1.5,58.1l0,0.7l-51.7,28L300,622.5
										L300,622.5z M400.5,567.3L352.6,538l-49.3,26.8l-1.5,56.1l47.8,29.3l49.3-26.8L400.5,567.3z"/>
									<polygon class="st4" points="553.6,586.8 552.5,502.4 550.3,502.4 551.4,586.8 									"/>
									<polygon class="st4" points="353.2,537.2 352.5,480.1 350.7,480 351.4,537.2 									"/>
									
										<rect x="399.5" y="725.7" transform="matrix(0.879 -0.4769 0.4769 0.879 -293.094 298.5905)" class="st4" width="84.4" height="2.2"/>
									<polygon class="st4" points="682.1,762.9 683.4,761.2 620.3,709.7 619,711.3 									"/>
									<polygon class="st4" points="348.5,714 350.6,651.2 348.5,651.1 346.4,713.9 									"/>
									
										<rect x="244.8" y="633.9" transform="matrix(0.879 -0.4769 0.4769 0.879 -269.5351 207.824)" class="st4" width="59.9" height="2.2"/>
								</g>
								<g>
									<path class="st4" d="M239.4,204.3l-0.8-0.5l2.2-84.3l0-1l74.9-40.7l71.8,44l0.8,0.5l-2.2,84.2l0,1l-74.9,40.7L239.4,204.3
										L239.4,204.3z M384.9,124.4l-69.3-42.5l-71.4,38.8l-2.1,81.3l69.3,42.5l71.4-38.8C382.7,205.7,384.9,124.4,384.9,124.4z"/>
									<path class="st4" d="M49.5,307.1l-0.7-0.4l1.8-67.4l0-0.8l60-32.5l57.5,35.3l0.7,0.4L167,309l0,0.8l-60,32.5L49.5,307.1
										L49.5,307.1z M166.1,243.1l-55.5-34l-57.2,31l-1.7,65.1l55.5,34l57.2-31L166.1,243.1L166.1,243.1z"/>
									<path class="st4" d="M256.2,394.4l-0.7-0.5l1.9-71.4l0-0.8l63.4-34.4l60.8,37.3l0.7,0.5l-1.9,71.3l0,0.8L317,431.7
										L256.2,394.4L256.2,394.4z M379.4,326.8l-58.7-36l-60.5,32.8l-1.8,68.8l58.7,36l60.5-32.8L379.4,326.8L379.4,326.8z"/>
									<path class="st4" d="M418,470.2l-0.4-0.3l1.1-41l0-0.5l36.5-19.8l35,21.5l0.4,0.3l-1.1,41l0,0.5L453,491.6L418,470.2
										L418,470.2z M488.9,431.2l-33.8-20.7l-34.8,18.9l-1,39.6l33.8,20.7l34.8-18.9L488.9,431.2z"/>
									<path class="st4" d="M443.9,291.7l-0.4-0.2l0.9-34.7l0-0.4l30.9-16.8l29.6,18.1l0.4,0.2l-0.9,34.7l0,0.4l-30.9,16.8
										L443.9,291.7L443.9,291.7z M503.9,258.8l-28.6-17.5l-29.5,16l-0.9,33.5l28.6,17.5l29.5-16L503.9,258.8z"/>
									<path class="st4" d="M147.7,450.7l-0.4-0.2l1-39.7l0-0.5l35.3-19.1l33.8,20.7l0.4,0.2l-1.1,39.6l0,0.5l-35.3,19.1
										L147.7,450.7L147.7,450.7z M216.2,413.1l-32.6-20l-33.6,18.2l-1,38.3l32.6,20l33.6-18.2L216.2,413.1L216.2,413.1z"/>
									<path class="st4" d="M36.2,392.1l-0.4-0.2l1-39.7l0-0.5l35.3-19.1l33.8,20.7l0.4,0.2l-1,39.6l0,0.5L70,412.9L36.2,392.1
										L36.2,392.1z M104.7,354.5l-32.6-20l-33.6,18.2l-1,38.3L70,411l33.6-18.2L104.7,354.5L104.7,354.5z"/>
									<path class="st4" d="M-65.3,187.2l-0.4-0.3l1.2-44.2l0-0.5l39.3-21.3l37.7,23.1l0.4,0.3l-1.2,44.2l0,0.5l-39.3,21.3
										L-65.3,187.2z M11.2,145.2l-36.4-22.3l-37.5,20.4l-1.1,42.7l36.4,22.3L10,187.8L11.2,145.2L11.2,145.2z"/>
									<path class="st4" d="M407.8,29l-0.4-0.2l1-38.7l0-0.4L442.8-29l33,20.2l0.4,0.2l-1,38.6l0,0.5l-34.4,18.6L407.8,29
										L407.8,29z M474.5-7.7l-31.8-19.5L409.9-9.4l-1,37.3l31.8,19.5l32.8-17.8C473.5,29.6,474.5-7.6,474.5-7.7z"/>
									<path class="st4" d="M63.1,117.6l-0.6-0.4L64,59.1l0-0.7l51.7-28l49.6,30.4l0.6,0.4l-1.5,58.1l0,0.7L112.7,148L63.1,117.6
										L63.1,117.6z M163.5,62.4l-47.8-29.3L66.4,59.8l-1.5,56.1l47.8,29.3l49.3-26.8L163.5,62.4L163.5,62.4z"/>
									<polygon class="st4" points="316.7,81.9 315.6,-2.5 313.4,-2.5 314.5,81.9 									"/>
									<polygon class="st4" points="116.3,32.3 115.6,-24.8 113.8,-24.8 114.5,32.3 									"/>
									
										<rect x="162.6" y="220.8" transform="matrix(0.879 -0.4769 0.4769 0.879 -81.0163 124.5274)" class="st4" width="84.4" height="2.2"/>
									<polygon class="st4" points="445.2,258 446.5,256.4 383.4,204.8 382.1,206.5 									"/>
									
										<rect x="375.9" y="307.1" transform="matrix(0.879 -0.4769 0.4769 0.879 -97.0355 234.0665)" class="st4" width="73.5" height="2.2"/>
									<polygon class="st4" points="419.6,430.2 421,428.6 379,395.5 377.6,397.2 									"/>
									<polygon class="st4" points="111.6,209.1 113.7,146.3 111.6,146.2 109.5,209 									"/>
									
										<rect x="7.9" y="129" transform="matrix(0.879 -0.4769 0.4769 0.879 -57.4574 33.7609)" class="st4" width="59.9" height="2.2"/>
								</g>
							</g>
							<g>
								<g>
									<path class="st4" d="M518.8,787.2l-61,33.1l-0.7-0.4L398.7,784v-0.8l1.8-68.5l61-33.1l0.7,0.4l58.4,35.9v0.8L518.8,787.2
										L518.8,787.2z M457.9,817.1l58.1-31.5l1.8-66.1l-56.4-34.6l-58.1,31.5l-1.7,66.1L457.9,817.1L457.9,817.1z"/>
									<path class="st4" d="M673.4,689.7l-48.8,26.5l-0.5-0.3l-46.8-28.7v-0.7l1.5-54.8l48.8-26.5l0.5,0.3l46.8,28.7v0.7
										L673.4,689.7L673.4,689.7z M624.7,713.6l46.5-25.2l1.4-52.9l-45.1-27.7L581,633l-1.4,52.9L624.7,713.6L624.7,713.6z"/>
									<path class="st4" d="M728.4,797.7l-28.7,15.6l-0.3-0.2l-27.5-16.9v-0.4l0.9-32.2l28.7-15.6l0.3,0.2l27.5,16.9v0.4
										L728.4,797.7z M699.7,811.8l27.4-14.8l0.8-31.1l-26.5-16.3L674,764.3l-0.8,31.1L699.7,811.8L699.7,811.8z"/>
									<path class="st4" d="M737.9,695.7l-28.7,15.6l-0.3-0.2l-27.5-16.9v-0.4l0.9-32.2L711,646l0.3,0.2l27.5,16.9v0.4
										L737.9,695.7z M709.3,709.7l27.4-14.8l0.8-31.1l-26.5-16.3l-27.4,14.8l-0.8,31.1L709.3,709.7L709.3,709.7z"/>
									<path class="st4" d="M643,539.3l-32,17.4l-0.4-0.2L580,537.6v-0.4l1-36l32-17.4l0.4,0.2l30.7,18.8v0.4L643,539.3L643,539.3
										z M611.1,555l30.5-16.6l0.9-34.7l-29.6-18.2l-30.5,16.6l-0.9,34.7L611.1,555L611.1,555z"/>
									<path class="st4" d="M420.5,532.8l-17.9,9.7l-0.2-0.1l-17.2-10.5v-0.2l0.5-20.1l17.9-9.7l0.2,0.1l17.2,10.6v0.2
										L420.5,532.8L420.5,532.8z M402.6,541.6l17.1-9.3l0.5-19.4l-16.6-10.2l-17.1,9.3l-0.5,19.4L402.6,541.6L402.6,541.6z"/>
									<path class="st4" d="M347.4,678.9l-25.6,13.9l-0.3-0.2l-24.5-15.1v-0.3l0.8-28.8l25.6-13.9l0.3,0.2l24.6,15.1v0.3
										L347.4,678.9L347.4,678.9z M321.8,691.5l24.4-13.2l0.7-27.8l-23.7-14.5l-24.4,13.2l-0.7,27.8L321.8,691.5L321.8,691.5z"/>
									<path class="st4" d="M325.5,787.2l-28,15.2l-0.3-0.2l-26.8-16.5v-0.4l0.8-31.4l28-15.2l0.3,0.2l26.8,16.5v0.4L325.5,787.2
										L325.5,787.2z M297.6,800.9l26.7-14.5l0.8-30.3l-25.9-15.9l-26.7,14.5l-0.8,30.3L297.6,800.9z"/>
									<path class="st4" d="M538.4,607.3l-42.1,22.8l-0.5-0.3l-40.3-24.7v-0.6l1.3-47.3l42.1-22.8l0.5,0.3l40.3,24.8v0.6
										L538.4,607.3L538.4,607.3z M496.3,627.9l40.1-21.8l1.2-45.6l-38.9-23.9l-40.1,21.8l-1.2,45.6L496.3,627.9z"/>
									<polygon class="st4" points="402.8,717.1 345.7,678.9 346.7,677.5 403.8,715.6 									"/>
									<polygon class="st4" points="457.9,558.5 419.2,532.6 420,531.4 458.6,557.3 									"/>
									
										<rect x="513.6" y="702" transform="matrix(0.879 -0.4769 0.4769 0.879 -268.8879 346.3224)" class="st4" width="68.7" height="1.8"/>
									<polygon class="st4" points="580.5,633.7 536.7,607.3 537.6,605.8 581.4,632.2 									"/>
									
										<rect x="535" y="547.4" transform="matrix(0.879 -0.4769 0.4769 0.879 -193.7628 333.084)" class="st4" width="48.7" height="1.8"/>
								</g>
								<g>
									<path class="st4" d="M279.5,401.7l-60.9,33.1l-0.7-0.4l-58.4-35.8v-0.8l1.8-68.5l60.9-33.1l0.7,0.4l58.4,35.9v0.8
										L279.5,401.7z M218.7,431.6l58.1-31.5l1.8-66.1l-56.4-34.6L164,330.9l-1.7,66.1L218.7,431.6L218.7,431.6z"/>
									<path class="st4" d="M434.2,304.2l-48.8,26.5l-0.5-0.3l-46.8-28.7V301l1.5-54.9l48.8-26.5l0.5,0.3l46.8,28.7v0.6
										L434.2,304.2z M385.5,328.1l46.5-25.2l1.4-52.9l-45.1-27.7l-46.5,25.2l-1.4,52.9L385.5,328.1L385.5,328.1z"/>
									<path class="st4" d="M402,487l-51.6,28l-0.6-0.3l-49.5-30.4v-0.7l1.5-58l51.6-28l0.6,0.3l49.5,30.4v0.7L402,487L402,487z
										 M350.5,512.3l49.2-26.7l1.5-56l-47.7-29.3L304.2,427l-1.5,56L350.5,512.3L350.5,512.3z"/>
									<path class="st4" d="M382.5,606.3l-29.7,16.1l-0.3-0.2L324,604.8v-0.4l0.9-33.4l29.7-16.1l0.3,0.2l28.5,17.5v0.4
										L382.5,606.3L382.5,606.3z M352.9,620.8l28.3-15.4l0.9-32.2l-27.5-16.9l-28.3,15.4l-0.9,32.2L352.9,620.8L352.9,620.8z"/>
									<path class="st4" d="M249.5,539.7l-25.1,13.6l-0.3-0.2L200,538.3V538l0.8-28.2l25.1-13.6l0.3,0.2l24.1,14.8v0.3
										L249.5,539.7L249.5,539.7z M224.4,552l24-13l0.7-27.2l-23.2-14.3l-24,13l-0.7,27.2L224.4,552L224.4,552z"/>
									<path class="st4" d="M489.2,412.2l-28.7,15.6l-0.3-0.2l-27.5-16.9v-0.4l0.9-32.2l28.7-15.6l0.3,0.2l27.5,16.9v0.4
										L489.2,412.2z M460.5,426.3l27.4-14.8l0.8-31.1L462.2,364l-27.4,14.8L434,410L460.5,426.3L460.5,426.3z"/>
									<path class="st4" d="M498.7,310.2L470,325.8l-0.3-0.2l-27.5-16.9v-0.4l0.9-32.3l28.7-15.6l0.3,0.2l27.5,16.9v0.4
										L498.7,310.2L498.7,310.2z M470.1,324.2l27.4-14.8l0.8-31.1L471.7,262l-27.4,14.8l-0.8,31.1L470.1,324.2L470.1,324.2z"/>
									<path class="st4" d="M403.8,153.8l-32,17.4l-0.4-0.2l-30.7-18.8v-0.4l1-36l32-17.4l0.4,0.2l30.7,18.8v0.4L403.8,153.8
										L403.8,153.8z M371.9,169.5l30.5-16.6l0.9-34.7l-29.6-18.2l-30.5,16.6l-0.9,34.7L371.9,169.5z"/>
									<path class="st4" d="M181.3,147.4l-17.9,9.7l-0.2-0.1L146,146.4v-0.2l0.5-20.2l17.9-9.7l0.2,0.1l17.2,10.5v0.2L181.3,147.4
										L181.3,147.4z M163.4,156.1l17.1-9.3l0.5-19.4l-16.6-10.2l-17.1,9.3l-0.5,19.4L163.4,156.1L163.4,156.1z"/>
									<path class="st4" d="M108.2,293.4l-25.6,13.9l-0.3-0.2l-24.5-15.1v-0.3l0.8-28.8l25.6-13.9l0.3,0.2l24.6,15.1v0.3
										L108.2,293.4L108.2,293.4z M82.6,306l24.4-13.2l0.7-27.8l-23.7-14.5l-24.4,13.3l-0.7,27.8L82.6,306L82.6,306z"/>
									<path class="st4" d="M86.3,401.7l-28,15.2l-0.3-0.2l-26.8-16.5v-0.4l0.8-31.4l28-15.2l0.3,0.2l26.8,16.5v0.4L86.3,401.7
										L86.3,401.7z M58.4,415.4L85,400.9l0.8-30.3L60,354.7l-26.7,14.5l-0.8,30.3C32.5,399.6,58.4,415.4,58.4,415.4z"/>
									<path class="st4" d="M299.1,221.8l-42.1,22.8l-0.5-0.3l-40.3-24.7v-0.6l1.3-47.3l42.1-22.8l0.5,0.3l40.3,24.8v0.6
										L299.1,221.8L299.1,221.8z M257.1,242.4l40.1-21.8l1.2-45.6l-38.9-23.9l-40.1,21.8l-1.2,45.6L257.1,242.4z"/>
									<polygon class="st4" points="163.6,331.6 106.5,293.4 107.5,292 164.5,330.2 									"/>
									<polygon class="st4" points="218.7,173 180,147.1 180.8,145.9 219.4,171.8 									"/>
									
										<rect x="274.3" y="316.6" transform="matrix(0.879 -0.4769 0.4769 0.879 -114.0226 185.6068)" class="st4" width="68.6" height="1.8"/>
									<polygon class="st4" points="226.7,497.4 225,497.5 217.8,431.6 219.5,431.5 									"/>
									
										<rect x="245.5" y="496.6" transform="matrix(0.879 -0.4769 0.4769 0.879 -203.8819 191.5135)" class="st4" width="59.8" height="1.8"/>
									<polygon class="st4" points="355.5,556.3 353.7,556.5 349.8,513.2 351.6,513.1 									"/>
									<polygon class="st4" points="341.3,248.2 297.5,221.8 298.4,220.3 342.2,246.7 									"/>
									
										<rect x="295.8" y="161.9" transform="matrix(0.879 -0.4769 0.4769 0.879 -38.8894 172.3708)" class="st4" width="48.7" height="1.8"/>
								</g>
							</g>
						</g>
					</g>
					<g class="st2">
						<g>
							<g class="st3">
								<g>
									<path class="st4" d="M-5.3,555.4l-0.8-0.5l2.2-84.3l0-1L71,428.9l71.8,44l0.8,0.5l-2.2,84.2l0,1l-74.9,40.7L-5.3,555.4
										L-5.3,555.4z M140.2,475.4l-69.3-42.5l-71.4,38.8L-2.7,553l69.3,42.5l71.4-38.8L140.2,475.4L140.2,475.4z"/>
									<path class="st4" d="M11.5,745.5l-0.7-0.5l1.9-71.3l0-0.8l63.4-34.4l60.8,37.3l0.7,0.5l-1.9,71.3l0,0.8l-63.4,34.4
										L11.5,745.5L11.5,745.5z M134.7,677.8l-58.7-36l-60.5,32.8l-1.8,68.8l58.7,36l60.5-32.8L134.7,677.8L134.7,677.8z"/>
									<path class="st4" d="M173.3,821.2l-0.4-0.3l1.1-41l0-0.5l36.5-19.8l35,21.5l0.4,0.3l-1.1,41l0,0.5l-36.5,19.8L173.3,821.2
										L173.3,821.2z M244.2,782.3l-33.8-20.7l-34.8,18.9l-1,39.6l33.8,20.7l34.8-18.9L244.2,782.3z"/>
									<path class="st4" d="M199.2,642.8l-0.4-0.2l0.9-34.7l0-0.4l30.9-16.8l29.6,18.2l0.4,0.2l-0.9,34.7l0,0.4l-30.9,16.8
										L199.2,642.8L199.2,642.8z M259.1,609.8l-28.6-17.5l-29.4,16l-0.9,33.5l28.6,17.5l29.4-16L259.1,609.8z"/>
									<path class="st4" d="M39.6,331.7l-0.3-0.2l0.9-35.4l0-0.4l31.5-17.1l30.2,18.5l0.3,0.2l-0.9,35.4l0,0.4l-31.5,17.1
										L39.6,331.7L39.6,331.7z M100.7,298.1l-29.1-17.9l-30,16.3l-0.9,34.2l29.1,17.9l30-16.3
										C99.8,332.3,100.7,298.1,100.7,298.1z"/>
									<path class="st4" d="M163,380.1l-0.4-0.2l1-38.7l0-0.5l34.4-18.6l33,20.2l0.4,0.2l-1,38.6l0,0.5L196,400.3L163,380.1
										L163,380.1z M229.8,343.4L198,323.9l-32.8,17.8l-1,37.3l31.8,19.5l32.8-17.8L229.8,343.4L229.8,343.4z"/>
									<polygon class="st4" points="71.9,432.9 70.9,348.5 68.7,348.5 69.8,432.9 									"/>
									<polygon class="st4" points="200.4,609.1 201.8,607.4 138.7,555.8 137.4,557.5 									"/>
									
										<rect x="131.2" y="658.2" transform="matrix(0.879 -0.4769 0.4769 0.879 -294.0501 159.8563)" class="st4" width="73.5" height="2.2"/>
									<polygon class="st4" points="174.9,781.3 176.2,779.6 134.3,746.6 132.9,748.3 									"/>
								</g>
							</g>
							<g>
								<path class="st4" d="M34.8,752.8l-61,33.1l-0.7-0.4l-58.4-35.8v-0.8l1.8-68.5l61-33.1l0.7,0.4l58.4,35.9v0.8
									C36.7,684.3,34.8,752.8,34.8,752.8z M-26,782.6l58.1-31.5l1.8-66.1l-56.4-34.6l-58.1,31.5l-1.7,66.1L-26,782.6L-26,782.6z"
									/>
								<path class="st4" d="M189.5,655.2l-48.8,26.5l-0.6-0.3l-46.8-28.7V652l1.5-54.8l48.8-26.5l0.6,0.3l46.8,28.7v0.7
									L189.5,655.2L189.5,655.2z M140.8,679.1l46.5-25.2l1.4-52.9l-45.1-27.7L97,598.5l-1.4,52.9L140.8,679.1L140.8,679.1z"/>
								<path class="st4" d="M157.3,838l-51.6,28l-0.6-0.3l-49.5-30.3v-0.7l1.5-58l51.6-28l0.6,0.3l49.5,30.4v0.7L157.3,838z
									 M105.8,863.3l49.2-26.7l1.5-56l-47.7-29.3l-49.2,26.7l-1.5,56L105.8,863.3L105.8,863.3z"/>
								<path class="st4" d="M244.5,763.3l-28.7,15.6l-0.3-0.2L188,761.8v-0.4l0.9-32.2l28.7-15.6l0.3,0.2l27.5,16.9v0.4
									L244.5,763.3z M215.8,777.3l27.4-14.8l0.8-31.1l-26.5-16.3l-27.4,14.8l-0.8,31.1L215.8,777.3L215.8,777.3z"/>
								<path class="st4" d="M254,661.2l-28.7,15.6l-0.3-0.2l-27.5-16.9v-0.4l0.9-32.3l28.7-15.6l0.3,0.2l27.5,16.9v0.4L254,661.2
									L254,661.2z M225.4,675.3l27.4-14.8l0.8-31.1L227,613l-27.4,14.8l-0.8,31.1L225.4,675.3z"/>
								<path class="st4" d="M159.1,504.9l-32,17.4l-0.4-0.2l-30.7-18.8v-0.4l1-36l32-17.4l0.4,0.2l30.7,18.8v0.4L159.1,504.9
									L159.1,504.9z M127.2,520.6l30.5-16.6l0.9-34.7L129,451.1l-30.5,16.6l-0.9,34.7L127.2,520.6L127.2,520.6z"/>
								<path class="st4" d="M54.4,572.9l-42.1,22.8l-0.5-0.3l-40.3-24.7v-0.6l1.3-47.3L14.9,500l0.5,0.3L55.7,525v0.6L54.4,572.9z
									 M12.4,593.5l40.1-21.8l1.2-45.6l-38.9-23.9L-25.3,524l-1.2,45.6L12.4,593.5z"/>
								
									<rect x="29.6" y="667.6" transform="matrix(0.879 -0.4769 0.4769 0.879 -311.0303 111.3969)" class="st4" width="68.7" height="1.8"/>
								<polygon class="st4" points="96.6,599.3 52.8,572.8 53.7,571.3 97.5,597.8 								"/>
								
									<rect x="51.1" y="513" transform="matrix(0.879 -0.4769 0.4769 0.879 -235.9052 98.1585)" class="st4" width="48.7" height="1.8"/>
							</g>
						</g>
					</g>
				</g>
			</g>
		</g>
		<g>
			<defs>
				<rect id="SVGID_00000078734985383549470860000015837927782686483384_" x="937.2" width="428.8" height="768"/>
			</defs>
			<clipPath id="SVGID_00000183216504229763685310000010264428730172347532_">
				<use xlink:href="#SVGID_00000078734985383549470860000015837927782686483384_"  style="overflow:visible;"/>
			</clipPath>
		</g>
		<g>
			<defs>
				<rect id="SVGID_00000174580204351132470020000004258201857803784593_" width="428.8" height="768"/>
			</defs>
			<clipPath id="SVGID_00000083075583168672046020000016998698288922830519_">
				<use xlink:href="#SVGID_00000174580204351132470020000004258201857803784593_"  style="overflow:visible;"/>
			</clipPath>
		</g>
	</g>
</g>
</svg>
