<?xml version="1.0" encoding="UTF-8"?>
<svg id="Capa_2" data-name="Capa 2" xmlns="http://www.w3.org/2000/svg" xmlns:xlink="http://www.w3.org/1999/xlink" viewBox="0 0 1366 768">
  <defs>
    <style>
      .cls-1 {
        opacity: .5;
      }

      .cls-2 {
        opacity: .41;
      }

      .cls-2, .cls-3 {
        fill: none;
      }

      .cls-4 {
        clip-path: url(#clippath-2);
      }

      .cls-5 {
        clip-path: url(#clippath-1);
      }

      .cls-6 {
        opacity: .3;
      }

      .cls-7 {
        clip-path: url(#clippath);
      }

      .cls-8 {
        fill: #131f2b;
      }

      .cls-9 {
        fill: #b0dd26;
      }

      .cls-10 {
        fill: #23323e;
      }
    </style>
    <clipPath id="clippath">
      <rect id="BG-2" data-name="BG" class="cls-3" width="1366" height="768" transform="translate(1366 768) rotate(180)"/>
    </clipPath>
    <clipPath id="clippath-1">
      <rect class="cls-3" x="937.21" width="428.79" height="768" transform="translate(2303.21 768) rotate(180)"/>
    </clipPath>
    <clipPath id="clippath-2">
      <rect class="cls-3" width="428.79" height="768"/>
    </clipPath>
  </defs>
  <g id="Capa_1-2" data-name="Capa 1">
    <g>
      <g id="BG">
        <g class="cls-7">
          <rect id="BG-3" data-name="BG" class="cls-8" width="1366" height="768" transform="translate(1366 768) rotate(180)"/>
          <g class="cls-1">
            <g>
              <g class="cls-6">
                <g>
                  <path class="cls-10" d="m1299.68,524.33l-.84-.53,2.21-84.26.04-.98,74.93-40.65,71.83,44.05.84.54-2.22,84.23-.04.98-74.93,40.65-71.82-44.03Zm145.53-79.94l-69.31-42.53-71.45,38.76-2.14,81.29,69.29,42.5,71.45-38.76,2.16-81.26Z"/>
                  <path class="cls-10" d="m1109.86,627.1l-.67-.43,1.76-67.45.04-.78,59.98-32.54,57.5,35.27.68.43-1.78,67.42-.04.78-59.98,32.54-57.49-35.24Zm116.5-63.99l-55.48-34.04-57.19,31.03-1.72,65.07,55.47,34.02,57.19-31.03,1.73-65.04Z"/>
                  <path class="cls-10" d="m1316.49,714.44l-.71-.45,1.87-71.35.03-.82,63.44-34.42,60.83,37.3.71.45-1.88,71.32-.04.83-63.44,34.42-60.81-37.28Zm123.23-67.69l-58.69-36.01-60.5,32.82-1.81,68.83,58.68,35.99,60.5-32.82,1.83-68.81Z"/>
                  <path class="cls-10" d="m1207.99,770.7l-.4-.25,1.04-39.66.02-.46,35.27-19.13,33.81,20.74.4.25-1.04,39.65-.02.46-35.27,19.13-33.81-20.73Zm68.51-37.63l-32.63-20.02-33.63,18.25-1.01,38.27,32.62,20.01,33.63-18.25,1.01-38.25Z"/>
                  <path class="cls-10" d="m1096.47,712.15l-.4-.25,1.04-39.66.02-.46,35.27-19.13,33.82,20.74.39.25-1.04,39.65-.02.46-35.27,19.13-33.81-20.72Zm68.51-37.63l-32.62-20.02-33.64,18.25-1.01,38.26,32.62,20.01,33.64-18.25,1.01-38.25Z"/>
                  <path class="cls-10" d="m995.06,507.15l-.44-.28,1.16-44.24.02-.51,39.34-21.34,37.72,23.13.44.28-1.17,44.22-.02.52-39.34,21.34-37.71-23.12Zm76.42-41.97l-36.4-22.33-37.51,20.35-1.13,42.69,36.38,22.31,37.51-20.35,1.14-42.66Z"/>
                  <path class="cls-10" d="m1154.14,283.65l-.25-.15.65-24.77v-.29s22.04-11.95,22.04-11.95l21.11,12.95.25.16-.65,24.76v.29s-22.04,11.95-22.04,11.95l-21.11-12.94Zm42.78-23.5l-20.37-12.5-21,11.39-.63,23.9,20.37,12.49,21-11.39.63-23.89Z"/>
                  <path class="cls-10" d="m1344.59,300.66l-.35-.23.93-35.41.02-.41,31.49-17.08,30.19,18.52.35.22-.93,35.4-.02.41-31.49,17.08-30.18-18.5Zm61.16-33.6l-29.12-17.87-30.03,16.29-.9,34.16,29.12,17.86,30.03-16.29.9-34.15Z"/>
                  <path class="cls-10" d="m1123.42,437.61l-.58-.37,1.52-58.16.03-.67,51.71-28.05,49.58,30.4.58.37-1.53,58.14-.03.67-51.71,28.05-49.57-30.38Zm100.44-55.18l-47.84-29.35-49.31,26.75-1.48,56.11,47.83,29.33,49.31-26.75,1.49-56.09Z"/>
                  <polygon class="cls-10" points="1176.57 352.31 1175.86 295.18 1174.14 295.16 1174.85 352.3 1176.57 352.31"/>
                  <rect class="cls-10" x="1222.96" y="540.79" width="84.39" height="2.18" transform="translate(-105.3 668.85) rotate(-28.48)"/>
                  <polygon class="cls-10" points="1171.95 529.11 1174.05 466.3 1171.91 466.22 1169.81 529.03 1171.95 529.11"/>
                  <rect class="cls-10" x="1068.16" y="448.98" width="59.86" height="2.18" transform="translate(-81.73 578.08) rotate(-28.48)"/>
                </g>
                <g>
                  <path class="cls-10" d="m1062.78,19.45l-.84-.53,2.21-84.26.04-.98,74.93-40.65,71.83,44.05.84.53-2.22,84.23-.04.98-74.93,40.65-71.82-44.03Zm145.53-79.94l-69.31-42.53-71.45,38.76-2.14,81.29,69.29,42.5,71.45-38.76,2.16-81.26Z"/>
                  <path class="cls-10" d="m872.96,122.22l-.67-.43,1.77-67.45.03-.78,59.97-32.53,57.5,35.27.68.43-1.78,67.42-.03.78-59.97,32.53-57.49-35.24Zm116.5-63.99l-55.48-34.04-57.19,31.03-1.71,65.07,55.47,34.02,57.19-31.03,1.73-65.05Z"/>
                  <path class="cls-10" d="m1079.58,209.56l-.71-.45,1.87-71.35.04-.83,63.44-34.42,60.83,37.31.71.45-1.88,71.32-.03.82-63.44,34.42-60.81-37.28Zm123.23-67.69l-58.69-36.01-60.5,32.82-1.81,68.83,58.68,35.99,60.5-32.82,1.83-68.81Z"/>
                  <path class="cls-10" d="m1241.39,285.31l-.41-.26,1.08-41.05.02-.48,36.5-19.8,35,21.46.41.26-1.08,41.04-.02.48-36.5,19.8-34.99-21.45Zm70.91-38.95l-33.77-20.72-34.81,18.88-1.04,39.6,33.76,20.71,34.81-18.88,1.05-39.59Z"/>
                  <path class="cls-10" d="m1267.29,106.82l-.35-.22.91-34.73.02-.4,30.88-16.75,29.61,18.15.35.22-.92,34.71-.02.4-30.88,16.75-29.6-18.14Zm59.98-32.95l-28.57-17.53-29.45,15.97-.88,33.5,28.56,17.52,29.45-15.97.89-33.49Z"/>
                  <path class="cls-10" d="m971.09,265.82l-.4-.25,1.04-39.66.02-.46,35.27-19.13,33.81,20.74.4.25-1.05,39.65-.02.46-35.27,19.13-33.81-20.73Zm68.51-37.63l-32.63-20.02-33.63,18.25-1.01,38.26,32.62,20.01,33.63-18.25,1.02-38.25Z"/>
                  <path class="cls-10" d="m859.57,207.27l-.4-.25,1.04-39.66.02-.46,35.27-19.13,33.81,20.74.4.25-1.04,39.65-.02.46-35.27,19.13-33.81-20.72Zm68.51-37.63l-32.63-20.02-33.63,18.25-1.01,38.26,32.62,20.01,33.63-18.25,1.02-38.25Z"/>
                  <path class="cls-10" d="m758.15,2.28l-.44-.28,1.16-44.24.02-.51,39.34-21.34,37.72,23.13.44.28-1.17,44.23-.02.51-39.34,21.34-37.71-23.12Zm76.42-41.98l-36.39-22.33-37.51,20.35-1.13,42.68,36.39,22.31,37.51-20.35,1.13-42.67Z"/>
                  <rect class="cls-10" x="986.05" y="35.92" width="84.39" height="2.18" transform="translate(106.78 494.79) rotate(-28.48)"/>
                  <polygon class="cls-10" points="1268.57 73.15 1269.9 71.48 1206.81 19.92 1205.48 21.59 1268.57 73.15"/>
                  <rect class="cls-10" x="1199.28" y="122.26" width="73.54" height="2.18" transform="translate(90.76 604.32) rotate(-28.48)"/>
                  <polygon class="cls-10" points="1243.04 245.37 1244.37 243.69 1202.39 210.66 1201.05 212.34 1243.04 245.37"/>
                  <polygon class="cls-10" points="935.04 24.23 937.14 -38.58 935 -38.66 932.9 24.15 935.04 24.23"/>
                </g>
              </g>
              <g>
                <g>
                  <path class="cls-10" d="m1342.16,602.32l-60.95,33.07-.68-.4-58.42-35.84v-.81s1.83-68.53,1.83-68.53l60.95-33.07.68.4,58.44,35.87v.81s-1.84,68.5-1.84,68.5Zm-60.86,29.86l58.13-31.53,1.75-66.1-56.38-34.6-58.13,31.53-1.74,66.13,56.37,34.57Z"/>
                  <path class="cls-10" d="m1464.63,687.61l-51.61,28-.58-.34-49.48-30.35v-.69s1.55-58.02,1.55-58.02l51.61-28,.58.34,49.48,30.37v.69s-1.56,58.01-1.56,58.01Zm-51.53,25.28l49.22-26.7,1.48-55.97-47.74-29.3-49.22,26.7-1.48,55.99,47.73,29.28Z"/>
                  <path class="cls-10" d="m1312.11,740.26l-25.12,13.63-.28-.17-24.08-14.77v-.33s.76-28.24.76-28.24l25.12-13.63.28.17,24.08,14.78v.34s-.76,28.23-.76,28.23Zm-25.08,12.3l23.96-13,.72-27.24-23.23-14.26-23.96,13-.72,27.25,23.23,14.25Z"/>
                  <path class="cls-10" d="m1243.89,347.95l-17.91,9.72-.2-.12-17.17-10.54v-.24s.54-20.14.54-20.14l17.91-9.72.2.12,17.18,10.55v.24s-.54,20.14-.54,20.14Zm-17.89,8.78l17.09-9.27.52-19.43-16.57-10.17-17.09,9.27-.51,19.44,16.57,10.16Z"/>
                  <path class="cls-10" d="m1170.78,494.03l-25.61,13.9-.29-.17-24.55-15.06v-.34s.77-28.8.77-28.8l25.61-13.9.29.17,24.56,15.07v.34s-.77,28.79-.77,28.79Zm-25.58,12.55l24.43-13.25.74-27.78-23.69-14.54-24.43,13.25-.73,27.79,23.69,14.53Z"/>
                  <path class="cls-10" d="m1148.93,602.32l-27.96,15.17-.31-.19-26.8-16.45v-.37s.84-31.44.84-31.44l27.96-15.17.31.19,26.81,16.46v.37s-.84,31.43-.84,31.43Zm-27.93,13.7l26.67-14.47.81-30.33-25.87-15.87-26.67,14.47-.8,30.34,25.86,15.86Z"/>
                  <path class="cls-10" d="m1361.77,422.44l-42.07,22.82-.47-.28-40.32-24.74v-.56s1.26-47.3,1.26-47.3l42.07-22.82.47.28,40.34,24.76v.56s-1.27,47.28-1.27,47.28Zm-42.01,20.61l40.12-21.76,1.21-45.62-38.91-23.88-40.12,21.76-1.2,45.64,38.9,23.86Z"/>
                  <polygon class="cls-10" points="1226.2 532.21 1169.15 494.04 1170.11 492.59 1227.16 530.76 1226.2 532.21"/>
                  <polygon class="cls-10" points="1281.3 373.57 1242.65 347.75 1243.4 346.56 1282.05 372.39 1281.3 373.57"/>
                  <rect class="cls-10" x="1336.96" y="517.17" width="68.65" height="1.77" transform="translate(-81.09 716.57) rotate(-28.48)"/>
                  <polygon class="cls-10" points="1289.33 697.98 1287.6 698.14 1280.43 632.25 1282.16 632.08 1289.33 697.98"/>
                  <rect class="cls-10" x="1308.08" y="697.17" width="59.82" height="1.77" transform="translate(-170.95 722.48) rotate(-28.48)"/>
                  <polygon class="cls-10" points="1403.91 448.84 1360.15 422.41 1361.05 420.92 1404.81 447.34 1403.91 448.84"/>
                  <rect class="cls-10" x="1358.43" y="362.53" width="48.69" height="1.77" transform="translate(-5.96 703.34) rotate(-28.48)"/>
                </g>
                <g>
                  <path class="cls-10" d="m1102.95,216.83l-60.95,33.07-.68-.4-58.43-35.84v-.81s1.83-68.53,1.83-68.53l60.95-33.07.68.4,58.44,35.87v.81s-1.84,68.5-1.84,68.5Zm-60.87,29.86l58.13-31.53,1.75-66.1-56.38-34.6-58.13,31.53-1.74,66.13,56.37,34.57Z"/>
                  <path class="cls-10" d="m1257.59,119.31l-48.79,26.47-.55-.32-46.77-28.69v-.65s1.47-54.85,1.47-54.85l48.79-26.47.55.32,46.78,28.71v.65s-1.48,54.83-1.48,54.83Zm-48.72,23.9l46.53-25.24,1.4-52.91-45.13-27.69-46.53,25.24-1.39,52.93,45.12,27.67Z"/>
                  <path class="cls-10" d="m1225.42,302.12l-51.61,28-.58-.34-49.47-30.35v-.69s1.55-58.02,1.55-58.02l51.61-28,.58.34,49.48,30.37v.69s-1.56,58-1.56,58Zm-51.54,25.28l49.22-26.7,1.48-55.97-47.74-29.3-49.22,26.7-1.48,55.99,47.73,29.27Z"/>
                  <path class="cls-10" d="m1205.96,421.42l-29.7,16.11-.33-.19-28.47-17.46v-.4s.89-33.39.89-33.39l29.7-16.11.33.2,28.47,17.48v.39s-.9,33.37-.9,33.37Zm-29.66,14.55l28.32-15.36.85-32.2-27.47-16.86-28.32,15.36-.85,32.22,27.46,16.84Z"/>
                  <path class="cls-10" d="m1072.9,354.77l-25.12,13.63-.28-.17-24.08-14.77v-.33s.75-28.24.75-28.24l25.12-13.63.28.17,24.08,14.78v.34s-.76,28.23-.76,28.23Zm-25.08,12.3l23.96-13,.72-27.24-23.23-14.26-23.96,13-.72,27.25,23.23,14.25Z"/>
                  <path class="cls-10" d="m1312.6,227.33l-28.69,15.57-.32-.19-27.5-16.87v-.38s.86-32.25.86-32.25l28.69-15.57.32.19,27.51,16.88v.38s-.87,32.24-.87,32.24Zm-28.65,14.05l27.36-14.84.83-31.11-26.54-16.29-27.36,14.84-.82,31.13,26.54,16.27Z"/>
                  <path class="cls-10" d="m1322.13,125.31l-28.69,15.57-.32-.19-27.5-16.87v-.38s.86-32.26.86-32.26l28.69-15.57.32.19,27.51,16.89v.38s-.86,32.25-.86,32.25Zm-28.65,14.05l27.36-14.84.83-31.12-26.54-16.28-27.36,14.84-.82,31.13,26.53,16.27Z"/>
                  <path class="cls-10" d="m931.57,108.54l-25.61,13.9-.29-.17-24.55-15.06v-.34s.77-28.8.77-28.8l25.61-13.9.29.17,24.56,15.08v.34s-.77,28.79-.77,28.79Zm-25.58,12.55l24.43-13.25.74-27.78-23.69-14.54-24.43,13.25-.73,27.79,23.69,14.53Z"/>
                  <path class="cls-10" d="m909.72,216.84l-27.96,15.17-.31-.19-26.8-16.45v-.37s.84-31.44.84-31.44l27.96-15.17.31.19,26.81,16.46v.37s-.84,31.43-.84,31.43Zm-27.93,13.7l26.67-14.47.81-30.33-25.87-15.87-26.67,14.47-.8,30.34,25.86,15.86Z"/>
                  <path class="cls-10" d="m1122.56,36.95l-42.07,22.82-.47-.28-40.32-24.74v-.56s1.26-47.3,1.26-47.3l42.07-22.82.47.28,40.33,24.76v.56s-1.27,47.28-1.27,47.28Zm-42.01,20.61l40.12-21.76,1.21-45.62-38.91-23.88-40.12,21.76-1.2,45.64,38.9,23.86Z"/>
                  <polygon class="cls-10" points="986.99 146.73 929.94 108.55 930.9 107.1 987.95 145.28 986.99 146.73"/>
                  <rect class="cls-10" x="1097.75" y="131.69" width="68.65" height="1.77" transform="translate(73.78 555.86) rotate(-28.48)"/>
                  <polygon class="cls-10" points="1050.12 312.49 1048.39 312.65 1041.22 246.76 1042.95 246.59 1050.12 312.49"/>
                  <rect class="cls-10" x="1068.87" y="311.69" width="59.82" height="1.77" transform="translate(-16.08 561.77) rotate(-28.48)"/>
                  <polygon class="cls-10" points="1178.89 371.46 1177.16 371.63 1173.25 328.35 1174.99 328.18 1178.89 371.46"/>
                  <polygon class="cls-10" points="1164.7 63.35 1120.94 36.92 1121.84 35.43 1165.6 61.86 1164.7 63.35"/>
                </g>
              </g>
            </g>
          </g>
          <rect id="BG-4" data-name="BG" class="cls-2" width="1366" height="768" transform="translate(1366 768) rotate(180)"/>
          <g class="cls-1">
            <g>
              <g class="cls-6">
                <g>
                  <path class="cls-10" d="m887.95,617.54l-.84-.53,2.21-84.26.04-.98,74.93-40.65,71.83,44.05.84.54-2.22,84.23-.04.98-74.93,40.65-71.82-44.03Zm145.53-79.94l-69.31-42.53-71.45,38.76-2.14,81.29,69.29,42.5,71.45-38.76,2.16-81.26Z"/>
                  <path class="cls-10" d="m698.13,720.32l-.67-.43,1.76-67.45.04-.78,59.98-32.54,57.5,35.27.68.43-1.78,67.42-.04.78-59.98,32.54-57.49-35.24Zm116.5-63.99l-55.48-34.04-57.19,31.03-1.72,65.07,55.47,34.02,57.19-31.03,1.73-65.04Z"/>
                  <path class="cls-10" d="m904.76,807.66l-.71-.45,1.87-71.35.03-.82,63.44-34.42,60.83,37.3.71.45-1.88,71.32-.04.83-63.44,34.42-60.81-37.28Zm123.23-67.69l-58.69-36.01-60.5,32.82-1.81,68.83,58.68,35.99,60.5-32.82,1.83-68.81Z"/>
                  <path class="cls-10" d="m1092.45,704.92l-.35-.22.91-34.73.02-.4,30.88-16.75,29.6,18.16.35.22-.92,34.71-.02.4-30.88,16.75-29.6-18.14Zm59.98-32.94l-28.56-17.53-29.45,15.97-.88,33.5,28.56,17.51,29.45-15.97.89-33.49Z"/>
                  <path class="cls-10" d="m684.74,805.36l-.4-.25,1.04-39.66.02-.46,35.27-19.13,33.82,20.74.39.25-1.04,39.65-.02.46-35.27,19.13-33.81-20.72Zm68.51-37.63l-32.62-20.02-33.64,18.25-1.01,38.26,32.62,20.01,33.64-18.25,1.01-38.25Z"/>
                  <path class="cls-10" d="m583.32,600.37l-.44-.28,1.16-44.24.02-.51,39.34-21.34,37.72,23.13.44.28-1.17,44.22-.02.52-39.34,21.34-37.71-23.12Zm76.42-41.97l-36.4-22.33-37.51,20.35-1.13,42.69,36.38,22.31,37.51-20.35,1.14-42.66Z"/>
                  <path class="cls-10" d="m742.41,376.87l-.25-.15.65-24.77v-.29s22.04-11.95,22.04-11.95l21.11,12.95.25.16-.65,24.76v.29s-22.04,11.95-22.04,11.95l-21.11-12.94Zm42.78-23.5l-20.37-12.5-21,11.39-.63,23.9,20.37,12.49,21-11.39.63-23.89Z"/>
                  <path class="cls-10" d="m932.86,393.88l-.35-.23.93-35.41.02-.41,31.49-17.08,30.19,18.52.35.22-.93,35.4-.02.41-31.49,17.08-30.18-18.5Zm61.16-33.6l-29.12-17.87-30.03,16.29-.9,34.16,29.12,17.86,30.03-16.29.9-34.15Z"/>
                  <path class="cls-10" d="m1056.34,442.24l-.39-.24,1.01-38.66.02-.45,34.38-18.65,32.96,20.21.39.24-1.02,38.65-.02.45-34.38,18.65-32.95-20.2Zm66.77-36.68l-31.8-19.51-32.78,17.78-.98,37.3,31.79,19.5,32.78-17.78.99-37.28Z"/>
                  <path class="cls-10" d="m711.69,530.83l-.58-.37,1.52-58.16.03-.67,51.71-28.05,49.58,30.4.58.37-1.53,58.14-.03.67-51.71,28.05-49.57-30.38Zm100.44-55.18l-47.84-29.35-49.31,26.75-1.48,56.11,47.83,29.33,49.31-26.75,1.49-56.09Z"/>
                  <polygon class="cls-10" points="965.25 495.09 964.15 410.71 962.02 410.72 963.11 495.1 965.25 495.09"/>
                  <polygon class="cls-10" points="764.84 445.53 764.13 388.4 762.41 388.38 763.12 445.52 764.84 445.53"/>
                  <rect class="cls-10" x="811.22" y="634.01" width="84.39" height="2.18" transform="translate(-199.57 483.8) rotate(-28.48)"/>
                  <polygon class="cls-10" points="1093.74 671.25 1095.07 669.57 1031.98 618.02 1030.65 619.69 1093.74 671.25"/>
                  <rect class="cls-10" x="1024.45" y="720.35" width="73.54" height="2.18" transform="translate(-215.59 593.33) rotate(-28.48)"/>
                  <polygon class="cls-10" points="760.21 622.33 762.31 559.52 760.17 559.44 758.08 622.25 760.21 622.33"/>
                  <rect class="cls-10" x="656.43" y="542.2" width="59.86" height="2.18" transform="translate(-176.01 393.03) rotate(-28.48)"/>
                </g>
                <g>
                  <path class="cls-10" d="m651.05,112.67l-.84-.53,2.21-84.26.04-.98,74.93-40.65,71.83,44.05.84.53-2.22,84.23-.04.98-74.93,40.65-71.82-44.03Zm145.53-79.94l-69.31-42.53-71.45,38.76-2.14,81.29,69.29,42.5,71.45-38.76,2.16-81.26Z"/>
                  <path class="cls-10" d="m461.23,215.44l-.67-.43,1.77-67.45.03-.78,59.97-32.53,57.5,35.27.68.43-1.78,67.42-.03.78-59.97,32.53-57.49-35.24Zm116.5-63.99l-55.48-34.04-57.19,31.03-1.71,65.07,55.47,34.02,57.19-31.03,1.73-65.05Z"/>
                  <path class="cls-10" d="m667.85,302.78l-.71-.45,1.87-71.35.04-.83,63.44-34.42,60.83,37.31.71.45-1.88,71.32-.03.82-63.44,34.42-60.81-37.28Zm123.23-67.69l-58.69-36.01-60.5,32.82-1.81,68.83,58.68,35.99,60.5-32.82,1.83-68.81Z"/>
                  <path class="cls-10" d="m829.66,378.53l-.41-.26,1.08-41.05.02-.48,36.5-19.8,35,21.46.41.26-1.08,41.04-.02.48-36.5,19.8-34.99-21.45Zm70.91-38.95l-33.77-20.72-34.81,18.88-1.04,39.6,33.76,20.71,34.81-18.88,1.05-39.59Z"/>
                  <path class="cls-10" d="m855.55,200.04l-.35-.22.91-34.73.02-.4,30.88-16.75,29.61,18.15.35.22-.92,34.71-.02.4-30.88,16.75-29.6-18.14Zm59.98-32.95l-28.57-17.53-29.45,15.97-.88,33.5,28.56,17.52,29.45-15.97.89-33.49Z"/>
                  <path class="cls-10" d="m559.36,359.04l-.4-.25,1.04-39.66.02-.46,35.27-19.13,33.81,20.74.4.25-1.05,39.65-.02.46-35.27,19.13-33.81-20.73Zm68.51-37.63l-32.63-20.02-33.63,18.25-1.01,38.26,32.62,20.01,33.63-18.25,1.02-38.25Z"/>
                  <path class="cls-10" d="m447.84,300.49l-.4-.25,1.04-39.66.02-.46,35.27-19.13,33.81,20.74.4.25-1.04,39.65-.02.46-35.27,19.13-33.81-20.72Zm68.51-37.63l-32.63-20.02-33.63,18.25-1.01,38.26,32.62,20.01,33.63-18.25,1.02-38.25Z"/>
                  <path class="cls-10" d="m346.42,95.5l-.44-.28,1.16-44.24.02-.51,39.34-21.34,37.72,23.13.44.28-1.17,44.23-.02.51-39.34,21.34-37.71-23.12Zm76.42-41.98l-36.39-22.33-37.51,20.35-1.13,42.68,36.39,22.31,37.51-20.35,1.13-42.67Z"/>
                  <path class="cls-10" d="m474.78,25.95l-.58-.37,1.52-58.16.03-.67,51.71-28.05,49.58,30.41.58.37-1.53,58.13-.03.67-51.71,28.05-49.57-30.39Zm100.44-55.17l-47.84-29.35-49.31,26.75-1.48,56.1,47.83,29.33,49.31-26.75,1.49-56.08Z"/>
                  <rect class="cls-10" x="574.32" y="129.14" width="84.39" height="2.18" transform="translate(12.51 309.74) rotate(-28.48)"/>
                  <polygon class="cls-10" points="856.84 166.37 858.17 164.69 795.08 113.14 793.74 114.81 856.84 166.37"/>
                  <rect class="cls-10" x="787.55" y="215.47" width="73.54" height="2.18" transform="translate(-3.52 419.27) rotate(-28.48)"/>
                  <polygon class="cls-10" points="831.31 338.59 832.64 336.91 790.65 303.88 789.32 305.56 831.31 338.59"/>
                  <polygon class="cls-10" points="523.31 117.45 525.41 54.64 523.27 54.56 521.17 117.37 523.31 117.45"/>
                  <rect class="cls-10" x="419.53" y="37.33" width="59.86" height="2.18" transform="translate(36.07 218.97) rotate(-28.48)"/>
                </g>
              </g>
              <g>
                <g>
                  <path class="cls-10" d="m930.43,695.54l-60.95,33.07-.68-.4-58.42-35.84v-.81s1.83-68.53,1.83-68.53l60.95-33.07.68.4,58.44,35.87v.81s-1.84,68.5-1.84,68.5Zm-60.86,29.86l58.13-31.53,1.75-66.1-56.38-34.6-58.13,31.53-1.74,66.13,56.37,34.57Z"/>
                  <path class="cls-10" d="m1085.07,598.01l-48.79,26.47-.55-.32-46.77-28.69v-.65s1.47-54.85,1.47-54.85l48.79-26.47.55.32,46.78,28.71v.65s-1.48,54.83-1.48,54.83Zm-48.72,23.9l46.52-25.24,1.41-52.91-45.13-27.69-46.52,25.24-1.39,52.93,45.12,27.67Z"/>
                  <path class="cls-10" d="m1052.9,780.83l-51.61,28-.58-.34-49.48-30.35v-.69s1.55-58.02,1.55-58.02l51.61-28,.58.34,49.48,30.37v.69s-1.56,58.01-1.56,58.01Zm-51.53,25.28l49.22-26.7,1.48-55.97-47.74-29.3-49.22,26.7-1.48,55.99,47.73,29.28Z"/>
                  <path class="cls-10" d="m1140.07,706.04l-28.69,15.57-.32-.19-27.5-16.87v-.38s.86-32.25.86-32.25l28.69-15.57.32.19,27.51,16.88v.38s-.87,32.24-.87,32.24Zm-28.65,14.05l27.36-14.84.83-31.12-26.54-16.29-27.36,14.84-.82,31.13,26.54,16.27Z"/>
                  <path class="cls-10" d="m1149.61,604.02l-28.69,15.57-.32-.19-27.5-16.87v-.39s.86-32.25.86-32.25l28.69-15.57.32.19,27.51,16.89v.38s-.87,32.24-.87,32.24Zm-28.65,14.06l27.36-14.84.83-31.12-26.54-16.29-27.36,14.84-.82,31.13,26.53,16.27Z"/>
                  <path class="cls-10" d="m1054.71,447.66l-32,17.36-.36-.21-30.68-18.82v-.43s.96-35.98.96-35.98l32-17.36.36.21,30.68,18.84v.43s-.97,35.97-.97,35.97Zm-31.96,15.68l30.52-16.56.92-34.71-29.6-18.17-30.52,16.56-.91,34.72,29.6,18.15Z"/>
                  <path class="cls-10" d="m832.15,441.17l-17.91,9.72-.2-.12-17.17-10.54v-.24s.54-20.14.54-20.14l17.91-9.72.2.12,17.18,10.55v.24s-.54,20.14-.54,20.14Zm-17.89,8.78l17.09-9.27.52-19.43-16.57-10.17-17.09,9.27-.51,19.44,16.57,10.16Z"/>
                  <path class="cls-10" d="m759.05,587.25l-25.61,13.9-.29-.17-24.55-15.06v-.34s.77-28.8.77-28.8l25.61-13.9.29.17,24.56,15.07v.34s-.77,28.79-.77,28.79Zm-25.58,12.55l24.43-13.25.74-27.78-23.69-14.54-24.43,13.25-.73,27.79,23.69,14.53Z"/>
                  <path class="cls-10" d="m737.19,695.54l-27.96,15.17-.31-.19-26.8-16.45v-.37s.84-31.44.84-31.44l27.96-15.17.31.19,26.81,16.46v.37s-.84,31.43-.84,31.43Zm-27.93,13.7l26.67-14.47.81-30.33-25.87-15.87-26.67,14.47-.8,30.34,25.86,15.86Z"/>
                  <path class="cls-10" d="m950.04,515.66l-42.07,22.82-.47-.28-40.32-24.74v-.56s1.26-47.3,1.26-47.3l42.07-22.82.47.28,40.34,24.76v.56s-1.27,47.28-1.27,47.28Zm-42.01,20.61l40.12-21.76,1.21-45.62-38.91-23.88-40.12,21.76-1.2,45.64,38.9,23.86Z"/>
                  <polygon class="cls-10" points="814.47 625.43 757.41 587.26 758.37 585.81 815.43 623.98 814.47 625.43"/>
                  <polygon class="cls-10" points="869.57 466.79 830.92 440.96 831.67 439.78 870.32 465.61 869.57 466.79"/>
                  <rect class="cls-10" x="925.23" y="610.39" width="68.65" height="1.77" transform="translate(-175.37 531.52) rotate(-28.48)"/>
                  <polygon class="cls-10" points="877.6 791.19 875.87 791.36 868.7 725.46 870.43 725.3 877.6 791.19"/>
                  <polygon class="cls-10" points="992.18 542.05 948.42 515.63 949.31 514.13 993.07 540.56 992.18 542.05"/>
                  <rect class="cls-10" x="946.69" y="455.75" width="48.69" height="1.77" transform="translate(-100.24 518.29) rotate(-28.48)"/>
                </g>
                <g>
                  <path class="cls-10" d="m691.22,310.05l-60.95,33.07-.68-.4-58.43-35.84v-.81s1.83-68.53,1.83-68.53l60.95-33.07.68.4,58.44,35.87v.81s-1.84,68.5-1.84,68.5Zm-60.87,29.86l58.13-31.53,1.75-66.1-56.38-34.6-58.13,31.53-1.74,66.13,56.37,34.57Z"/>
                  <path class="cls-10" d="m845.86,212.53l-48.79,26.47-.55-.32-46.77-28.69v-.65s1.47-54.85,1.47-54.85l48.79-26.47.55.32,46.78,28.71v.65s-1.48,54.83-1.48,54.83Zm-48.72,23.9l46.53-25.24,1.4-52.91-45.13-27.69-46.53,25.24-1.39,52.93,45.12,27.67Z"/>
                  <path class="cls-10" d="m813.69,395.34l-51.61,28-.58-.34-49.47-30.35v-.69s1.55-58.02,1.55-58.02l51.61-28,.58.34,49.48,30.37v.69s-1.56,58-1.56,58Zm-51.54,25.28l49.22-26.7,1.48-55.97-47.74-29.3-49.22,26.7-1.48,55.99,47.73,29.27Z"/>
                  <path class="cls-10" d="m794.23,514.64l-29.7,16.11-.33-.19-28.47-17.46v-.4s.89-33.39.89-33.39l29.7-16.11.33.2,28.47,17.48v.39s-.9,33.37-.9,33.37Zm-29.66,14.55l28.32-15.36.85-32.2-27.47-16.86-28.32,15.36-.85,32.22,27.46,16.84Z"/>
                  <path class="cls-10" d="m661.17,447.99l-25.12,13.63-.28-.17-24.08-14.77v-.33s.75-28.24.75-28.24l25.12-13.63.28.17,24.08,14.78v.34s-.76,28.23-.76,28.23Zm-25.08,12.3l23.96-13,.72-27.24-23.23-14.26-23.96,13-.72,27.25,23.23,14.25Z"/>
                  <path class="cls-10" d="m900.86,320.55l-28.69,15.57-.32-.19-27.5-16.87v-.38s.86-32.25.86-32.25l28.69-15.57.32.19,27.51,16.88v.38s-.87,32.24-.87,32.24Zm-28.65,14.05l27.36-14.84.83-31.11-26.54-16.29-27.36,14.84-.82,31.13,26.54,16.27Z"/>
                  <path class="cls-10" d="m910.4,218.53l-28.69,15.57-.32-.19-27.5-16.87v-.38s.86-32.26.86-32.26l28.69-15.57.32.19,27.51,16.89v.38s-.86,32.25-.86,32.25Zm-28.65,14.05l27.36-14.84.83-31.12-26.54-16.28-27.36,14.84-.82,31.13,26.53,16.27Z"/>
                  <path class="cls-10" d="m815.5,62.17l-32,17.36-.36-.21-30.68-18.82v-.43s.96-35.98.96-35.98l32-17.36.36.21,30.68,18.83v.43s-.97,35.97-.97,35.97Zm-31.96,15.68l30.52-16.56.92-34.71-29.61-18.16-30.52,16.56-.91,34.72,29.6,18.15Z"/>
                  <path class="cls-10" d="m592.94,55.69l-17.91,9.72-.2-.12-17.17-10.54v-.24s.54-20.15.54-20.15l17.91-9.72.2.12,17.18,10.54v.24s-.54,20.14-.54,20.14Zm-17.89,8.78l17.09-9.27.52-19.43-16.57-10.17-17.09,9.27-.51,19.44,16.57,10.16Z"/>
                  <path class="cls-10" d="m519.84,201.76l-25.61,13.9-.29-.17-24.55-15.06v-.34s.77-28.8.77-28.8l25.61-13.9.29.17,24.56,15.08v.34s-.77,28.79-.77,28.79Zm-25.58,12.55l24.43-13.25.74-27.78-23.69-14.54-24.43,13.25-.73,27.79,23.69,14.53Z"/>
                  <path class="cls-10" d="m497.98,310.05l-27.96,15.17-.31-.19-26.8-16.45v-.37s.84-31.44.84-31.44l27.96-15.17.31.19,26.81,16.46v.37s-.84,31.43-.84,31.43Zm-27.93,13.7l26.67-14.47.81-30.33-25.87-15.87-26.67,14.47-.8,30.34,25.86,15.86Z"/>
                  <path class="cls-10" d="m710.83,130.17l-42.07,22.82-.47-.28-40.32-24.74v-.56s1.26-47.3,1.26-47.3l42.07-22.82.47.28,40.33,24.76v.56s-1.27,47.28-1.27,47.28Zm-42.01,20.61l40.12-21.76,1.21-45.62-38.91-23.88-40.12,21.76-1.2,45.64,38.9,23.86Z"/>
                  <polygon class="cls-10" points="575.26 239.94 518.21 201.77 519.16 200.32 576.22 238.5 575.26 239.94"/>
                  <polygon class="cls-10" points="630.36 81.3 591.71 55.48 592.46 54.29 631.11 80.12 630.36 81.3"/>
                  <rect class="cls-10" x="686.02" y="224.9" width="68.65" height="1.77" transform="translate(-20.5 370.81) rotate(-28.48)"/>
                  <polygon class="cls-10" points="638.39 405.71 636.66 405.87 629.49 339.98 631.22 339.81 638.39 405.71"/>
                  <rect class="cls-10" x="657.14" y="404.91" width="59.82" height="1.77" transform="translate(-110.36 376.72) rotate(-28.48)"/>
                  <polygon class="cls-10" points="767.16 464.68 765.42 464.85 761.52 421.57 763.26 421.4 767.16 464.68"/>
                  <polygon class="cls-10" points="752.97 156.57 709.21 130.14 710.1 128.65 753.86 155.07 752.97 156.57"/>
                  <rect class="cls-10" x="707.48" y="70.26" width="48.69" height="1.77" transform="translate(54.63 357.58) rotate(-28.48)"/>
                </g>
              </g>
            </g>
          </g>
          <g class="cls-1">
            <g>
              <g class="cls-6">
                <g>
                  <path class="cls-10" d="m476.27,709.2l-.84-.53,2.21-84.26.04-.98,74.93-40.65,71.83,44.05.84.54-2.22,84.23-.04.98-74.93,40.65-71.82-44.03Zm145.53-79.94l-69.31-42.53-71.45,38.76-2.14,81.29,69.29,42.5,71.45-38.76,2.16-81.26Z"/>
                  <path class="cls-10" d="m286.45,811.98l-.67-.43,1.76-67.45.04-.78,59.98-32.54,57.5,35.27.68.43-1.78,67.42-.04.78-59.98,32.54-57.49-35.24Zm116.5-63.99l-55.48-34.04-57.19,31.03-1.72,65.07,55.47,34.02,57.19-31.03,1.73-65.04Z"/>
                  <path class="cls-10" d="m680.77,796.58l-.35-.22.91-34.73.02-.4,30.88-16.75,29.6,18.16.35.22-.92,34.71-.02.4-30.88,16.75-29.6-18.14Zm59.98-32.94l-28.56-17.53-29.45,15.97-.88,33.5,28.56,17.51,29.45-15.97.89-33.49Z"/>
                  <path class="cls-10" d="m171.64,692.03l-.44-.28,1.16-44.24.02-.51,39.34-21.34,37.72,23.13.44.28-1.17,44.22-.02.52-39.34,21.34-37.71-23.12Zm76.42-41.97l-36.4-22.33-37.51,20.35-1.13,42.69,36.38,22.31,37.51-20.35,1.14-42.66Z"/>
                  <path class="cls-10" d="m330.73,468.53l-.25-.15.65-24.77v-.29s22.04-11.95,22.04-11.95l21.11,12.95.25.16-.65,24.76v.29s-22.04,11.95-22.04,11.95l-21.11-12.94Zm42.78-23.5l-20.37-12.5-21,11.39-.63,23.9,20.37,12.49,21-11.39.63-23.89Z"/>
                  <path class="cls-10" d="m521.18,485.54l-.35-.23.93-35.41.02-.41,31.49-17.08,30.19,18.52.35.22-.93,35.4-.02.41-31.49,17.08-30.18-18.5Zm61.16-33.6l-29.12-17.87-30.03,16.29-.9,34.16,29.12,17.86,30.03-16.29.9-34.15Z"/>
                  <path class="cls-10" d="m644.66,533.91l-.39-.24,1.01-38.66.02-.45,34.38-18.65,32.96,20.21.39.24-1.02,38.65-.02.45-34.38,18.65-32.95-20.2Zm66.77-36.68l-31.8-19.51-32.78,17.78-.98,37.3,31.79,19.5,32.78-17.78.99-37.28Z"/>
                  <path class="cls-10" d="m300.01,622.49l-.58-.37,1.52-58.16.03-.67,51.71-28.05,49.58,30.4.58.37-1.53,58.14-.03.67-51.71,28.05-49.57-30.38Zm100.44-55.18l-47.84-29.35-49.31,26.75-1.48,56.11,47.83,29.33,49.31-26.75,1.49-56.09Z"/>
                  <polygon class="cls-10" points="553.57 586.75 552.47 502.37 550.34 502.38 551.43 586.76 553.57 586.75"/>
                  <polygon class="cls-10" points="353.16 537.19 352.45 480.06 350.73 480.04 351.44 537.18 353.16 537.19"/>
                  <rect class="cls-10" x="399.54" y="725.67" width="84.39" height="2.18" transform="translate(-293.1 298.58) rotate(-28.48)"/>
                  <polygon class="cls-10" points="682.06 762.91 683.39 761.23 620.3 709.68 618.97 711.35 682.06 762.91"/>
                  <polygon class="cls-10" points="348.53 713.99 350.63 651.18 348.5 651.1 346.4 713.91 348.53 713.99"/>
                  <rect class="cls-10" x="244.75" y="633.86" width="59.86" height="2.18" transform="translate(-269.53 207.82) rotate(-28.48)"/>
                </g>
                <g>
                  <path class="cls-10" d="m239.37,204.33l-.84-.53,2.21-84.26.04-.98,74.93-40.65,71.83,44.05.84.53-2.22,84.23-.04.98-74.93,40.65-71.82-44.03Zm145.53-79.94l-69.31-42.53-71.45,38.76-2.14,81.29,69.29,42.5,71.45-38.76,2.16-81.26Z"/>
                  <path class="cls-10" d="m49.55,307.1l-.67-.43,1.77-67.45.03-.78,59.97-32.53,57.5,35.27.68.43-1.78,67.42-.03.78-59.97,32.53-57.49-35.24Zm116.5-63.99l-55.48-34.04-57.19,31.03-1.71,65.07,55.47,34.02,57.19-31.03,1.73-65.05Z"/>
                  <path class="cls-10" d="m256.17,394.44l-.71-.45,1.87-71.35.04-.83,63.44-34.42,60.83,37.31.71.45-1.88,71.32-.03.82-63.44,34.42-60.81-37.28Zm123.23-67.69l-58.69-36.01-60.5,32.82-1.81,68.83,58.68,35.99,60.5-32.82,1.83-68.81Z"/>
                  <path class="cls-10" d="m417.98,470.19l-.41-.26,1.08-41.05.02-.48,36.5-19.8,35,21.46.41.26-1.08,41.04-.02.48-36.5,19.8-34.99-21.45Zm70.91-38.95l-33.77-20.72-34.81,18.88-1.04,39.6,33.76,20.71,34.81-18.88,1.05-39.59Z"/>
                  <path class="cls-10" d="m443.87,291.7l-.35-.22.91-34.73.02-.4,30.88-16.75,29.61,18.15.35.22-.92,34.71-.02.4-30.88,16.75-29.6-18.14Zm59.98-32.95l-28.57-17.53-29.45,15.97-.88,33.5,28.56,17.52,29.45-15.97.89-33.49Z"/>
                  <path class="cls-10" d="m147.68,450.7l-.4-.25,1.04-39.66.02-.46,35.27-19.13,33.81,20.74.4.25-1.05,39.65-.02.46-35.27,19.13-33.81-20.73Zm68.51-37.63l-32.63-20.02-33.63,18.25-1.01,38.26,32.62,20.01,33.63-18.25,1.02-38.25Z"/>
                  <path class="cls-10" d="m36.16,392.15l-.4-.25,1.04-39.66.02-.46,35.27-19.13,33.81,20.74.4.25-1.04,39.65-.02.46-35.27,19.13-33.81-20.72Zm68.51-37.63l-32.63-20.02-33.63,18.25-1.01,38.26,32.62,20.01,33.63-18.25,1.02-38.25Z"/>
                  <path class="cls-10" d="m-65.26,187.16l-.44-.28,1.16-44.24.02-.51,39.34-21.34,37.72,23.13.44.28-1.17,44.23-.02.51-39.34,21.34-37.71-23.12ZM11.16,145.18l-36.39-22.33-37.51,20.35-1.13,42.68,36.39,22.31,37.51-20.35,1.13-42.67Z"/>
                  <path class="cls-10" d="m407.75,29.03l-.39-.24,1.01-38.66.02-.45,34.38-18.65,32.96,20.21.39.24-1.02,38.64-.02.45-34.38,18.65-32.95-20.2ZM474.52-7.65l-31.8-19.51-32.78,17.78-.98,37.29,31.79,19.5,32.78-17.78.99-37.28Z"/>
                  <path class="cls-10" d="m63.1,117.61l-.58-.37,1.52-58.16.03-.67,51.71-28.05,49.58,30.41.58.37-1.53,58.13-.03.67-51.71,28.05-49.57-30.39Zm100.44-55.17l-47.84-29.35-49.31,26.75-1.48,56.1,47.83,29.33,49.31-26.75,1.49-56.08Z"/>
                  <polygon class="cls-10" points="316.66 81.87 315.57 -2.51 313.43 -2.49 314.53 81.89 316.66 81.87"/>
                  <polygon class="cls-10" points="116.26 32.32 115.55 -24.82 113.82 -24.84 114.53 32.3 116.26 32.32"/>
                  <rect class="cls-10" x="162.64" y="220.8" width="84.39" height="2.18" transform="translate(-81.02 124.52) rotate(-28.48)"/>
                  <polygon class="cls-10" points="445.16 258.03 446.49 256.36 383.4 204.8 382.06 206.47 445.16 258.03"/>
                  <rect class="cls-10" x="375.87" y="307.13" width="73.54" height="2.18" transform="translate(-97.04 234.06) rotate(-28.48)"/>
                  <polygon class="cls-10" points="419.63 430.25 420.96 428.57 378.97 395.54 377.64 397.22 419.63 430.25"/>
                  <polygon class="cls-10" points="111.63 209.11 113.73 146.3 111.59 146.22 109.49 209.03 111.63 209.11"/>
                  <rect class="cls-10" x="7.85" y="128.99" width="59.86" height="2.18" transform="translate(-57.45 33.76) rotate(-28.48)"/>
                </g>
              </g>
              <g>
                <g>
                  <path class="cls-10" d="m518.75,787.2l-60.95,33.07-.68-.4-58.42-35.84v-.81s1.83-68.53,1.83-68.53l60.95-33.07.68.4,58.44,35.87v.81s-1.84,68.5-1.84,68.5Zm-60.86,29.86l58.13-31.53,1.75-66.1-56.38-34.6-58.13,31.53-1.74,66.13,56.37,34.57Z"/>
                  <path class="cls-10" d="m673.39,689.68l-48.79,26.47-.55-.32-46.77-28.69v-.65s1.47-54.85,1.47-54.85l48.79-26.47.55.32,46.78,28.71v.65s-1.48,54.83-1.48,54.83Zm-48.72,23.9l46.52-25.24,1.41-52.91-45.13-27.69-46.52,25.24-1.39,52.93,45.12,27.67Z"/>
                  <path class="cls-10" d="m728.39,797.7l-28.69,15.57-.32-.19-27.5-16.87v-.38s.86-32.25.86-32.25l28.69-15.57.32.19,27.51,16.88v.38s-.87,32.24-.87,32.24Zm-28.65,14.05l27.36-14.84.83-31.12-26.54-16.29-27.36,14.84-.82,31.13,26.54,16.27Z"/>
                  <path class="cls-10" d="m737.93,695.68l-28.69,15.57-.32-.19-27.5-16.87v-.39s.86-32.25.86-32.25l28.69-15.57.32.19,27.51,16.89v.38s-.87,32.24-.87,32.24Zm-28.65,14.06l27.36-14.84.83-31.12-26.54-16.29-27.36,14.84-.82,31.13,26.53,16.27Z"/>
                  <path class="cls-10" d="m643.03,539.32l-32,17.36-.36-.21-30.68-18.82v-.43s.96-35.98.96-35.98l32-17.36.36.21,30.68,18.84v.43s-.97,35.97-.97,35.97Zm-31.96,15.68l30.52-16.56.92-34.71-29.6-18.17-30.52,16.56-.91,34.72,29.6,18.15Z"/>
                  <path class="cls-10" d="m420.47,532.83l-17.91,9.72-.2-.12-17.17-10.54v-.24s.54-20.14.54-20.14l17.91-9.72.2.12,17.18,10.55v.24s-.54,20.14-.54,20.14Zm-17.89,8.78l17.09-9.27.52-19.43-16.57-10.17-17.09,9.27-.51,19.44,16.57,10.16Z"/>
                  <path class="cls-10" d="m347.37,678.91l-25.61,13.9-.29-.17-24.55-15.06v-.34s.77-28.8.77-28.8l25.61-13.9.29.17,24.56,15.07v.34s-.77,28.79-.77,28.79Zm-25.58,12.55l24.43-13.25.74-27.78-23.69-14.54-24.43,13.25-.73,27.79,23.69,14.53Z"/>
                  <path class="cls-10" d="m325.51,787.2l-27.96,15.17-.31-.19-26.8-16.45v-.37s.84-31.44.84-31.44l27.96-15.17.31.19,26.81,16.46v.37s-.84,31.43-.84,31.43Zm-27.93,13.7l26.67-14.47.81-30.33-25.87-15.87-26.67,14.47-.8,30.34,25.86,15.86Z"/>
                  <path class="cls-10" d="m538.36,607.32l-42.07,22.82-.47-.28-40.32-24.74v-.56s1.26-47.3,1.26-47.3l42.07-22.82.47.28,40.34,24.76v.56s-1.27,47.28-1.27,47.28Zm-42.01,20.61l40.12-21.76,1.21-45.62-38.91-23.88-40.12,21.76-1.2,45.64,38.9,23.86Z"/>
                  <polygon class="cls-10" points="402.79 717.09 345.73 678.92 346.69 677.47 403.75 715.64 402.79 717.09"/>
                  <polygon class="cls-10" points="457.89 558.45 419.24 532.62 419.99 531.44 458.64 557.27 457.89 558.45"/>
                  <rect class="cls-10" x="513.55" y="702.05" width="68.65" height="1.77" transform="translate(-268.89 346.31) rotate(-28.48)"/>
                  <polygon class="cls-10" points="580.5 633.71 536.74 607.29 537.63 605.8 581.39 632.22 580.5 633.71"/>
                  <rect class="cls-10" x="535.01" y="547.41" width="48.69" height="1.77" transform="translate(-193.76 333.08) rotate(-28.48)"/>
                </g>
                <g>
                  <path class="cls-10" d="m279.54,401.71l-60.95,33.07-.68-.4-58.43-35.84v-.81s1.83-68.53,1.83-68.53l60.95-33.07.68.4,58.44,35.87v.81s-1.84,68.5-1.84,68.5Zm-60.87,29.86l58.13-31.53,1.75-66.1-56.38-34.6-58.13,31.53-1.74,66.13,56.37,34.57Z"/>
                  <path class="cls-10" d="m434.18,304.19l-48.79,26.47-.55-.32-46.77-28.69v-.65s1.47-54.85,1.47-54.85l48.79-26.47.55.32,46.78,28.71v.65s-1.48,54.83-1.48,54.83Zm-48.72,23.9l46.53-25.24,1.4-52.91-45.13-27.69-46.53,25.24-1.39,52.93,45.12,27.67Z"/>
                  <path class="cls-10" d="m402.01,487l-51.61,28-.58-.34-49.47-30.35v-.69s1.55-58.02,1.55-58.02l51.61-28,.58.34,49.48,30.37v.69s-1.56,58-1.56,58Zm-51.54,25.28l49.22-26.7,1.48-55.97-47.74-29.3-49.22,26.7-1.48,55.99,47.73,29.27Z"/>
                  <path class="cls-10" d="m382.55,606.3l-29.7,16.11-.33-.19-28.47-17.46v-.4s.89-33.39.89-33.39l29.7-16.11.33.2,28.47,17.48v.39s-.9,33.37-.9,33.37Zm-29.66,14.55l28.32-15.36.85-32.2-27.47-16.86-28.32,15.36-.85,32.22,27.46,16.84Z"/>
                  <path class="cls-10" d="m249.49,539.65l-25.12,13.63-.28-.17-24.08-14.77v-.33s.75-28.24.75-28.24l25.12-13.63.28.17,24.08,14.78v.34s-.76,28.23-.76,28.23Zm-25.08,12.3l23.96-13,.72-27.24-23.23-14.26-23.96,13-.72,27.25,23.23,14.25Z"/>
                  <path class="cls-10" d="m489.18,412.21l-28.69,15.57-.32-.19-27.5-16.87v-.38s.86-32.25.86-32.25l28.69-15.57.32.19,27.51,16.88v.38s-.87,32.24-.87,32.24Zm-28.65,14.05l27.36-14.84.83-31.11-26.54-16.29-27.36,14.84-.82,31.13,26.54,16.27Z"/>
                  <path class="cls-10" d="m498.72,310.19l-28.69,15.57-.32-.19-27.5-16.87v-.38s.86-32.26.86-32.26l28.69-15.57.32.19,27.51,16.89v.38s-.86,32.25-.86,32.25Zm-28.65,14.05l27.36-14.84.83-31.12-26.54-16.28-27.36,14.84-.82,31.13,26.53,16.27Z"/>
                  <path class="cls-10" d="m403.82,153.83l-32,17.36-.36-.21-30.68-18.82v-.43s.96-35.98.96-35.98l32-17.36.36.21,30.68,18.83v.43s-.97,35.97-.97,35.97Zm-31.96,15.68l30.52-16.56.92-34.71-29.61-18.16-30.52,16.56-.91,34.72,29.6,18.15Z"/>
                  <path class="cls-10" d="m181.27,147.35l-17.91,9.72-.2-.12-17.17-10.54v-.24s.54-20.15.54-20.15l17.91-9.72.2.12,17.18,10.54v.24s-.54,20.14-.54,20.14Zm-17.89,8.78l17.09-9.27.52-19.43-16.57-10.17-17.09,9.27-.51,19.44,16.57,10.16Z"/>
                  <path class="cls-10" d="m108.16,293.42l-25.61,13.9-.29-.17-24.55-15.06v-.34s.77-28.8.77-28.8l25.61-13.9.29.17,24.56,15.08v.34s-.77,28.79-.77,28.79Zm-25.58,12.55l24.43-13.25.74-27.78-23.69-14.54-24.43,13.25-.73,27.79,23.69,14.53Z"/>
                  <path class="cls-10" d="m86.3,401.71l-27.96,15.17-.31-.19-26.8-16.45v-.37s.84-31.44.84-31.44l27.96-15.17.31.19,26.81,16.46v.37s-.84,31.43-.84,31.43Zm-27.93,13.7l26.67-14.47.81-30.33-25.87-15.87-26.67,14.47-.8,30.34,25.86,15.86Z"/>
                  <path class="cls-10" d="m299.15,221.83l-42.07,22.82-.47-.28-40.32-24.74v-.56s1.26-47.3,1.26-47.3l42.07-22.82.47.28,40.33,24.76v.56s-1.27,47.28-1.27,47.28Zm-42.01,20.61l40.12-21.76,1.21-45.62-38.91-23.88-40.12,21.76-1.2,45.64,38.9,23.86Z"/>
                  <polygon class="cls-10" points="163.58 331.61 106.53 293.43 107.48 291.98 164.54 330.16 163.58 331.61"/>
                  <polygon class="cls-10" points="218.68 172.97 180.03 147.14 180.78 145.95 219.43 171.78 218.68 172.97"/>
                  <rect class="cls-10" x="274.34" y="316.57" width="68.65" height="1.77" transform="translate(-114.02 185.6) rotate(-28.48)"/>
                  <polygon class="cls-10" points="226.71 497.37 224.98 497.53 217.81 431.64 219.54 431.47 226.71 497.37"/>
                  <rect class="cls-10" x="245.46" y="496.57" width="59.82" height="1.77" transform="translate(-203.88 191.5) rotate(-28.48)"/>
                  <polygon class="cls-10" points="355.48 556.34 353.74 556.51 349.84 513.23 351.58 513.06 355.48 556.34"/>
                  <polygon class="cls-10" points="341.29 248.23 297.53 221.8 298.42 220.31 342.18 246.73 341.29 248.23"/>
                  <rect class="cls-10" x="295.81" y="161.93" width="48.69" height="1.77" transform="translate(-38.89 172.36) rotate(-28.48)"/>
                </g>
              </g>
            </g>
          </g>
          <g class="cls-1">
            <g>
              <g class="cls-6">
                <g>
                  <path class="cls-10" d="m-5.35,555.37l-.84-.53,2.21-84.26.04-.98,74.93-40.65,71.83,44.05.84.53-2.22,84.23-.04.98-74.93,40.65-71.82-44.03Zm145.53-79.94l-69.31-42.53L-.57,471.67l-2.14,81.29,69.29,42.5,71.45-38.76,2.16-81.26Z"/>
                  <path class="cls-10" d="m11.46,745.49l-.71-.45,1.87-71.35.04-.83,63.44-34.42,60.83,37.31.71.45-1.88,71.32-.03.82-63.44,34.42-60.81-37.28Zm123.23-67.69l-58.69-36.01-60.5,32.82-1.81,68.83,58.68,35.99,60.5-32.82,1.83-68.81Z"/>
                  <path class="cls-10" d="m173.26,821.23l-.41-.26,1.08-41.05.02-.48,36.5-19.8,35,21.46.41.26-1.08,41.04-.02.48-36.5,19.8-34.99-21.45Zm70.91-38.95l-33.77-20.72-34.81,18.88-1.04,39.6,33.76,20.71,34.81-18.88,1.05-39.59Z"/>
                  <path class="cls-10" d="m199.16,642.75l-.35-.22.91-34.73.02-.4,30.88-16.75,29.61,18.15.35.22-.92,34.71-.02.4-30.88,16.75-29.6-18.14Zm59.98-32.95l-28.57-17.53-29.45,15.97-.88,33.5,28.56,17.52,29.45-15.97.89-33.49Z"/>
                  <path class="cls-10" d="m39.57,331.71l-.35-.22.93-35.41.02-.41,31.49-17.08,30.19,18.51.35.22-.93,35.4-.02.41-31.49,17.08-30.18-18.5Zm61.16-33.6l-29.13-17.87-30.03,16.29-.9,34.16,29.12,17.86,30.03-16.29.91-34.15Z"/>
                  <path class="cls-10" d="m163.04,380.08l-.39-.24,1.01-38.66.02-.45,34.38-18.65,32.96,20.21.39.24-1.02,38.64-.02.45-34.38,18.65-32.95-20.2Zm66.77-36.68l-31.8-19.51-32.78,17.78-.98,37.29,31.79,19.5,32.78-17.78.99-37.28Z"/>
                  <polygon class="cls-10" points="71.95 432.92 70.86 348.54 68.72 348.55 69.82 432.93 71.95 432.92"/>
                  <polygon class="cls-10" points="200.45 609.08 201.78 607.4 138.68 555.85 137.35 557.52 200.45 609.08"/>
                  <rect class="cls-10" x="131.15" y="658.18" width="73.54" height="2.18" transform="translate(-294.05 159.85) rotate(-28.48)"/>
                  <polygon class="cls-10" points="174.92 781.29 176.25 779.62 134.26 746.59 132.93 748.26 174.92 781.29"/>
                </g>
              </g>
              <g>
                <path class="cls-10" d="m34.83,752.76l-60.95,33.07-.68-.4-58.43-35.84v-.81s1.83-68.53,1.83-68.53l60.95-33.07.68.4,58.44,35.87v.81s-1.84,68.5-1.84,68.5Zm-60.87,29.86l58.13-31.53,1.75-66.1-56.38-34.6-58.13,31.53-1.74,66.13,56.37,34.57Z"/>
                <path class="cls-10" d="m189.47,655.24l-48.79,26.47-.55-.32-46.77-28.69v-.65s1.47-54.85,1.47-54.85l48.79-26.47.55.32,46.78,28.71v.65s-1.48,54.83-1.48,54.83Zm-48.72,23.9l46.53-25.24,1.4-52.91-45.13-27.69-46.53,25.24-1.39,52.93,45.12,27.67Z"/>
                <path class="cls-10" d="m157.3,838.05l-51.61,28-.58-.34-49.47-30.35v-.69s1.55-58.02,1.55-58.02l51.61-28,.58.34,49.48,30.37v.69s-1.56,58-1.56,58Zm-51.54,25.28l49.22-26.7,1.48-55.97-47.74-29.3-49.22,26.7-1.48,55.99,47.73,29.27Z"/>
                <path class="cls-10" d="m244.47,763.26l-28.69,15.57-.32-.19-27.5-16.87v-.38s.86-32.25.86-32.25l28.69-15.57.32.19,27.51,16.88v.38s-.87,32.24-.87,32.24Zm-28.65,14.05l27.36-14.84.83-31.11-26.54-16.29-27.36,14.84-.82,31.13,26.54,16.27Z"/>
                <path class="cls-10" d="m254.01,661.24l-28.69,15.57-.32-.19-27.5-16.87v-.38s.86-32.26.86-32.26l28.69-15.57.32.19,27.51,16.89v.38s-.86,32.25-.86,32.25Zm-28.65,14.05l27.36-14.84.83-31.12-26.54-16.28-27.36,14.84-.82,31.13,26.53,16.27Z"/>
                <path class="cls-10" d="m159.11,504.88l-32,17.36-.36-.21-30.68-18.82v-.43s.96-35.98.96-35.98l32-17.36.36.21,30.68,18.83v.43s-.97,35.97-.97,35.97Zm-31.96,15.68l30.52-16.56.92-34.71-29.61-18.16-30.52,16.56-.91,34.72,29.6,18.15Z"/>
                <path class="cls-10" d="m54.44,572.88l-42.07,22.82-.47-.28-40.32-24.74v-.56s1.26-47.3,1.26-47.3l42.07-22.82.47.28,40.33,24.76v.56s-1.27,47.28-1.27,47.28Zm-42.01,20.61l40.12-21.76,1.21-45.62-38.91-23.88-40.12,21.76-1.2,45.64,38.9,23.86Z"/>
                <rect class="cls-10" x="29.63" y="667.61" width="68.65" height="1.77" transform="translate(-311.03 111.39) rotate(-28.48)"/>
                <polygon class="cls-10" points="96.58 599.28 52.82 572.85 53.71 571.35 97.47 597.78 96.58 599.28"/>
                <rect class="cls-10" x="51.09" y="512.97" width="48.69" height="1.77" transform="translate(-235.9 98.16) rotate(-28.48)"/>
              </g>
            </g>
          </g>
        </g>
      </g>
      <g class="cls-5">
        <g id="TRAMA">
          <g>
            <g class="cls-6">
              <g>
                <path class="cls-9" d="m1343.8,459.65l35.6-26.02-.05-.5-4.69-43.33-.47-.22-39.87-17.62-35.6,26.02.05.5,4.7,43.35.47.22,39.86,17.6Zm33.73-26.84l-33.95,24.81-38.46-16.99-4.52-41.82,33.95-24.81,38.47,17.01,4.51,41.8Z"/>
                <path class="cls-9" d="m1326.16,508.02l20.93-15.3-.03-.3-2.76-25.48-.27-.13-23.45-10.36-20.93,15.3.03.3,2.76,25.49.28.13,23.44,10.35Zm19.83-15.79l-19.96,14.59-22.62-9.99-2.66-24.59,19.96-14.59,22.62,10,2.66,24.58Z"/>
                <path class="cls-9" d="m1246.2,386.71l23.35-17.07-.03-.33-3.07-28.42-.31-.14-26.15-11.55-23.35,17.07.03.33,3.08,28.43.31.14,26.15,11.55Zm22.12-17.61l-22.27,16.27-25.23-11.14-2.97-27.43,22.27-16.27,25.24,11.16,2.96,27.42Z"/>
                <path class="cls-9" d="m1317.25,224.74l13.07-9.55-.02-.18-1.72-15.91-.17-.08-14.64-6.47-13.07,9.55.02.19,1.73,15.92.17.08,14.64,6.46Zm12.39-9.86l-12.47,9.11-14.12-6.24-1.66-15.36,12.47-9.11,14.13,6.25,1.66,15.35Z"/>
                <path class="cls-9" d="m1330.62,334.7l30.69-22.43-.04-.43-4.04-37.36-.4-.19-34.38-15.19-30.69,22.43.04.43,4.05,37.37.4.19,34.37,15.17Zm29.08-23.14l-29.27,21.39-33.16-14.65-3.9-36.06,29.27-21.39,33.17,14.66,3.89,36.05Z"/>
                <polygon class="cls-9" points="1322.92 260.32 1317.53 223.79 1316.42 223.92 1321.81 260.45 1322.92 260.32"/>
                <polygon class="cls-9" points="1335.23 373.93 1331.15 333.53 1329.77 333.66 1333.85 374.07 1335.23 373.93"/>
                <rect class="cls-9" x="1261.77" y="329" width="38.68" height="1.41" transform="translate(52.27 819.49) rotate(-36.16)"/>
              </g>
              <g>
                <path class="cls-9" d="m1271.08,78.97l44.47-32.5-.06-.63-5.85-54.13-.59-.27-49.81-22.01-44.47,32.5.06.63,5.87,54.15.59.27,49.8,21.99Zm42.14-33.53l-42.41,31-48.05-21.23-5.65-52.24,42.41-31,48.06,21.25,5.64,52.22Z"/>
                <path class="cls-9" d="m1148.46,156.8l35.6-26.02-.05-.5-4.69-43.33-.47-.22-39.87-17.62-35.6,26.02.05.5,4.7,43.35.47.22,39.86,17.6Zm33.73-26.84l-33.95,24.81-38.46-16.99-4.52-41.82,33.95-24.81,38.47,17.01,4.51,41.8Z"/>
                <path class="cls-9" d="m1290.64,195.9l37.66-27.52-.05-.53-4.96-45.84-.5-.23-42.18-18.63-37.66,27.52.05.53,4.97,45.85.5.23,42.16,18.62Zm35.68-28.39l-35.91,26.25-40.68-17.97-4.79-44.24,35.91-26.25,40.7,17.99,4.78,44.22Z"/>
                <path class="cls-9" d="m1382.9,222.52l21.67-15.84-.03-.31-2.85-26.37-.29-.13-24.27-10.72-21.67,15.84.03.31,2.86,26.38.28.13,24.26,10.71Zm20.53-16.34l-20.66,15.1-23.41-10.34-2.75-25.45,20.66-15.1,23.42,10.35,2.75,25.44Z"/>
                <path class="cls-9" d="m1380.32,104.32l18.33-13.4-.02-.26-2.41-22.31-.24-.11-20.53-9.07-18.33,13.4.02.26,2.42,22.32.24.11,20.52,9.06Zm17.36-13.82l-17.48,12.77-19.8-8.75-2.33-21.53,17.48-12.77,19.81,8.76,2.32,21.52Z"/>
                <path class="cls-9" d="m1207.29,233.03l20.93-15.3-.03-.3-2.76-25.48-.28-.13-23.45-10.36-20.93,15.3.03.3,2.76,25.49.28.13,23.44,10.35Zm19.83-15.79l-19.96,14.59-22.62-9.99-2.66-24.59,19.96-14.59,22.62,10,2.65,24.58Z"/>
                <path class="cls-9" d="m1130.82,205.17l20.93-15.3-.03-.3-2.76-25.48-.28-.13-23.45-10.36-20.93,15.3.03.3,2.76,25.49.27.13,23.44,10.35Zm19.83-15.78l-19.96,14.59-22.62-9.99-2.66-24.59,19.96-14.59,22.62,10,2.65,24.58Z"/>
                <path class="cls-9" d="m1050.87,83.85l23.35-17.07-.03-.33-3.07-28.42-.31-.14-26.15-11.55-23.35,17.07.03.33,3.08,28.43.31.14,26.15,11.54Zm22.12-17.61l-22.27,16.27-25.23-11.15-2.97-27.43,22.27-16.27,25.23,11.16,2.96,27.42Z"/>
                <path class="cls-9" d="m1135.28,31.85l30.69-22.43-.04-.43-4.04-37.36-.4-.19-34.38-15.19-30.69,22.43.04.43,4.05,37.37.4.19,34.37,15.18Zm29.08-23.14l-29.27,21.39-33.16-14.65-3.9-36.06,29.27-21.39,33.17,14.66,3.89,36.04Z"/>
                <rect class="cls-9" x="1173.42" y="70.51" width="54.53" height="1.41" transform="translate(189.31 722.24) rotate(-36.16)"/>
                <polygon class="cls-9" points="1357.71 73.59 1358.42 72.4 1313.56 44.84 1312.85 46.03 1357.71 73.59"/>
                <rect class="cls-9" x="1317.46" y="107.84" width="47.52" height="1.41" transform="translate(194.35 812.36) rotate(-36.16)"/>
                <polygon class="cls-9" points="1356.24 186.08 1356.95 184.9 1327.21 167.37 1326.5 168.56 1356.24 186.08"/>
                <polygon class="cls-9" points="1139.89 71.08 1135.81 30.68 1134.44 30.81 1138.52 71.22 1139.89 71.08"/>
                <rect class="cls-9" x="1066.43" y="26.15" width="38.68" height="1.41" transform="translate(193.35 645.88) rotate(-36.16)"/>
              </g>
            </g>
            <g>
              <g>
                <path class="cls-9" d="m1364.25,238.76l-.02-.15-11.91-5.27-.14-.06-10.63,7.77,1.4,12.94.02.15,11.91,5.26.14.06,10.63-7.77-1.39-12.94Zm-20.79,15.03l-1.35-12.49,10.14-7.41,11.49,5.08,1.35,12.49-10.14,7.41-11.49-5.08Z"/>
                <path class="cls-9" d="m1329.46,333.07l-.03-.22-17.03-7.53-.2-.08-15.2,11.11,2,18.51.03.22,17.03,7.52.2.08,15.2-11.11-1.99-18.5Zm-29.73,21.49l-1.93-17.86,14.5-10.6,16.43,7.26,1.93,17.85-14.5,10.6-16.43-7.26Z"/>
                <path class="cls-9" d="m1324.64,402.61l-.03-.24-18.59-8.22-.22-.09-16.6,12.13,2.18,20.21.03.24,18.59,8.22.22.09,16.6-12.13-2.18-20.2Zm-32.45,23.46l-2.11-19.5,15.83-11.57,17.94,7.93,2.11,19.49-15.83,11.57-17.93-7.92Z"/>
                <polygon class="cls-9" points="1370.25 371.23 1330.41 351.72 1330.9 350.71 1370.73 370.22 1370.25 371.23"/>
                <polygon class="cls-9" points="1391.82 264.88 1364.84 251.68 1365.22 250.86 1392.2 264.06 1391.82 264.88"/>
              </g>
              <g>
                <path class="cls-9" d="m1259.32,135.89l-.06-.52-40.52-17.92-.47-.2-36.18,26.44,4.76,44.04.06.52,40.51,17.91.47.2,36.18-26.44-4.75-44.03Zm-70.74,51.14l-4.6-42.5,34.5-25.21,39.1,17.28,4.59,42.48-34.5,25.21-39.09-17.27Z"/>
                <path class="cls-9" d="m1350.87,68.86l-.05-.42-32.44-14.34-.38-.16-28.96,21.17,3.81,35.25.05.42,32.43,14.33.38.16,28.96-21.17-3.8-35.24Zm-56.62,40.93l-3.68-34.02,27.61-20.18,31.3,13.83,3.67,34.01-27.61,20.18-31.29-13.82Z"/>
                <path class="cls-9" d="m1345.84,186.67l-.05-.44-34.31-15.17-.4-.17-30.63,22.39,4.03,37.29.06.44,34.3,15.16.4.17,30.63-22.39-4.02-37.28Zm-59.9,43.3l-3.89-35.99,29.21-21.35,33.11,14.63,3.88,35.97-29.21,21.35-33.1-14.62Z"/>
                <path class="cls-9" d="m1345.4,280.58l-.03-.25-19.74-8.73-.23-.1-17.63,12.88,2.32,21.46.03.25,19.74,8.72.23.1,17.63-12.88-2.31-21.45Zm-34.46,24.91l-2.24-20.71,16.81-12.28,19.05,8.42,2.23,20.7-16.81,12.28-19.04-8.41Z"/>
                <path class="cls-9" d="m1254.78,252.7l-.03-.22-16.7-7.38-.2-.08-14.91,10.9,1.96,18.15.03.21,16.7,7.38.2.08,14.91-10.9-1.96-18.14Zm-29.15,21.07l-1.89-17.51,14.22-10.39,16.11,7.12,1.89,17.51-14.22,10.39-16.11-7.12Z"/>
                <path class="cls-9" d="m1396.99,147.8l-.03-.24-19.07-8.44-.22-.09-17.03,12.45,2.24,20.73.03.25,19.07,8.43.22.09,17.03-12.45-2.23-20.72Zm-33.3,24.07l-2.17-20.01,16.24-11.87,18.4,8.14,2.16,20-16.24,11.87-18.4-8.13Z"/>
                <path class="cls-9" d="m1394.28,81.64l-.03-.24-19.08-8.44-.22-.09-17.03,12.45,2.24,20.73.03.25,19.07,8.43.22.09,17.03-12.45-2.23-20.72Zm-33.3,24.07l-2.16-20,16.24-11.87,18.4,8.14,2.16,20-16.24,11.87-18.4-8.13Z"/>
                <path class="cls-9" d="m1319.74-12.68l-.03-.27-21.28-9.41-.25-.1-18.99,13.88,2.5,23.12.03.27,21.27,9.4.25.1,18.99-13.88-2.49-23.12Zm-37.14,26.85l-2.41-22.31,18.11-13.24,20.53,9.07,2.41,22.31-18.11,13.24-20.52-9.07Z"/>
                <path class="cls-9" d="m1177.76,12.57l-.02-.15-11.91-5.27-.14-.06-10.63,7.77,1.4,12.95.02.15,11.91,5.26.14.06,10.63-7.77-1.39-12.94Zm-20.79,15.03l-1.35-12.49,10.14-7.41,11.49,5.08,1.35,12.49-10.14,7.41-11.49-5.08Z"/>
                <path class="cls-9" d="m1142.96,106.87l-.03-.22-17.03-7.53-.2-.08-15.2,11.11,2,18.51.03.22,17.03,7.53.2.08,15.2-11.11-1.99-18.5Zm-29.73,21.49l-1.93-17.86,14.5-10.6,16.43,7.26,1.93,17.85-14.5,10.6-16.43-7.26Z"/>
                <path class="cls-9" d="m1138.14,176.41l-.03-.24-18.59-8.22-.22-.09-16.6,12.13,2.18,20.21.03.24,18.59,8.22.22.09,16.6-12.13-2.18-20.2Zm-32.45,23.46l-2.11-19.5,15.83-11.57,17.94,7.93,2.1,19.49-15.83,11.57-17.93-7.92Z"/>
                <path class="cls-9" d="m1257.81,32.64l-.04-.36-27.97-12.37-.33-.14-24.97,18.25,3.28,30.4.04.36,27.96,12.36.33.14,24.97-18.25-3.28-30.39Zm-48.82,35.29l-3.17-29.33,23.81-17.4,26.98,11.93,3.17,29.32-23.81,17.4-26.98-11.92Z"/>
                <polygon class="cls-9" points="1183.75 145.04 1143.91 125.52 1144.4 124.51 1184.24 144.03 1183.75 145.04"/>
                <polygon class="cls-9" points="1205.32 38.68 1178.34 25.48 1178.72 24.66 1205.7 37.86 1205.32 38.68"/>
                <rect class="cls-9" x="1253.25" y="122.87" width="44.36" height="1.14" transform="translate(172.89 776.41) rotate(-36.16)"/>
                <polygon class="cls-9" points="1238.5 245.74 1237.41 245.99 1227.12 204.41 1228.21 204.16 1238.5 245.74"/>
                <rect class="cls-9" x="1250.34" y="241.01" width="38.66" height="1.15" transform="translate(102.06 795.77) rotate(-36.16)"/>
                <polygon class="cls-9" points="1326.05 272.38 1324.96 272.63 1318.72 245.25 1319.82 245 1326.05 272.38"/>
                <polygon class="cls-9" points="1290.35 76.29 1260.04 63.15 1260.48 62.11 1290.79 75.25 1290.35 76.29"/>
                <rect class="cls-9" x="1253.7" y="22.84" width="31.47" height="1.15" transform="translate(230.76 753.59) rotate(-36.16)"/>
              </g>
            </g>
          </g>
        </g>
      </g>
      <g class="cls-4">
        <g id="TRAMA-2" data-name="TRAMA">
          <g>
            <g class="cls-6">
              <g>
                <path class="cls-9" d="m22.2,308.35l-35.6,26.02.05.5,4.69,43.33.47.22,39.87,17.62,35.6-26.02-.05-.5-4.7-43.35-.47-.22-39.86-17.6Zm-33.73,26.84l33.95-24.81,38.46,16.99,4.52,41.82-33.95,24.81-38.47-17.01-4.51-41.8Z"/>
                <path class="cls-9" d="m39.84,259.98l-20.93,15.3.03.3,2.76,25.48.27.13,23.45,10.36,20.93-15.3-.03-.3-2.76-25.49-.28-.13-23.44-10.35Zm-19.83,15.79l19.96-14.59,22.62,9.99,2.66,24.59-19.96,14.59-22.62-10-2.66-24.58Z"/>
                <path class="cls-9" d="m119.8,381.29l-23.35,17.07.03.33,3.07,28.42.31.14,26.15,11.55,23.35-17.07-.03-.33-3.08-28.43-.31-.14-26.15-11.55Zm-22.12,17.61l22.27-16.27,25.23,11.14,2.97,27.43-22.27,16.27-25.24-11.16-2.96-27.42Z"/>
                <path class="cls-9" d="m48.75,543.26l-13.07,9.55.02.18,1.72,15.91.17.08,14.64,6.47,13.07-9.55-.02-.19-1.73-15.92-.17-.08-14.64-6.46Zm-12.39,9.86l12.47-9.11,14.12,6.24,1.66,15.36-12.47,9.11-14.13-6.25-1.66-15.35Z"/>
                <path class="cls-9" d="m35.38,433.3l-30.69,22.43.04.43,4.04,37.36.4.19,34.38,15.19,30.69-22.43-.04-.43-4.05-37.37-.4-.19-34.37-15.17Zm-29.08,23.14l29.27-21.39,33.16,14.65,3.9,36.06-29.27,21.39-33.17-14.66-3.89-36.05Z"/>
                <polygon class="cls-9" points="43.08 507.68 48.47 544.21 49.58 544.08 44.19 507.55 43.08 507.68"/>
                <polygon class="cls-9" points="30.77 394.07 34.85 434.47 36.23 434.34 32.15 393.93 30.77 394.07"/>
                <rect class="cls-9" x="65.55" y="437.59" width="38.68" height="1.41" transform="translate(-242.28 134.54) rotate(-36.16)"/>
              </g>
              <g>
                <path class="cls-9" d="m94.92,689.03l-44.47,32.5.06.63,5.85,54.13.59.27,49.81,22.01,44.47-32.5-.06-.63-5.87-54.15-.59-.27-49.8-21.99Zm-42.14,33.53l42.41-31,48.05,21.23,5.65,52.24-42.41,31-48.06-21.25-5.64-52.22Z"/>
                <path class="cls-9" d="m217.54,611.2l-35.6,26.02.05.5,4.69,43.33.47.22,39.87,17.62,35.6-26.02-.05-.5-4.7-43.35-.47-.22-39.86-17.6Zm-33.73,26.84l33.95-24.81,38.46,16.99,4.52,41.82-33.95,24.81-38.47-17.01-4.51-41.8Z"/>
                <path class="cls-9" d="m75.36,572.1l-37.66,27.52.05.53,4.96,45.84.5.23,42.18,18.63,37.66-27.52-.05-.53-4.97-45.85-.5-.23-42.16-18.62Zm-35.68,28.39l35.91-26.25,40.68,17.97,4.79,44.24-35.91,26.25-40.7-17.99-4.78-44.22Z"/>
                <path class="cls-9" d="m-16.9,545.48l-21.67,15.84.03.31,2.85,26.37.29.13,24.27,10.72,21.67-15.84-.03-.31-2.86-26.38-.28-.13-24.26-10.71Zm-20.53,16.34l20.66-15.1,23.41,10.34,2.75,25.45-20.66,15.1-23.42-10.35-2.75-25.44Z"/>
                <path class="cls-9" d="m-14.32,663.68l-18.33,13.4.02.26,2.41,22.31.24.11,20.53,9.07,18.33-13.4-.02-.26-2.42-22.32-.24-.11-20.52-9.06Zm-17.36,13.82l17.48-12.77,19.8,8.75,2.33,21.53-17.48,12.77-19.81-8.76-2.32-21.52Z"/>
                <path class="cls-9" d="m158.71,534.97l-20.93,15.3.03.3,2.76,25.48.28.13,23.45,10.36,20.93-15.3-.03-.3-2.76-25.49-.28-.13-23.44-10.35Zm-19.83,15.79l19.96-14.59,22.62,9.99,2.66,24.59-19.96,14.59-22.62-10-2.65-24.58Z"/>
                <path class="cls-9" d="m235.18,562.83l-20.93,15.3.03.3,2.76,25.48.28.13,23.45,10.36,20.93-15.3-.03-.3-2.76-25.49-.27-.13-23.44-10.35Zm-19.83,15.78l19.96-14.59,22.62,9.99,2.66,24.59-19.96,14.59-22.62-10-2.65-24.58Z"/>
                <path class="cls-9" d="m315.13,684.15l-23.35,17.07.03.33,3.07,28.42.31.14,26.15,11.55,23.35-17.07-.03-.33-3.08-28.43-.31-.14-26.15-11.54Zm-22.12,17.61l22.27-16.27,25.23,11.15,2.97,27.43-22.27,16.27-25.23-11.16-2.96-27.42Z"/>
                <path class="cls-9" d="m230.72,736.15l-30.69,22.43.04.43,4.04,37.36.4.19,34.38,15.19,30.69-22.43-.04-.43-4.05-37.37-.4-.19-34.37-15.18Zm-29.08,23.14l29.27-21.39,33.16,14.65,3.9,36.06-29.27,21.39-33.17-14.66-3.89-36.04Z"/>
                <rect class="cls-9" x="138.05" y="696.09" width="54.53" height="1.41" transform="translate(-379.32 231.8) rotate(-36.16)"/>
                <polygon class="cls-9" points="8.29 694.41 7.58 695.6 52.44 723.16 53.15 721.97 8.29 694.41"/>
                <rect class="cls-9" x="1.02" y="658.75" width="47.52" height="1.41" transform="translate(-384.37 141.68) rotate(-36.16)"/>
                <polygon class="cls-9" points="9.76 581.92 9.05 583.1 38.79 600.63 39.5 599.44 9.76 581.92"/>
                <polygon class="cls-9" points="226.11 696.92 230.19 737.32 231.56 737.19 227.48 696.78 226.11 696.92"/>
                <rect class="cls-9" x="260.89" y="740.45" width="38.68" height="1.41" transform="translate(-383.36 308.15) rotate(-36.16)"/>
              </g>
            </g>
            <g>
              <g>
                <path class="cls-9" d="m1.75,529.24l.02.15,11.91,5.27.14.06,10.63-7.77-1.4-12.94-.02-.15-11.91-5.26-.14-.06-10.63,7.77,1.39,12.94Zm20.79-15.03l1.35,12.49-10.14,7.41-11.49-5.08-1.35-12.49,10.14-7.41,11.49,5.08Z"/>
                <path class="cls-9" d="m36.54,434.93l.03.22,17.03,7.53.2.08,15.2-11.11-2-18.51-.03-.22-17.03-7.52-.2-.08-15.2,11.11,1.99,18.5Zm29.73-21.49l1.93,17.86-14.5,10.6-16.43-7.26-1.93-17.85,14.5-10.6,16.43,7.26Z"/>
                <path class="cls-9" d="m41.36,365.39l.03.24,18.59,8.22.22.09,16.6-12.13-2.18-20.21-.03-.24-18.59-8.22-.22-.09-16.6,12.13,2.18,20.2Zm32.45-23.46l2.11,19.5-15.83,11.57-17.94-7.93-2.11-19.49,15.83-11.57,17.93,7.92Z"/>
                <polygon class="cls-9" points="-4.25 396.77 35.59 416.28 35.1 417.29 -4.73 397.78 -4.25 396.77"/>
                <polygon class="cls-9" points="-25.82 503.12 1.16 516.32 .78 517.14 -26.2 503.94 -25.82 503.12"/>
              </g>
              <g>
                <path class="cls-9" d="m106.68,632.11l.06.52,40.52,17.92.47.2,36.18-26.44-4.76-44.04-.06-.52-40.51-17.91-.47-.2-36.18,26.44,4.75,44.03Zm70.74-51.14l4.6,42.5-34.5,25.21-39.1-17.28-4.59-42.48,34.5-25.21,39.09,17.27Z"/>
                <path class="cls-9" d="m15.13,699.14l.05.42,32.44,14.34.38.16,28.96-21.17-3.81-35.25-.05-.42-32.43-14.33-.38-.16-28.96,21.17,3.8,35.24Zm56.62-40.93l3.68,34.02-27.61,20.18-31.3-13.83-3.67-34.01,27.61-20.18,31.29,13.82Z"/>
                <path class="cls-9" d="m20.16,581.33l.05.44,34.31,15.17.4.17,30.63-22.39-4.03-37.29-.06-.44-34.3-15.16-.4-.17-30.63,22.39,4.02,37.28Zm59.9-43.3l3.89,35.99-29.21,21.35-33.11-14.63-3.88-35.97,29.21-21.35,33.1,14.62Z"/>
                <path class="cls-9" d="m20.6,487.42l.03.25,19.74,8.73.23.1,17.63-12.88-2.32-21.46-.03-.25-19.74-8.72-.23-.1-17.63,12.88,2.31,21.45Zm34.46-24.91l2.24,20.71-16.81,12.28-19.05-8.42-2.23-20.7,16.81-12.28,19.04,8.41Z"/>
                <path class="cls-9" d="m111.22,515.3l.03.22,16.7,7.38.2.08,14.91-10.9-1.96-18.15-.03-.21-16.7-7.38-.2-.08-14.91,10.9,1.96,18.14Zm29.15-21.07l1.89,17.51-14.22,10.39-16.11-7.12-1.89-17.51,14.22-10.39,16.11,7.12Z"/>
                <path class="cls-9" d="m-30.99,620.2l.03.24,19.07,8.44.22.09,17.03-12.45-2.24-20.73-.03-.25-19.07-8.43-.22-.09-17.03,12.45,2.23,20.72Zm33.3-24.07l2.17,20.01-16.24,11.87-18.4-8.14-2.16-20,16.24-11.87,18.4,8.13Z"/>
                <path class="cls-9" d="m-28.28,686.36l.03.24,19.08,8.44.22.09,17.03-12.45-2.24-20.73-.03-.25-19.07-8.43-.22-.09-17.03,12.45,2.23,20.72Zm33.3-24.07l2.16,20-16.24,11.87-18.4-8.14-2.16-20,16.24-11.87,18.4,8.13Z"/>
                <path class="cls-9" d="m46.26,780.68l.03.27,21.28,9.41.25.1,18.99-13.88-2.5-23.12-.03-.27-21.27-9.4-.25-.1-18.99,13.88,2.49,23.12Zm37.14-26.85l2.41,22.31-18.11,13.24-20.53-9.07-2.41-22.31,18.11-13.24,20.52,9.07Z"/>
                <path class="cls-9" d="m188.24,755.43l.02.15,11.91,5.27.14.06,10.63-7.77-1.4-12.95-.02-.15-11.91-5.26-.14-.06-10.63,7.77,1.39,12.94Zm20.79-15.03l1.35,12.49-10.14,7.41-11.49-5.08-1.35-12.49,10.14-7.41,11.49,5.08Z"/>
                <path class="cls-9" d="m223.04,661.13l.03.22,17.03,7.53.2.08,15.2-11.11-2-18.51-.03-.22-17.03-7.53-.2-.08-15.2,11.11,1.99,18.5Zm29.73-21.49l1.93,17.86-14.5,10.6-16.43-7.26-1.93-17.85,14.5-10.6,16.43,7.26Z"/>
                <path class="cls-9" d="m227.86,591.59l.03.24,18.59,8.22.22.09,16.6-12.13-2.18-20.21-.03-.24-18.59-8.22-.22-.09-16.6,12.13,2.18,20.2Zm32.45-23.46l2.11,19.5-15.83,11.57-17.94-7.93-2.1-19.49,15.83-11.57,17.93,7.92Z"/>
                <path class="cls-9" d="m108.19,735.36l.04.36,27.97,12.37.33.14,24.97-18.25-3.28-30.4-.04-.36-27.96-12.36-.33-.14-24.97,18.25,3.28,30.39Zm48.82-35.29l3.17,29.33-23.81,17.4-26.98-11.93-3.17-29.32,23.81-17.4,26.98,11.92Z"/>
                <polygon class="cls-9" points="182.25 622.96 222.09 642.48 221.6 643.49 181.76 623.97 182.25 622.96"/>
                <polygon class="cls-9" points="160.68 729.32 187.66 742.52 187.28 743.34 160.3 730.14 160.68 729.32"/>
                <rect class="cls-9" x="68.39" y="643.99" width="44.36" height="1.14" transform="translate(-362.9 177.63) rotate(-36.16)"/>
                <polygon class="cls-9" points="127.5 522.26 128.59 522.01 138.88 563.59 137.79 563.84 127.5 522.26"/>
                <rect class="cls-9" x="77.01" y="525.84" width="38.66" height="1.15" transform="translate(-292.07 158.27) rotate(-36.16)"/>
                <polygon class="cls-9" points="39.95 495.62 41.04 495.37 47.28 522.75 46.18 523 39.95 495.62"/>
                <polygon class="cls-9" points="75.65 691.71 105.96 704.85 105.52 705.89 75.21 692.75 75.65 691.71"/>
                <rect class="cls-9" x="80.84" y="744.01" width="31.47" height="1.15" transform="translate(-420.77 200.44) rotate(-36.16)"/>
              </g>
            </g>
          </g>
        </g>
      </g>
    </g>
  </g>
</svg>