<?xml version="1.0" encoding="utf-8"?>
<!-- Generator: Adobe Illustrator 27.1.0, SVG Export Plug-In . SVG Version: 6.00 Build 0)  -->
<svg version="1.1" id="Capa_2_00000114785753556483046350000006959920703496041624_"
	 xmlns="http://www.w3.org/2000/svg" xmlns:xlink="http://www.w3.org/1999/xlink" x="0px" y="0px" viewBox="0 0 1366 768"
	 style="enable-background:new 0 0 1366 768;" xml:space="preserve">
<style type="text/css">
	.st0{clip-path:url(#SVGID_00000102538037420699236030000017055744622854650270_);}
	.st1{fill:#131F2B;}
	.st2{opacity:0.5;}
	.st3{opacity:0.3;}
	.st4{fill:#23323E;}
	.st5{fill:none;}
	.st6{clip-path:url(#SVGID_00000061458235805087518540000013394452614490059406_);}
	.st7{fill:#B0DD26;}
	.st8{clip-path:url(#SVGID_00000168798768087622024820000015774644996961068424_);}
</style>
<g id="Capa_1-2">
	<g>
		<g id="BG">
			<g>
				<defs>
					<rect id="SVGID_1_" width="1366" height="768"/>
				</defs>
				<clipPath id="SVGID_00000183234793054406250950000017190496778313472946_">
					<use xlink:href="#SVGID_1_"  style="overflow:visible;"/>
				</clipPath>
				<g style="clip-path:url(#SVGID_00000183234793054406250950000017190496778313472946_);">
					<rect id="BG-3" class="st1" width="1366" height="768"/>
					<g class="st2">
						<g>
							<g class="st3">
								<g>
									<path class="st4" d="M66.3,524.3l0.8-0.5l-2.2-84.3l0-1L-10,397.9l-71.8,44l-0.8,0.5l2.2,84.2l0,1l74.9,40.7L66.3,524.3
										L66.3,524.3z M-79.2,444.4l69.3-42.5l71.4,38.8l2.1,81.3l-69.3,42.5l-71.4-38.8L-79.2,444.4L-79.2,444.4z"/>
									<path class="st4" d="M256.1,627.1l0.7-0.4l-1.8-67.5l0-0.8l-60-32.5l-57.5,35.3l-0.7,0.4l1.8,67.4l0,0.8l60,32.5
										L256.1,627.1z M139.6,563.1l55.5-34l57.2,31l1.7,65.1l-55.5,34l-57.2-31L139.6,563.1L139.6,563.1z"/>
									<path class="st4" d="M49.5,714.4l0.7-0.5l-1.9-71.3l0-0.8l-63.4-34.4l-60.8,37.3l-0.7,0.5l1.9,71.3l0,0.8l63.4,34.4
										L49.5,714.4L49.5,714.4z M-73.7,646.8l58.7-36l60.5,32.8l1.8,68.8l-58.7,36l-60.5-32.8L-73.7,646.8L-73.7,646.8z"/>
									<path class="st4" d="M158,770.7l0.4-0.2l-1-39.7l0-0.5l-35.3-19.1l-33.8,20.7l-0.4,0.2l1,39.7l0,0.5l35.3,19.1L158,770.7
										L158,770.7z M89.5,733.1l32.6-20l33.6,18.2l1,38.3l-32.6,20l-33.6-18.2L89.5,733.1L89.5,733.1z"/>
									<path class="st4" d="M269.5,712.2l0.4-0.2l-1-39.7l0-0.5l-35.3-19.1l-33.8,20.7l-0.4,0.2l1,39.7l0,0.5l35.3,19.1
										L269.5,712.2L269.5,712.2z M201,674.5l32.6-20l33.6,18.2l1,38.3l-32.6,20L202,712.8L201,674.5z"/>
									<path class="st4" d="M370.9,507.1l0.4-0.3l-1.2-44.2l0-0.5l-39.3-21.3l-37.7,23.1l-0.4,0.3l1.2,44.2l0,0.5l39.3,21.3
										L370.9,507.1L370.9,507.1z M294.5,465.2l36.4-22.3l37.5,20.4l1.1,42.7l-36.4,22.3l-37.5-20.4L294.5,465.2L294.5,465.2z"/>
									<path class="st4" d="M211.9,283.6l0.2-0.1l-0.7-24.8v-0.3l-22-11.9l-21.1,12.9l-0.2,0.2l0.7,24.8v0.3l22,12L211.9,283.6
										L211.9,283.6z M169.1,260.1l20.4-12.5l21,11.4l0.6,23.9l-20.4,12.5l-21-11.4L169.1,260.1L169.1,260.1z"/>
									<path class="st4" d="M21.4,300.7l0.3-0.2L20.8,265l0-0.4l-31.5-17.1L-40.9,266l-0.3,0.2l0.9,35.4l0,0.4l31.5,17.1
										L21.4,300.7L21.4,300.7z M-39.8,267.1l29.1-17.9l30,16.3l0.9,34.2l-29.1,17.9l-30-16.3L-39.8,267.1z"/>
									<path class="st4" d="M242.6,437.6l0.6-0.4l-1.5-58.2l0-0.7l-51.7-28l-49.6,30.4l-0.6,0.4l1.5,58.1l0,0.7l51.7,28
										L242.6,437.6L242.6,437.6z M142.1,382.4l47.8-29.4l49.3,26.8l1.5,56.1l-47.8,29.3l-49.3-26.8L142.1,382.4z"/>
									<polygon class="st4" points="189.4,352.3 190.1,295.2 191.9,295.2 191.2,352.3 									"/>
									
										<rect x="99.8" y="499.7" transform="matrix(0.4769 -0.879 0.879 0.4769 -423.5267 372.1221)" class="st4" width="2.2" height="84.4"/>
									<polygon class="st4" points="194.1,529.1 191.9,466.3 194.1,466.2 196.2,529 									"/>
									
										<rect x="266.8" y="420.1" transform="matrix(0.4769 -0.879 0.879 0.4769 -255.4368 470.9354)" class="st4" width="2.2" height="59.9"/>
								</g>
								<g>
									<path class="st4" d="M303.2,19.5l0.8-0.5l-2.2-84.3l0-1L226.9-107l-71.8,44l-0.8,0.5l2.2,84.2l0,1l74.9,40.7L303.2,19.5
										L303.2,19.5z M157.7-60.5L227-103l71.4,38.8l2.1,81.3l-69.3,42.5l-71.4-38.8C159.8,20.8,157.7-60.5,157.7-60.5z"/>
									<path class="st4" d="M493,122.2l0.7-0.4l-1.8-67.4l0-0.8l-60-32.5l-57.5,35.3l-0.7,0.4l1.8,67.4l0,0.8l60,32.5L493,122.2
										L493,122.2z M376.5,58.2l55.5-34l57.2,31l1.7,65.1l-55.5,34l-57.2-31L376.5,58.2L376.5,58.2z"/>
									<path class="st4" d="M286.4,209.6l0.7-0.4l-1.9-71.3l0-0.8l-63.4-34.4L161,139.8l-0.7,0.4l1.9,71.3l0,0.8l63.4,34.4
										L286.4,209.6L286.4,209.6z M163.2,141.9l58.7-36l60.5,32.8l1.8,68.8l-58.7,36L165,210.7L163.2,141.9L163.2,141.9z"/>
									<path class="st4" d="M124.6,285.3l0.4-0.3l-1.1-41.1l0-0.5l-36.5-19.8l-35,21.5l-0.4,0.3l1.1,41l0,0.5l36.5,19.8
										L124.6,285.3L124.6,285.3z M53.7,246.4l33.8-20.7l34.8,18.9l1,39.6l-33.8,20.7l-34.8-18.9L53.7,246.4L53.7,246.4z"/>
									<path class="st4" d="M98.7,106.8l0.3-0.2l-0.9-34.7l0-0.4L67.2,54.7L37.6,72.9l-0.3,0.2l0.9,34.7l0,0.4l30.9,16.8
										L98.7,106.8L98.7,106.8z M38.7,73.9l28.6-17.5l29.4,16l0.9,33.5l-28.6,17.5l-29.4-16L38.7,73.9L38.7,73.9z"/>
									<path class="st4" d="M394.9,265.8l0.4-0.2l-1-39.7l0-0.5L359,206.3l-33.8,20.7l-0.4,0.2l1.1,39.6l0,0.5l35.3,19.1
										L394.9,265.8L394.9,265.8z M326.4,228.2l32.6-20l33.6,18.2l1,38.3l-32.6,20l-33.6-18.2L326.4,228.2z"/>
									<path class="st4" d="M506.4,207.3l0.4-0.2l-1-39.7l0-0.5l-35.3-19.1l-33.8,20.7l-0.4,0.2l1,39.7l0,0.5l35.3,19.1
										L506.4,207.3L506.4,207.3z M437.9,169.6l32.6-20l33.6,18.2l1,38.3l-32.6,20l-33.6-18.2L437.9,169.6L437.9,169.6z"/>
									<path class="st4" d="M607.8,2.3l0.4-0.3l-1.2-44.2l0-0.5l-39.3-21.3L530-41l-0.4,0.3l1.2,44.2l0,0.5l39.3,21.3
										C570.1,25.4,607.8,2.3,607.8,2.3z M531.4-39.7L567.8-62l37.5,20.3L606.5,1l-36.4,22.3L532.6,3L531.4-39.7L531.4-39.7z"/>
									
										<rect x="336.7" y="-5.2" transform="matrix(0.4769 -0.879 0.879 0.4769 144.1762 316.2433)" class="st4" width="2.2" height="84.4"/>
									<polygon class="st4" points="97.4,73.2 96.1,71.5 159.2,19.9 160.5,21.6 									"/>
									
										<rect x="128.9" y="86.6" transform="matrix(0.4769 -0.879 0.879 0.4769 -40.4204 178.7459)" class="st4" width="2.2" height="73.5"/>
									<polygon class="st4" points="123,245.4 121.6,243.7 163.6,210.7 164.9,212.3 									"/>
									<polygon class="st4" points="431,24.2 428.9,-38.6 431,-38.7 433.1,24.1 									"/>
								</g>
							</g>
							<g>
								<g>
									<path class="st4" d="M23.8,602.3l60.9,33.1l0.7-0.4l58.4-35.8v-0.8l-1.8-68.5l-60.9-33.1l-0.7,0.4L22,533v0.8L23.8,602.3
										L23.8,602.3z M84.7,632.2l-58.1-31.5l-1.8-66.1l56.4-34.6l58.1,31.5l1.7,66.1L84.7,632.2z"/>
									<path class="st4" d="M-98.6,687.6l51.6,28l0.6-0.3L3,684.9v-0.7l-1.6-58l-51.6-28l-0.6,0.3l-49.5,30.4v0.7L-98.6,687.6
										L-98.6,687.6z M-47.1,712.9l-49.2-26.7l-1.5-56l47.7-29.3l49.2,26.7l1.5,56L-47.1,712.9L-47.1,712.9z"/>
									<path class="st4" d="M53.9,740.3L79,753.9l0.3-0.2l24.1-14.8v-0.3l-0.8-28.2l-25.1-13.6l-0.3,0.2l-24.1,14.8v0.3
										L53.9,740.3L53.9,740.3z M79,752.6l-24-13l-0.7-27.2l23.2-14.3l24,13l0.7,27.2L79,752.6z"/>
									<path class="st4" d="M122.1,348l17.9,9.7l0.2-0.1l17.2-10.5v-0.2l-0.5-20.1l-17.9-9.7l-0.2,0.1l-17.2,10.5v0.2L122.1,348
										L122.1,348z M140,356.7l-17.1-9.3l-0.5-19.4l16.6-10.2l17.1,9.3l0.5,19.4L140,356.7L140,356.7z"/>
									<path class="st4" d="M195.2,494l25.6,13.9l0.3-0.2l24.6-15.1v-0.3l-0.8-28.8l-25.6-13.9l-0.3,0.2l-24.6,15.1v0.3L195.2,494
										L195.2,494z M220.8,506.6l-24.4-13.2l-0.7-27.8l23.7-14.5l24.4,13.2l0.7,27.8L220.8,506.6L220.8,506.6z"/>
									<path class="st4" d="M217.1,602.3l28,15.2l0.3-0.2l26.8-16.5v-0.4l-0.8-31.4l-28-15.2l-0.3,0.2l-26.8,16.5v0.4L217.1,602.3
										L217.1,602.3z M245,616l-26.7-14.5l-0.8-30.3l25.9-15.9l26.7,14.5l0.8,30.3L245,616z"/>
									<path class="st4" d="M4.2,422.4l42.1,22.8l0.5-0.3l40.3-24.7v-0.6l-1.3-47.3l-42.1-22.8l-0.5,0.3L2.9,374.6v0.6L4.2,422.4
										L4.2,422.4z M46.2,443L6.1,421.3l-1.2-45.6l38.9-23.9l40.1,21.8l1.2,45.6L46.2,443z"/>
									<polygon class="st4" points="139.8,532.2 196.8,494 195.9,492.6 138.8,530.8 									"/>
									<polygon class="st4" points="84.7,373.6 123.3,347.8 122.6,346.6 83.9,372.4 									"/>
									
										<rect x="-6.2" y="483.7" transform="matrix(0.4769 -0.879 0.879 0.4769 -458.1051 266.3641)" class="st4" width="1.8" height="68.7"/>
									<polygon class="st4" points="76.7,698 78.4,698.1 85.6,632.2 83.8,632.1 									"/>
									
										<rect x="27.1" y="668.1" transform="matrix(0.4769 -0.879 0.879 0.4769 -598.9087 389.7962)" class="st4" width="1.8" height="59.8"/>
									<polygon class="st4" points="-37.9,448.8 5.8,422.4 4.9,420.9 -38.8,447.3 									"/>
									
										<rect x="-17.7" y="339.1" transform="matrix(0.4769 -0.879 0.879 0.4769 -328.194 175.3683)" class="st4" width="1.8" height="48.7"/>
								</g>
								<g>
									<path class="st4" d="M263.1,216.8l60.9,33.1l0.7-0.4l58.4-35.8v-0.8l-1.8-68.5l-60.9-33.1l-0.7,0.4l-58.4,35.9v0.8
										L263.1,216.8z M323.9,246.7l-58.1-31.5l-1.8-66.1l56.4-34.6l58.1,31.5l1.7,66.1L323.9,246.7z"/>
									<path class="st4" d="M108.4,119.3l48.8,26.5l0.6-0.3l46.8-28.7v-0.7l-1.5-54.8l-48.8-26.5l-0.6,0.3l-46.8,28.7v0.7
										C106.9,64.5,108.4,119.3,108.4,119.3z M157.1,143.2L110.6,118l-1.4-52.9l45.1-27.7l46.5,25.2l1.4,52.9L157.1,143.2z"/>
									<path class="st4" d="M140.6,302.1l51.6,28l0.6-0.3l49.5-30.4v-0.7l-1.6-58l-51.6-28l-0.6,0.3L139,243.4v0.7L140.6,302.1z
										 M192.1,327.4l-49.2-26.7l-1.5-56l47.7-29.3l49.2,26.7l1.5,56L192.1,327.4L192.1,327.4z"/>
									<path class="st4" d="M160,421.4l29.7,16.1l0.3-0.2l28.5-17.5v-0.4l-0.9-33.4L187.9,370l-0.3,0.2l-28.5,17.5v0.4L160,421.4
										L160,421.4z M189.7,436l-28.3-15.4l-0.8-32.2l27.5-16.9l28.3,15.4l0.8,32.2L189.7,436L189.7,436z"/>
									<path class="st4" d="M293.1,354.8l25.1,13.6l0.3-0.2l24.1-14.8v-0.3l-0.7-28.2l-25.1-13.6l-0.3,0.2l-24.1,14.8v0.3
										L293.1,354.8L293.1,354.8z M318.2,367.1l-24-13l-0.7-27.2l23.2-14.3l24,13l0.7,27.2L318.2,367.1z"/>
									<path class="st4" d="M53.4,227.3l28.7,15.6l0.3-0.2l27.5-16.9v-0.4l-0.9-32.2l-28.7-15.6l-0.3,0.2l-27.5,16.9v0.4
										L53.4,227.3z M82.1,241.4l-27.4-14.8l-0.8-31.1l26.5-16.3l27.4,14.8l0.8,31.1L82.1,241.4L82.1,241.4z"/>
									<path class="st4" d="M43.9,125.3l28.7,15.6l0.3-0.2l27.5-16.9v-0.4l-0.9-32.3L70.8,75.6l-0.3,0.2L43,92.7v0.4L43.9,125.3
										L43.9,125.3z M72.5,139.4l-27.4-14.8l-0.8-31.1l26.5-16.3L98.2,92l0.8,31.1L72.5,139.4z"/>
									<path class="st4" d="M434.4,108.5l25.6,13.9l0.3-0.2l24.5-15.1v-0.3l-0.8-28.8l-25.6-13.9l-0.3,0.2l-24.6,15.1v0.3
										L434.4,108.5L434.4,108.5z M460,121.1l-24.4-13.2l-0.7-27.8l23.7-14.5L483,78.8l0.7,27.8L460,121.1L460,121.1z"/>
									<path class="st4" d="M456.3,216.8l28,15.2l0.3-0.2l26.8-16.4V215l-0.8-31.4l-28-15.2l-0.3,0.2L455.4,185v0.4L456.3,216.8
										L456.3,216.8z M484.2,230.5l-26.7-14.5l-0.8-30.3l25.9-15.9l26.7,14.5l0.8,30.3L484.2,230.5z"/>
									<path class="st4" d="M243.4,37l42.1,22.8l0.5-0.3l40.3-24.7v-0.6L325-13.1L283-35.9l-0.5,0.3l-40.3,24.8v0.6
										C242.2-10.3,243.4,36.9,243.4,37z M285.4,57.6l-40.1-21.8l-1.2-45.6L283-33.7l40.1,21.8l1.2,45.6
										C324.3,33.7,285.4,57.6,285.4,57.6z"/>
									<polygon class="st4" points="379,146.7 436.1,108.6 435.1,107.1 378,145.3 									"/>
									
										<rect x="233" y="98.2" transform="matrix(0.4769 -0.879 0.879 0.4769 5.8607 274.9651)" class="st4" width="1.8" height="68.7"/>
									<polygon class="st4" points="315.9,312.5 317.6,312.6 324.8,246.8 323.1,246.6 									"/>
									
										<rect x="266.3" y="282.7" transform="matrix(0.4769 -0.879 0.879 0.4769 -134.9429 398.3973)" class="st4" width="1.8" height="59.8"/>
									<polygon class="st4" points="187.1,371.5 188.8,371.6 192.8,328.4 191,328.2 									"/>
									<polygon class="st4" points="201.3,63.3 245.1,36.9 244.2,35.4 200.4,61.9 									"/>
								</g>
							</g>
						</g>
					</g>
					<rect id="BG-4" class="st5" width="1366" height="768"/>
					<g class="st2">
						<g>
							<g class="st3">
								<g>
									<path class="st4" d="M478,617.5l0.8-0.5l-2.2-84.3l0-1l-74.9-40.6l-71.8,44.1l-0.8,0.5l2.2,84.2l0,1l74.9,40.7L478,617.5
										L478,617.5z M332.5,537.6l69.3-42.5l71.5,38.8l2.1,81.3l-69.3,42.5l-71.5-38.8L332.5,537.6L332.5,537.6z"/>
									<path class="st4" d="M667.9,720.3l0.7-0.4l-1.8-67.5l0-0.8l-60-32.5l-57.5,35.3l-0.7,0.4l1.8,67.4l0,0.8l60,32.5
										L667.9,720.3z M551.4,656.3l55.5-34l57.2,31l1.7,65.1l-55.5,34l-57.2-31L551.4,656.3L551.4,656.3z"/>
									<path class="st4" d="M461.2,807.7l0.7-0.5l-1.9-71.3l0-0.8l-63.4-34.4l-60.8,37.3l-0.7,0.5l1.9,71.3l0,0.8l63.4,34.4
										L461.2,807.7L461.2,807.7z M338,740l58.7-36l60.5,32.8l1.8,68.8l-58.7,36l-60.5-32.8L338,740L338,740z"/>
									<path class="st4" d="M273.6,704.9l0.3-0.2L273,670l0-0.4l-30.9-16.8L212.5,671l-0.3,0.2l0.9,34.7l0,0.4l30.9,16.8
										L273.6,704.9L273.6,704.9z M213.6,672l28.6-17.5l29.4,16l0.9,33.5l-28.6,17.5l-29.4-16L213.6,672L213.6,672z"/>
									<path class="st4" d="M681.3,805.4l0.4-0.2l-1-39.7l0-0.5l-35.3-19.1l-33.8,20.7l-0.4,0.2l1,39.7l0,0.5l35.3,19.1
										L681.3,805.4L681.3,805.4z M612.8,767.7l32.6-20L679,766l1,38.3l-32.6,20L613.8,806L612.8,767.7z"/>
									<path class="st4" d="M782.7,600.4l0.4-0.3l-1.2-44.2l0-0.5L742.6,534l-37.7,23.1l-0.4,0.3l1.2,44.2l0,0.5l39.3,21.3
										L782.7,600.4L782.7,600.4z M706.3,558.4l36.4-22.3l37.5,20.3l1.1,42.7l-36.4,22.3l-37.5-20.3L706.3,558.4L706.3,558.4z"/>
									<path class="st4" d="M623.6,376.9l0.2-0.1l-0.7-24.8v-0.3l-22-12l-21.1,13l-0.2,0.2l0.7,24.8v0.3l22,12L623.6,376.9
										L623.6,376.9z M580.8,353.4l20.4-12.5l21,11.4l0.6,23.9l-20.4,12.5l-21-11.4L580.8,353.4z"/>
									<path class="st4" d="M433.1,393.9l0.3-0.2l-0.9-35.4l0-0.4L401,340.8l-30.2,18.5l-0.3,0.2l0.9,35.4l0,0.4l31.5,17.1
										L433.1,393.9L433.1,393.9z M372,360.3l29.1-17.9l30,16.3l0.9,34.2l-29.1,17.9l-30-16.3L372,360.3L372,360.3z"/>
									<path class="st4" d="M309.7,442.2l0.4-0.2l-1-38.7l0-0.5l-34.4-18.6l-33,20.2l-0.4,0.2l1,38.6l0,0.5l34.4,18.6L309.7,442.2
										L309.7,442.2z M242.9,405.6l31.8-19.5l32.8,17.8l1,37.3l-31.8,19.5l-32.8-17.8L242.9,405.6L242.9,405.6z"/>
									<path class="st4" d="M654.3,530.8l0.6-0.4l-1.5-58.2l0-0.7l-51.7-28L552,474l-0.6,0.4l1.5,58.1l0,0.7l51.7,28L654.3,530.8
										L654.3,530.8z M553.9,475.7l47.8-29.4l49.3,26.8l1.5,56.1l-47.8,29.3l-49.3-26.8L553.9,475.7L553.9,475.7z"/>
									<polygon class="st4" points="400.8,495.1 401.8,410.7 404,410.7 402.9,495.1 									"/>
									<polygon class="st4" points="601.2,445.5 601.9,388.4 603.6,388.4 602.9,445.5 									"/>
									
										<rect x="511.5" y="592.9" transform="matrix(0.4769 -0.879 0.879 0.4769 -290.0765 782.7985)" class="st4" width="2.2" height="84.4"/>
									<polygon class="st4" points="272.3,671.2 270.9,669.6 334,618 335.3,619.7 									"/>
									
										<rect x="303.7" y="684.6" transform="matrix(0.4769 -0.879 0.879 0.4769 -474.6732 645.3011)" class="st4" width="2.2" height="73.5"/>
									<polygon class="st4" points="605.8,622.3 603.7,559.5 605.8,559.4 607.9,622.2 									"/>
									
										<rect x="678.6" y="513.4" transform="matrix(0.4769 -0.879 0.879 0.4769 -121.9817 881.6104)" class="st4" width="2.2" height="59.9"/>
								</g>
								<g>
									<path class="st4" d="M715,112.7l0.8-0.5l-2.2-84.3l0-1l-74.9-40.7l-71.8,44l-0.8,0.5l2.2,84.2l0,1l74.9,40.7L715,112.7
										L715,112.7z M569.4,32.7l69.3-42.5L710.2,29l2.1,81.3L643,152.8L571.6,114L569.4,32.7L569.4,32.7z"/>
									<path class="st4" d="M904.8,215.4l0.7-0.4l-1.8-67.4l0-0.8l-60-32.5l-57.5,35.3l-0.7,0.4l1.8,67.4l0,0.8l60,32.5
										L904.8,215.4L904.8,215.4z M788.3,151.4l55.5-34l57.2,31l1.7,65.1l-55.5,34l-57.2-31L788.3,151.4L788.3,151.4z"/>
									<path class="st4" d="M698.2,302.8l0.7-0.5L697,231l0-0.8l-63.4-34.4L572.7,233l-0.7,0.4l1.9,71.3l0,0.8l63.4,34.4
										L698.2,302.8L698.2,302.8z M574.9,235.1l58.7-36l60.5,32.8l1.8,68.8l-58.7,36l-60.5-32.8L574.9,235.1L574.9,235.1z"/>
									<path class="st4" d="M536.3,378.5l0.4-0.3l-1.1-41l0-0.5l-36.5-19.8l-35,21.5l-0.4,0.3l1.1,41l0,0.5l36.5,19.8L536.3,378.5
										L536.3,378.5z M465.4,339.6l33.8-20.7l34.8,18.9l1,39.6L501.3,398l-34.8-18.9L465.4,339.6z"/>
									<path class="st4" d="M510.5,200l0.3-0.2l-0.9-34.7l0-0.4L479,147.9l-29.6,18.1l-0.3,0.2L450,201l0,0.4l30.9,16.8L510.5,200
										L510.5,200z M450.5,167.1l28.6-17.5l29.5,16l0.9,33.5l-28.6,17.5l-29.5-16L450.5,167.1z"/>
									<path class="st4" d="M806.6,359l0.4-0.2l-1-39.7l0-0.5l-35.3-19.1l-33.8,20.7l-0.4,0.2l1,39.6l0,0.5l35.3,19.1L806.6,359
										L806.6,359z M738.1,321.4l32.6-20l33.6,18.2l1,38.3l-32.6,20l-33.6-18.2L738.1,321.4L738.1,321.4z"/>
									<path class="st4" d="M918.2,300.5l0.4-0.2l-1-39.7l0-0.5L882.2,241l-33.8,20.7L848,262l1,39.6l0,0.5l35.3,19.1L918.2,300.5
										L918.2,300.5z M849.7,262.9l32.6-20l33.6,18.2l1,38.3l-32.6,20l-33.6-18.2L849.7,262.9z"/>
									<path class="st4" d="M1019.6,95.5l0.4-0.3l-1.2-44.2l0-0.5l-39.3-21.3l-37.7,23.1l-0.4,0.3l1.2,44.2l0,0.5l39.3,21.3
										C981.9,118.6,1019.6,95.5,1019.6,95.5z M943.2,53.5l36.4-22.3l37.5,20.4l1.1,42.7l-36.4,22.3l-37.5-20.3L943.2,53.5
										L943.2,53.5z"/>
									<path class="st4" d="M891.2,26l0.6-0.4l-1.5-58.2l0-0.7l-51.7-28L789-30.9l-0.6,0.4l1.5,58.1l0,0.7l51.7,28L891.2,26
										L891.2,26z M790.8-29.2l47.8-29.4l49.3,26.8l1.5,56.1l-47.8,29.3l-49.3-26.8L790.8-29.2L790.8-29.2z"/>
									
										<rect x="748.4" y="88" transform="matrix(0.4769 -0.879 0.879 0.4769 277.6261 726.9095)" class="st4" width="2.2" height="84.4"/>
									<polygon class="st4" points="509.2,166.4 507.8,164.7 570.9,113.1 572.3,114.8 									"/>
									
										<rect x="540.6" y="179.8" transform="matrix(0.4769 -0.879 0.879 0.4769 93.0449 589.4205)" class="st4" width="2.2" height="73.5"/>
									<polygon class="st4" points="534.7,338.6 533.4,336.9 575.3,303.9 576.7,305.6 									"/>
									<polygon class="st4" points="842.7,117.4 840.6,54.6 842.7,54.6 844.8,117.4 									"/>
									
										<rect x="915.5" y="8.5" transform="matrix(0.4769 -0.879 0.879 0.4769 445.7209 825.7214)" class="st4" width="2.2" height="59.9"/>
								</g>
							</g>
							<g>
								<g>
									<path class="st4" d="M435.6,695.5l61,33.1l0.7-0.4l58.4-35.8v-0.8l-1.8-68.5l-61-33.1l-0.7,0.4l-58.4,35.9v0.8L435.6,695.5
										L435.6,695.5z M496.4,725.4l-58.1-31.5l-1.8-66.1l56.4-34.6l58.1,31.5l1.7,66.1L496.4,725.4L496.4,725.4z"/>
									<path class="st4" d="M280.9,598l48.8,26.5l0.6-0.3l46.8-28.7v-0.7l-1.5-54.8l-48.8-26.5l-0.6,0.3l-46.8,28.7v0.7L280.9,598
										L280.9,598z M329.7,621.9l-46.5-25.2l-1.4-52.9l45.1-27.7l46.5,25.2l1.4,52.9L329.7,621.9L329.7,621.9z"/>
									<path class="st4" d="M313.1,780.8l51.6,28l0.6-0.3l49.5-30.3v-0.7l-1.5-58l-51.6-28l-0.6,0.3l-49.5,30.4v0.7L313.1,780.8
										L313.1,780.8z M364.6,806.1l-49.2-26.7l-1.5-56l47.7-29.3l49.2,26.7l1.5,56L364.6,806.1L364.6,806.1z"/>
									<path class="st4" d="M225.9,706l28.7,15.6l0.3-0.2l27.5-16.9v-0.4l-0.9-32.2l-28.7-15.6l-0.3,0.2l-27.5,16.9v0.4L225.9,706
										z M254.6,720.1l-27.4-14.8l-0.8-31.1l26.5-16.3l27.4,14.8l0.8,31.1L254.6,720.1L254.6,720.1z"/>
									<path class="st4" d="M216.4,604l28.7,15.6l0.3-0.2l27.5-16.9v-0.4l-0.9-32.2l-28.7-15.6l-0.3,0.2l-27.5,16.9v0.4L216.4,604
										z M245,618.1l-27.4-14.8l-0.8-31.1l26.5-16.3l27.4,14.8l0.8,31.1L245,618.1L245,618.1z"/>
									<path class="st4" d="M311.3,447.7l32,17.4l0.4-0.2l30.7-18.8v-0.4l-1-36l-32-17.4l-0.4,0.2l-30.7,18.8v0.4L311.3,447.7
										L311.3,447.7z M343.3,463.3l-30.5-16.6l-0.9-34.7l29.6-18.2l30.5,16.6l0.9,34.7L343.3,463.3L343.3,463.3z"/>
									<path class="st4" d="M533.8,441.2l17.9,9.7l0.2-0.1l17.2-10.5V440l-0.5-20.1l-17.9-9.7l-0.2,0.1l-17.2,10.5v0.2
										L533.8,441.2L533.8,441.2z M551.7,450l-17.1-9.3l-0.5-19.4l16.6-10.2l17.1,9.3l0.5,19.4L551.7,450L551.7,450z"/>
									<path class="st4" d="M607,587.2l25.6,13.9l0.3-0.2l24.5-15.1v-0.3l-0.8-28.8L631,542.9l-0.3,0.2l-24.6,15.1v0.3L607,587.2
										L607,587.2z M632.5,599.8l-24.4-13.2l-0.7-27.8l23.7-14.5l24.4,13.2l0.7,27.8L632.5,599.8L632.5,599.8z"/>
									<path class="st4" d="M628.8,695.5l28,15.2l0.3-0.2l26.8-16.5v-0.4l-0.8-31.4l-28-15.2l-0.3,0.2L628,663.7v0.4L628.8,695.5
										L628.8,695.5z M656.7,709.2l-26.7-14.5l-0.8-30.3l25.9-15.9l26.7,14.5l0.8,30.3L656.7,709.2z"/>
									<path class="st4" d="M416,515.7l42.1,22.8l0.5-0.3l40.3-24.7v-0.6l-1.3-47.3l-42.1-22.8l-0.5,0.3l-40.3,24.8v0.6L416,515.7
										L416,515.7z M458,536.3l-40.1-21.8l-1.2-45.6l38.9-23.9l40.1,21.8l1.2,45.6L458,536.3L458,536.3z"/>
									<polygon class="st4" points="551.5,625.4 608.6,587.3 607.6,585.8 550.6,624 									"/>
									<polygon class="st4" points="496.4,466.8 535.1,441 534.3,439.8 495.7,465.6 									"/>
									
										<rect x="405.6" y="576.9" transform="matrix(0.4769 -0.879 0.879 0.4769 -324.6501 677.0391)" class="st4" width="1.8" height="68.7"/>
									<polygon class="st4" points="488.4,791.2 490.1,791.4 497.3,725.5 495.6,725.3 									"/>
									<polygon class="st4" points="373.8,542 417.6,515.6 416.7,514.1 372.9,540.6 									"/>
									
										<rect x="394.1" y="432.3" transform="matrix(0.4769 -0.879 0.879 0.4769 -194.7385 586.0535)" class="st4" width="1.8" height="48.7"/>
								</g>
								<g>
									<path class="st4" d="M674.8,310l61,33.1l0.7-0.4l58.4-35.8v-0.8l-1.8-68.5l-61-33.1l-0.7,0.4l-58.4,35.9v0.8L674.8,310z
										 M735.7,339.9l-58.1-31.5l-1.8-66.1l56.4-34.6l58.1,31.5l1.7,66.1L735.7,339.9z"/>
									<path class="st4" d="M520.1,212.5l48.8,26.5l0.5-0.3l46.8-28.7v-0.6l-1.5-54.9L566,128l-0.5,0.3L518.7,157v0.6L520.1,212.5
										L520.1,212.5z M568.9,236.4l-46.5-25.2l-1.4-52.9l45.1-27.7l46.5,25.2l1.4,52.9L568.9,236.4L568.9,236.4z"/>
									<path class="st4" d="M552.3,395.3l51.6,28l0.6-0.3l49.5-30.4V392l-1.5-58l-51.6-28l-0.6,0.3l-49.5,30.4v0.7L552.3,395.3z
										 M603.8,420.6l-49.2-26.7l-1.5-56l47.7-29.3l49.2,26.7l1.5,56L603.8,420.6L603.8,420.6z"/>
									<path class="st4" d="M571.8,514.6l29.7,16.1l0.3-0.2l28.5-17.5v-0.4l-0.9-33.4l-29.7-16.1l-0.3,0.2l-28.5,17.5v0.4
										L571.8,514.6L571.8,514.6z M601.4,529.2l-28.3-15.4l-0.8-32.2l27.5-16.9l28.3,15.4l0.8,32.2L601.4,529.2L601.4,529.2z"/>
									<path class="st4" d="M704.8,448l25.1,13.6l0.3-0.2l24.1-14.8v-0.3l-0.8-28.2l-25.1-13.6l-0.3,0.2l-24.1,14.8v0.3L704.8,448
										L704.8,448z M729.9,460.3l-24-13l-0.7-27.2l23.2-14.3l24,13l0.7,27.2L729.9,460.3z"/>
									<path class="st4" d="M465.1,320.5l28.7,15.6l0.3-0.2l27.5-16.9v-0.4l-0.9-32.2l-28.7-15.6l-0.3,0.2l-27.5,16.9v0.4
										L465.1,320.5z M493.8,334.6l-27.4-14.8l-0.8-31.1l26.5-16.3l27.4,14.8l0.8,31.1L493.8,334.6L493.8,334.6z"/>
									<path class="st4" d="M455.6,218.5l28.7,15.6l0.3-0.2l27.5-16.9v-0.4l-0.9-32.3l-28.7-15.6l-0.3,0.2l-27.5,16.9v0.4
										L455.6,218.5L455.6,218.5z M484.2,232.6l-27.4-14.8l-0.8-31.1l26.5-16.3l27.4,14.8l0.8,31.1L484.2,232.6L484.2,232.6z"/>
									<path class="st4" d="M550.5,62.2l32,17.4l0.4-0.2l30.7-18.8v-0.4l-1-36l-32-17.4l-0.4,0.2l-30.7,18.8v0.4L550.5,62.2
										L550.5,62.2z M582.5,77.8l-30.5-16.6L551,26.6l29.6-18.2L611.2,25l0.9,34.7C612.1,59.7,582.5,77.9,582.5,77.8z"/>
									<path class="st4" d="M773.1,55.7l17.9,9.7l0.2-0.1l17.2-10.5v-0.2l-0.5-20.1l-17.9-9.7l-0.2,0.1l-17.2,10.5v0.2L773.1,55.7
										L773.1,55.7z M791,64.5l-17.1-9.3l-0.5-19.4l16.6-10.2l17.1,9.3l0.5,19.4L791,64.5L791,64.5z"/>
									<path class="st4" d="M846.2,201.8l25.6,13.9l0.3-0.2l24.6-15.1v-0.3l-0.8-28.8l-25.6-13.9l-0.3,0.2l-24.6,15.1v0.3
										L846.2,201.8L846.2,201.8z M871.7,214.3l-24.4-13.2l-0.7-27.8l23.7-14.5l24.4,13.2l0.7,27.8L871.7,214.3L871.7,214.3z"/>
									<path class="st4" d="M868,310l28,15.2l0.3-0.2l26.8-16.5v-0.4l-0.8-31.4l-28-15.2l-0.3,0.2l-26.8,16.5v0.4L868,310L868,310
										z M895.9,323.8l-26.7-14.5l-0.8-30.3l25.9-15.9l26.7,14.5l0.8,30.3L895.9,323.8L895.9,323.8z"/>
									<path class="st4" d="M655.2,130.2l42.1,22.8l0.5-0.3L738,128v-0.6l-1.3-47.3l-42.1-22.8l-0.5,0.3l-40.3,24.8v0.6
										L655.2,130.2z M697.2,150.8L657.1,129l-1.2-45.6l38.9-23.9l40.1,21.8l1.2,45.6L697.2,150.8L697.2,150.8z"/>
									<polygon class="st4" points="790.7,239.9 847.8,201.8 846.8,200.3 789.8,238.5 									"/>
									<polygon class="st4" points="735.6,81.3 774.3,55.5 773.5,54.3 734.9,80.1 									"/>
									
										<rect x="644.8" y="191.4" transform="matrix(0.4769 -0.879 0.879 0.4769 139.326 685.6396)" class="st4" width="1.8" height="68.7"/>
									<polygon class="st4" points="727.6,405.7 729.3,405.9 736.5,340 734.8,339.8 									"/>
									
										<rect x="678.1" y="375.9" transform="matrix(0.4769 -0.879 0.879 0.4769 -1.4878 809.0722)" class="st4" width="1.8" height="59.8"/>
									<polygon class="st4" points="598.8,464.7 600.6,464.9 604.5,421.6 602.7,421.4 									"/>
									<polygon class="st4" points="613,156.6 656.8,130.1 655.9,128.6 612.1,155.1 									"/>
									
										<rect x="633.3" y="46.8" transform="matrix(0.4769 -0.879 0.879 0.4769 269.2375 594.6541)" class="st4" width="1.8" height="48.7"/>
								</g>
							</g>
						</g>
					</g>
					<g class="st2">
						<g>
							<g class="st3">
								<g>
									<path class="st4" d="M889.7,709.2l0.8-0.5l-2.2-84.3l0-1l-74.9-40.7l-71.8,44l-0.8,0.5l2.2,84.2l0,1l74.9,40.7L889.7,709.2
										L889.7,709.2z M744.2,629.3l69.3-42.5l71.5,38.8l2.1,81.3l-69.3,42.5l-71.5-38.8L744.2,629.3L744.2,629.3z"/>
									<path class="st4" d="M1079.6,812l0.7-0.4l-1.8-67.5l0-0.8l-60-32.5L960.9,746l-0.7,0.4l1.8,67.4l0,0.8l60,32.5L1079.6,812z
										 M963,748l55.5-34l57.2,31l1.7,65.1l-55.5,34l-57.2-31L963,748L963,748z"/>
									<path class="st4" d="M685.2,796.6l0.3-0.2l-0.9-34.7l0-0.4l-30.9-16.8l-29.6,18.2l-0.3,0.2l0.9,34.7l0,0.4l30.9,16.8
										L685.2,796.6L685.2,796.6z M625.2,763.6l28.6-17.5l29.5,16l0.9,33.5l-28.6,17.5l-29.5-16L625.2,763.6L625.2,763.6z"/>
									<path class="st4" d="M1194.4,692l0.4-0.3l-1.2-44.2l0-0.5l-39.3-21.3l-37.7,23.1l-0.4,0.3l1.2,44.2l0,0.5l39.3,21.3
										L1194.4,692L1194.4,692z M1117.9,650.1l36.4-22.3l37.5,20.3l1.1,42.7l-36.4,22.3l-37.5-20.3L1117.9,650.1L1117.9,650.1z"/>
									<path class="st4" d="M1035.3,468.5l0.2-0.1l-0.7-24.8v-0.3l-22-12l-21.1,13l-0.2,0.2l0.7,24.8v0.3l22,12L1035.3,468.5
										L1035.3,468.5z M992.5,445l20.4-12.5l21,11.4l0.6,23.9l-20.4,12.5l-21-11.4L992.5,445L992.5,445z"/>
									<path class="st4" d="M844.8,485.5l0.3-0.2l-0.9-35.4l0-0.4l-31.5-17.1l-30.2,18.5l-0.3,0.2l0.9,35.4l0,0.4l31.5,17.1
										L844.8,485.5L844.8,485.5z M783.7,451.9l29.1-17.9l30,16.3l0.9,34.2l-29.1,17.9l-30-16.3L783.7,451.9z"/>
									<path class="st4" d="M721.3,533.9l0.4-0.2l-1-38.7l0-0.5l-34.4-18.6l-33,20.2l-0.4,0.2l1,38.6l0,0.5l34.4,18.7L721.3,533.9
										z M654.6,497.2l31.8-19.5l32.8,17.8l1,37.3l-31.8,19.5l-32.8-17.8L654.6,497.2L654.6,497.2z"/>
									<path class="st4" d="M1066,622.5l0.6-0.4l-1.5-58.2l0-0.7l-51.7-28l-49.6,30.4l-0.6,0.4l1.5,58.1l0,0.7l51.7,28L1066,622.5
										L1066,622.5z M965.5,567.3l47.8-29.3l49.3,26.8l1.5,56.1l-47.8,29.3L967,623.4L965.5,567.3z"/>
									<polygon class="st4" points="812.4,586.8 813.5,502.4 815.7,502.4 814.6,586.8 									"/>
									<polygon class="st4" points="1012.8,537.2 1013.5,480.1 1015.3,480 1014.6,537.2 									"/>
									
										<rect x="923.2" y="684.6" transform="matrix(0.4769 -0.879 0.879 0.4769 -155.272 1192.6107)" class="st4" width="2.2" height="84.4"/>
									<polygon class="st4" points="683.9,762.9 682.6,761.2 745.7,709.7 747,711.3 									"/>
									<polygon class="st4" points="1017.5,714 1015.4,651.2 1017.5,651.1 1019.6,713.9 									"/>
									
										<rect x="1090.2" y="605" transform="matrix(0.4769 -0.879 0.879 0.4769 12.8089 1291.4191)" class="st4" width="2.2" height="59.9"/>
								</g>
								<g>
									<path class="st4" d="M1126.6,204.3l0.8-0.5l-2.2-84.3l0-1l-74.9-40.7l-71.8,44l-0.8,0.5l2.2,84.2l0,1l74.9,40.7
										L1126.6,204.3L1126.6,204.3z M981.1,124.4l69.3-42.5l71.4,38.8l2.1,81.3l-69.3,42.5l-71.4-38.8
										C983.3,205.7,981.1,124.4,981.1,124.4z"/>
									<path class="st4" d="M1316.4,307.1l0.7-0.4l-1.8-67.4l0-0.8l-60-32.5l-57.5,35.3l-0.7,0.4l1.8,67.4l0,0.8l60,32.5
										L1316.4,307.1L1316.4,307.1z M1199.9,243.1l55.5-34l57.2,31l1.7,65.1l-55.5,34l-57.2-31L1199.9,243.1L1199.9,243.1z"/>
									<path class="st4" d="M1109.8,394.4l0.7-0.5l-1.9-71.4l0-0.8l-63.4-34.4l-60.8,37.3l-0.7,0.5l1.9,71.3l0,0.8l63.4,34.4
										L1109.8,394.4L1109.8,394.4z M986.6,326.8l58.7-36l60.5,32.8l1.8,68.8l-58.7,36l-60.5-32.8L986.6,326.8L986.6,326.8z"/>
									<path class="st4" d="M948,470.2l0.4-0.3l-1.1-41l0-0.5l-36.5-19.8l-35,21.5l-0.4,0.3l1.1,41l0,0.5l36.5,19.8L948,470.2
										L948,470.2z M877.1,431.2l33.8-20.7l34.8,18.9l1,39.6L913,489.7l-34.8-18.9L877.1,431.2z"/>
									<path class="st4" d="M922.1,291.7l0.3-0.2l-0.9-34.7l0-0.4l-30.9-16.8l-29.6,18.1l-0.4,0.2l0.9,34.7l0,0.4l30.9,16.8
										L922.1,291.7L922.1,291.7z M862.2,258.8l28.6-17.5l29.5,16l0.9,33.5l-28.6,17.5l-29.4-16L862.2,258.8z"/>
									<path class="st4" d="M1218.3,450.7l0.4-0.2l-1-39.7l0-0.5l-35.3-19.1l-33.8,20.7l-0.4,0.2l1,39.6l0,0.5l35.3,19.1
										L1218.3,450.7L1218.3,450.7z M1149.8,413.1l32.6-20l33.6,18.2l1,38.3l-32.6,20l-33.6-18.2L1149.8,413.1L1149.8,413.1z"/>
									<path class="st4" d="M1329.8,392.1l0.4-0.2l-1-39.7l0-0.5l-35.3-19.1l-33.8,20.7l-0.4,0.2l1,39.6l0,0.5l35.3,19.1
										L1329.8,392.1L1329.8,392.1z M1261.3,354.5l32.6-20l33.6,18.2l1,38.3l-32.6,20l-33.6-18.2L1261.3,354.5L1261.3,354.5z"/>
									<path class="st4" d="M1431.3,187.2l0.4-0.3l-1.2-44.2l0-0.5l-39.3-21.3l-37.7,23.1l-0.4,0.3l1.2,44.2l0,0.5l39.3,21.3
										L1431.3,187.2z M1354.8,145.2l36.4-22.3l37.5,20.4l1.1,42.7l-36.4,22.3l-37.5-20.4L1354.8,145.2L1354.8,145.2z"/>
									<path class="st4" d="M958.2,29l0.4-0.2l-1-38.7l0-0.4L923.2-29l-33,20.2l-0.4,0.2l1,38.6l0,0.5l34.4,18.6L958.2,29
										L958.2,29z M891.5-7.7l31.8-19.5l32.8,17.8l1,37.3l-31.8,19.5l-32.8-17.8C892.5,29.6,891.5-7.6,891.5-7.7z"/>
									<path class="st4" d="M1302.9,117.6l0.6-0.4l-1.5-58.2l0-0.7l-51.7-28l-49.6,30.4l-0.6,0.4l1.5,58.1l0,0.7l51.7,28.1
										L1302.9,117.6L1302.9,117.6z M1202.5,62.4l47.8-29.3l49.3,26.8l1.5,56.1l-47.8,29.3l-49.3-26.8L1202.5,62.4L1202.5,62.4z"
										/>
									<polygon class="st4" points="1049.3,81.9 1050.4,-2.5 1052.6,-2.5 1051.5,81.9 									"/>
									<polygon class="st4" points="1249.7,32.3 1250.4,-24.8 1252.2,-24.8 1251.5,32.3 									"/>
									
										<rect x="1160.1" y="179.7" transform="matrix(0.4769 -0.879 0.879 0.4769 412.4307 1136.7217)" class="st4" width="2.2" height="84.4"/>
									<polygon class="st4" points="920.8,258 919.5,256.4 982.6,204.8 983.9,206.5 									"/>
									
										<rect x="952.3" y="271.4" transform="matrix(0.4769 -0.879 0.879 0.4769 227.8354 999.2292)" class="st4" width="2.2" height="73.5"/>
									<polygon class="st4" points="946.4,430.2 945,428.6 987,395.5 988.4,397.2 									"/>
									<polygon class="st4" points="1254.4,209.1 1252.3,146.3 1254.4,146.2 1256.5,209 									"/>
									
										<rect x="1327.1" y="100.2" transform="matrix(0.4769 -0.879 0.879 0.4769 580.5115 1235.53)" class="st4" width="2.2" height="59.9"/>
								</g>
							</g>
							<g>
								<g>
									<path class="st4" d="M847.2,787.2l61,33.1l0.7-0.4l58.4-35.8v-0.8l-1.8-68.5l-60.9-33.1l-0.7,0.4l-58.4,35.9v0.8
										L847.2,787.2L847.2,787.2z M908.1,817.1L850,785.5l-1.8-66.1l56.4-34.6l58.1,31.5l1.7,66.1L908.1,817.1L908.1,817.1z"/>
									<path class="st4" d="M692.6,689.7l48.8,26.5l0.5-0.3l46.8-28.7v-0.7l-1.5-54.8l-48.8-26.5l-0.5,0.3l-46.8,28.7v0.7
										L692.6,689.7L692.6,689.7z M741.3,713.6l-46.5-25.2l-1.4-52.9l45.1-27.7L785,633l1.4,52.9L741.3,713.6L741.3,713.6z"/>
									<path class="st4" d="M637.6,797.7l28.7,15.6l0.3-0.2l27.5-16.9v-0.4l-0.9-32.2L664.6,748l-0.3,0.2l-27.5,16.9v0.4
										L637.6,797.7z M666.3,811.8l-27.4-14.8l-0.8-31.1l26.5-16.3l27.4,14.8l0.8,31.1L666.3,811.8L666.3,811.8z"/>
									<path class="st4" d="M628.1,695.7l28.7,15.6l0.3-0.2l27.5-16.9v-0.4l-0.9-32.2L655,646l-0.3,0.2l-27.5,16.9v0.4
										L628.1,695.7z M656.7,709.7l-27.4-14.8l-0.8-31.1l26.5-16.3l27.4,14.8l0.8,31.1L656.7,709.7L656.7,709.7z"/>
									<path class="st4" d="M723,539.3l32,17.4l0.4-0.2l30.7-18.8v-0.4l-1-36l-32-17.4l-0.4,0.2L722,502.9v0.4L723,539.3
										L723,539.3z M754.9,555l-30.5-16.6l-0.9-34.7l29.6-18.2l30.5,16.6l0.9,34.7L754.9,555L754.9,555z"/>
									<path class="st4" d="M945.5,532.8l17.9,9.7l0.2-0.1l17.2-10.5v-0.2l-0.5-20.1l-17.9-9.7l-0.2,0.1L945,512.5v0.2
										L945.5,532.8L945.5,532.8z M963.4,541.6l-17.1-9.3l-0.5-19.4l16.6-10.2l17.1,9.3l0.5,19.4L963.4,541.6L963.4,541.6z"/>
									<path class="st4" d="M1018.6,678.9l25.6,13.9l0.3-0.2l24.5-15.1v-0.3l-0.8-28.8l-25.6-13.9l-0.3,0.2l-24.6,15.1v0.3
										L1018.6,678.9L1018.6,678.9z M1044.2,691.5l-24.4-13.2l-0.7-27.8l23.7-14.5l24.4,13.2l0.7,27.8L1044.2,691.5L1044.2,691.5z
										"/>
									<path class="st4" d="M1040.5,787.2l28,15.2l0.3-0.2l26.8-16.5v-0.4l-0.8-31.4l-28-15.2l-0.3,0.2l-26.8,16.5v0.4
										L1040.5,787.2L1040.5,787.2z M1068.4,800.9l-26.7-14.5l-0.8-30.3l25.9-15.9l26.7,14.5l0.8,30.3L1068.4,800.9z"/>
									<path class="st4" d="M827.6,607.3l42.1,22.8l0.5-0.3l40.3-24.7v-0.6l-1.3-47.3l-42.1-22.8l-0.5,0.3l-40.3,24.8v0.6
										L827.6,607.3L827.6,607.3z M869.7,627.9l-40.1-21.8l-1.2-45.6l38.9-23.9l40.1,21.8l1.2,45.6L869.7,627.9z"/>
									<polygon class="st4" points="963.2,717.1 1020.3,678.9 1019.3,677.5 962.2,715.6 									"/>
									<polygon class="st4" points="908.1,558.5 946.8,532.6 946,531.4 907.4,557.3 									"/>
									
										<rect x="817.2" y="668.6" transform="matrix(0.4769 -0.879 0.879 0.4769 -189.8595 1086.8477)" class="st4" width="1.8" height="68.7"/>
									<polygon class="st4" points="785.5,633.7 829.3,607.3 828.4,605.8 784.6,632.2 									"/>
									
										<rect x="805.8" y="523.9" transform="matrix(0.4769 -0.879 0.879 0.4769 -59.9479 995.8621)" class="st4" width="1.8" height="48.7"/>
								</g>
								<g>
									<path class="st4" d="M1086.5,401.7l61,33.1l0.7-0.4l58.4-35.8v-0.8l-1.8-68.5l-60.9-33.1l-0.7,0.4l-58.4,35.9v0.8
										L1086.5,401.7z M1147.3,431.6l-58.1-31.5l-1.8-66.1l56.4-34.6l58.1,31.5l1.7,66.1L1147.3,431.6L1147.3,431.6z"/>
									<path class="st4" d="M931.8,304.2l48.8,26.5l0.6-0.3l46.8-28.7V301l-1.5-54.9l-48.8-26.5l-0.5,0.3l-46.8,28.7v0.6
										L931.8,304.2z M980.5,328.1L934,302.9l-1.4-52.9l45.1-27.7l46.5,25.2l1.4,52.9L980.5,328.1L980.5,328.1z"/>
									<path class="st4" d="M964,487l51.6,28l0.6-0.3l49.5-30.4v-0.7l-1.5-58l-51.6-28l-0.6,0.3l-49.5,30.4v0.7L964,487L964,487z
										 M1015.5,512.3l-49.2-26.7l-1.5-56l47.7-29.3l49.2,26.7l1.5,56L1015.5,512.3L1015.5,512.3z"/>
									<path class="st4" d="M983.5,606.3l29.7,16.1l0.3-0.2l28.5-17.5v-0.4l-0.9-33.4l-29.7-16.1l-0.3,0.2l-28.5,17.5v0.4
										L983.5,606.3L983.5,606.3z M1013.1,620.8l-28.3-15.4l-0.9-32.2l27.5-16.9l28.3,15.4l0.9,32.2L1013.1,620.8L1013.1,620.8z"
										/>
									<path class="st4" d="M1116.5,539.7l25.1,13.6l0.3-0.2l24.1-14.8V538l-0.8-28.2l-25.1-13.6l-0.3,0.2l-24.1,14.8v0.3
										L1116.5,539.7L1116.5,539.7z M1141.6,552l-24-13l-0.7-27.2l23.2-14.3l24,13l0.7,27.2L1141.6,552L1141.6,552z"/>
									<path class="st4" d="M876.8,412.2l28.7,15.6l0.3-0.2l27.5-16.9v-0.4l-0.9-32.2l-28.7-15.6l-0.3,0.2L876,379.6v0.4
										L876.8,412.2z M905.5,426.3l-27.4-14.8l-0.8-31.1l26.5-16.3l27.4,14.8L932,410L905.5,426.3L905.5,426.3z"/>
									<path class="st4" d="M867.3,310.2l28.7,15.6l0.3-0.2l27.5-16.9v-0.4l-0.9-32.3l-28.7-15.6l-0.3,0.2l-27.5,16.9v0.4
										L867.3,310.2L867.3,310.2z M895.9,324.2l-27.4-14.8l-0.8-31.1l26.5-16.3l27.4,14.8l0.8,31.1L895.9,324.2L895.9,324.2z"/>
									<path class="st4" d="M962.2,153.8l32,17.4l0.4-0.2l30.7-18.8v-0.4l-1-36l-32-17.4l-0.4,0.2l-30.7,18.8v0.4L962.2,153.8
										L962.2,153.8z M994.1,169.5L963.6,153l-0.9-34.7l29.6-18.2l30.5,16.6l0.9,34.7L994.1,169.5z"/>
									<path class="st4" d="M1184.7,147.4l17.9,9.7l0.2-0.1l17.2-10.5v-0.2l-0.5-20.2l-17.9-9.7l-0.2,0.1l-17.2,10.5v0.2
										L1184.7,147.4L1184.7,147.4z M1202.6,156.1l-17.1-9.3l-0.5-19.4l16.6-10.2l17.1,9.3l0.5,19.4L1202.6,156.1L1202.6,156.1z"
										/>
									<path class="st4" d="M1257.8,293.4l25.6,13.9l0.3-0.2l24.6-15.1v-0.3l-0.8-28.8l-25.6-13.9l-0.3,0.2l-24.6,15.1v0.3
										L1257.8,293.4L1257.8,293.4z M1283.4,306l-24.4-13.2l-0.7-27.8l23.7-14.5l24.4,13.3l0.7,27.8L1283.4,306L1283.4,306z"/>
									<path class="st4" d="M1279.7,401.7l28,15.2l0.3-0.2l26.8-16.5v-0.4l-0.8-31.4l-28-15.2l-0.3,0.2l-26.8,16.5v0.4
										L1279.7,401.7L1279.7,401.7z M1307.6,415.4l-26.7-14.5l-0.8-30.3l25.9-15.9l26.7,14.5l0.8,30.3
										C1333.5,399.6,1307.6,415.4,1307.6,415.4z"/>
									<path class="st4" d="M1066.8,221.8l42.1,22.8l0.5-0.3l40.3-24.7v-0.6l-1.3-47.3l-42.1-22.8l-0.5,0.3l-40.3,24.8v0.6
										L1066.8,221.8L1066.8,221.8z M1108.9,242.4l-40.1-21.8l-1.2-45.6l38.9-23.9l40.1,21.8l1.2,45.6L1108.9,242.4z"/>
									<polygon class="st4" points="1202.4,331.6 1259.5,293.4 1258.5,292 1201.5,330.2 									"/>
									<polygon class="st4" points="1147.3,173 1186,147.1 1185.2,145.9 1146.6,171.8 									"/>
									
										<rect x="1056.4" y="283.1" transform="matrix(0.4769 -0.879 0.879 0.4769 274.1063 1095.4487)" class="st4" width="1.8" height="68.6"/>
									<polygon class="st4" points="1139.3,497.4 1141,497.5 1148.2,431.6 1146.5,431.5 									"/>
									
										<rect x="1089.7" y="467.5" transform="matrix(0.4769 -0.879 0.879 0.4769 133.3115 1218.8756)" class="st4" width="1.8" height="59.8"/>
									<polygon class="st4" points="1010.5,556.3 1012.3,556.5 1016.2,513.2 1014.4,513.1 									"/>
									<polygon class="st4" points="1024.7,248.2 1068.5,221.8 1067.6,220.3 1023.8,246.7 									"/>
									
										<rect x="1045" y="138.5" transform="matrix(0.4769 -0.879 0.879 0.4769 404.0262 1004.4478)" class="st4" width="1.8" height="48.7"/>
								</g>
							</g>
						</g>
					</g>
					<g class="st2">
						<g>
							<g class="st3">
								<g>
									<path class="st4" d="M1371.3,555.4l0.8-0.5l-2.2-84.3l0-1l-74.9-40.6l-71.8,44l-0.8,0.5l2.2,84.2l0,1l74.9,40.7
										L1371.3,555.4L1371.3,555.4z M1225.8,475.4l69.3-42.5l71.4,38.8l2.1,81.3l-69.3,42.5l-71.5-38.8L1225.8,475.4L1225.8,475.4
										z"/>
									<path class="st4" d="M1354.5,745.5l0.7-0.5l-1.9-71.3l0-0.8l-63.4-34.4l-60.8,37.3l-0.7,0.5l1.9,71.3l0,0.8l63.4,34.4
										L1354.5,745.5L1354.5,745.5z M1231.3,677.8l58.7-36l60.5,32.8l1.8,68.8l-58.7,36l-60.5-32.8L1231.3,677.8L1231.3,677.8z"/>
									<path class="st4" d="M1192.7,821.2l0.4-0.3l-1.1-41l0-0.5l-36.5-19.8l-35,21.5l-0.4,0.3l1.1,41l0,0.5l36.5,19.8
										L1192.7,821.2L1192.7,821.2z M1121.8,782.3l33.8-20.7l34.8,18.9l1,39.6l-33.8,20.7l-34.8-18.9L1121.8,782.3z"/>
									<path class="st4" d="M1166.8,642.8l0.3-0.2l-0.9-34.7l0-0.4l-30.9-16.8l-29.6,18.2l-0.4,0.2l0.9,34.7l0,0.4l30.9,16.8
										L1166.8,642.8L1166.8,642.8z M1106.9,609.8l28.6-17.5l29.5,16l0.9,33.5l-28.6,17.5l-29.4-16L1106.9,609.8z"/>
									<path class="st4" d="M1326.4,331.7l0.3-0.2l-0.9-35.4l0-0.4l-31.5-17.1l-30.2,18.5l-0.3,0.2l0.9,35.4l0,0.4l31.5,17.1
										L1326.4,331.7L1326.4,331.7z M1265.3,298.1l29.1-17.9l30,16.3l0.9,34.2l-29.1,17.9l-30-16.3
										C1266.2,332.3,1265.3,298.1,1265.3,298.1z"/>
									<path class="st4" d="M1203,380.1l0.4-0.2l-1-38.7l0-0.5l-34.4-18.6l-33,20.2l-0.4,0.2l1,38.6l0,0.5l34.4,18.6L1203,380.1
										L1203,380.1z M1136.2,343.4l31.8-19.5l32.8,17.8l1,37.3l-31.8,19.5l-32.8-17.8L1136.2,343.4L1136.2,343.4z"/>
									<polygon class="st4" points="1294.1,432.9 1295.1,348.5 1297.3,348.5 1296.2,432.9 									"/>
									<polygon class="st4" points="1165.6,609.1 1164.2,607.4 1227.3,555.8 1228.7,557.5 									"/>
									
										<rect x="1197" y="622.5" transform="matrix(0.4769 -0.879 0.879 0.4769 47.2888 1397.9829)" class="st4" width="2.2" height="73.5"/>
									<polygon class="st4" points="1191.1,781.3 1189.8,779.6 1231.7,746.6 1233.1,748.3 									"/>
								</g>
							</g>
							<g>
								<path class="st4" d="M1331.2,752.8l60.9,33.1l0.7-0.4l58.4-35.8v-0.8l-1.8-68.5l-61-33.1l-0.7,0.4l-58.4,35.9v0.8
									C1329.3,684.3,1331.2,752.8,1331.2,752.8z M1392,782.6l-58.1-31.5l-1.8-66.1l56.4-34.6l58.1,31.5l1.7,66.1L1392,782.6
									L1392,782.6z"/>
								<path class="st4" d="M1176.5,655.2l48.8,26.5l0.5-0.3l46.8-28.7V652l-1.5-54.8l-48.8-26.5l-0.6,0.3l-46.8,28.7v0.7
									L1176.5,655.2L1176.5,655.2z M1225.2,679.1l-46.5-25.2l-1.4-52.9l45.1-27.7l46.5,25.2l1.4,52.9L1225.2,679.1L1225.2,679.1z"
									/>
								<path class="st4" d="M1208.7,838l51.6,28l0.6-0.3l49.5-30.3v-0.7l-1.5-58l-51.6-28l-0.6,0.3l-49.5,30.4v0.7L1208.7,838z
									 M1260.2,863.3l-49.2-26.7l-1.5-56l47.7-29.3l49.2,26.7l1.5,56L1260.2,863.3L1260.2,863.3z"/>
								<path class="st4" d="M1121.5,763.3l28.7,15.6l0.3-0.2l27.5-16.9v-0.4l-0.9-32.2l-28.7-15.6l-0.3,0.2l-27.5,16.9v0.4
									L1121.5,763.3z M1150.2,777.3l-27.4-14.8l-0.8-31.1l26.5-16.3l27.4,14.8l0.8,31.1L1150.2,777.3L1150.2,777.3z"/>
								<path class="st4" d="M1112,661.2l28.7,15.6l0.3-0.2l27.5-16.9v-0.4l-0.9-32.3l-28.7-15.6l-0.3,0.2l-27.5,16.9v0.4
									L1112,661.2L1112,661.2z M1140.6,675.3l-27.4-14.8l-0.8-31.1L1139,613l27.4,14.8l0.8,31.1L1140.6,675.3z"/>
								<path class="st4" d="M1206.9,504.9l32,17.4l0.4-0.2l30.7-18.8v-0.4l-1-36l-32-17.4l-0.4,0.2l-30.7,18.8v0.4L1206.9,504.9
									L1206.9,504.9z M1238.8,520.6l-30.5-16.6l-0.9-34.7l29.6-18.2l30.5,16.6l0.9,34.7L1238.8,520.6L1238.8,520.6z"/>
								<path class="st4" d="M1311.6,572.9l42.1,22.8l0.5-0.3l40.3-24.7v-0.6l-1.3-47.3l-42.1-22.8l-0.5,0.3l-40.3,24.8v0.6
									L1311.6,572.9z M1353.6,593.5l-40.1-21.8l-1.2-45.6l38.9-23.9l40.1,21.8l1.2,45.6L1353.6,593.5z"/>
								
									<rect x="1301.2" y="634.2" transform="matrix(0.4769 -0.879 0.879 0.4769 93.5695 1494.1919)" class="st4" width="1.8" height="68.7"/>
								<polygon class="st4" points="1269.4,599.3 1313.2,572.8 1312.3,571.3 1268.5,597.8 								"/>
								
									<rect x="1289.7" y="489.5" transform="matrix(0.4769 -0.879 0.879 0.4769 223.481 1403.2063)" class="st4" width="1.8" height="48.7"/>
							</g>
						</g>
					</g>
				</g>
			</g>
		</g>
		<g>
			<defs>
				<rect id="SVGID_00000134210941689429046190000007729724497159605644_" x="0" width="428.8" height="768"/>
			</defs>
			<clipPath id="SVGID_00000072987723179279463720000013381835278213576858_">
				<use xlink:href="#SVGID_00000134210941689429046190000007729724497159605644_"  style="overflow:visible;"/>
			</clipPath>
			<g style="clip-path:url(#SVGID_00000072987723179279463720000013381835278213576858_);">
				<g id="TRAMA">
					<g>
						<g class="st3">
							<g>
								<path class="st7" d="M22.2,459.6l-35.6-26l0.1-0.5l4.7-43.3l0.5-0.2L31.7,372l35.6,26l-0.1,0.5l-4.7,43.4l-0.5,0.2
									L22.2,459.6z M-11.5,432.8l33.9,24.8l38.5-17l4.5-41.8L31.4,374L-7,391L-11.5,432.8z"/>
								<path class="st7" d="M39.8,508l-20.9-15.3l0-0.3l2.8-25.5l0.3-0.1l23.4-10.4l20.9,15.3l0,0.3l-2.8,25.5l-0.3,0.1L39.8,508z
									 M20,492.2l20,14.6l22.6-10l2.7-24.6l-20-14.6l-22.6,10L20,492.2z"/>
								<path class="st7" d="M119.8,386.7l-23.3-17.1l0-0.3l3.1-28.4l0.3-0.1l26.2-11.5l23.3,17.1l0,0.3l-3.1,28.4l-0.3,0.1
									L119.8,386.7L119.8,386.7z M97.7,369.1l22.3,16.3l25.2-11.1l3-27.4l-22.3-16.3l-25.2,11.2L97.7,369.1L97.7,369.1z"/>
								<path class="st7" d="M48.8,224.7l-13.1-9.6l0-0.2l1.7-15.9l0.2-0.1l14.6-6.5l13.1,9.6l0,0.2l-1.7,15.9l-0.2,0.1L48.8,224.7
									L48.8,224.7z M36.4,214.9l12.5,9.1l14.1-6.2l1.7-15.4l-12.5-9.1L38,199.5L36.4,214.9L36.4,214.9z"/>
								<path class="st7" d="M35.4,334.7L4.7,312.3l0-0.4l4-37.4l0.4-0.2l34.4-15.2l30.7,22.4l0,0.4l-4.1,37.4l-0.4,0.2L35.4,334.7
									L35.4,334.7z M6.3,311.6L35.6,333l33.2-14.6l3.9-36.1l-29.3-21.4l-33.2,14.7L6.3,311.6L6.3,311.6z"/>
								<polygon class="st7" points="43.1,260.3 48.5,223.8 49.6,223.9 44.2,260.5 								"/>
								<polygon class="st7" points="30.8,373.9 34.8,333.5 36.2,333.7 32.2,374.1 								"/>
								
									<rect x="84.2" y="310.4" transform="matrix(0.59 -0.8074 0.8074 0.59 -231.464 203.7055)" class="st7" width="1.4" height="38.7"/>
							</g>
							<g>
								<path class="st7" d="M94.9,79L50.5,46.5l0.1-0.6l5.8-54.1L57-8.6l49.8-22l44.5,32.5l-0.1,0.6l-5.9,54.2l-0.6,0.3L94.9,79
									L94.9,79z M52.8,45.4l42.4,31l48.1-21.2L148.9,3l-42.4-31L58.4-6.8L52.8,45.4z"/>
								<path class="st7" d="M217.5,156.8l-35.6-26l0.1-0.5l4.7-43.3l0.5-0.2L227,69.1l35.6,26l-0.1,0.5l-4.7,43.3l-0.5,0.2
									L217.5,156.8L217.5,156.8z M183.8,130l33.9,24.8l38.5-17l4.5-41.8l-33.9-24.8l-38.5,17L183.8,130z"/>
								<path class="st7" d="M75.4,195.9l-37.7-27.5l0.1-0.5l5-45.8l0.5-0.2l42.2-18.6l37.7,27.5l-0.1,0.5l-5,45.8l-0.5,0.2
									L75.4,195.9L75.4,195.9z M39.7,167.5l35.9,26.2l40.7-18l4.8-44.2l-35.9-26.2l-40.7,18L39.7,167.5L39.7,167.5z"/>
								<path class="st7" d="M-16.9,222.5l-21.7-15.8l0-0.3l2.8-26.4l0.3-0.1l24.3-10.7L10.5,185l0,0.3l-2.9,26.4l-0.3,0.1
									L-16.9,222.5L-16.9,222.5z M-37.4,206.2l20.7,15.1l23.4-10.3l2.8-25.4l-20.7-15.1l-23.4,10.4L-37.4,206.2L-37.4,206.2z"/>
								<path class="st7" d="M-14.3,104.3l-18.3-13.4l0-0.3l2.4-22.3l0.2-0.1l20.5-9.1L8.9,72.6l0,0.3L6.4,95.2l-0.2,0.1
									L-14.3,104.3z M-31.7,90.5l17.5,12.8l19.8-8.8L7.9,73L-9.5,60.2L-29.4,69L-31.7,90.5z"/>
								<path class="st7" d="M158.7,233l-20.9-15.3l0-0.3l2.8-25.5l0.3-0.1l23.4-10.4l20.9,15.3l0,0.3l-2.8,25.5l-0.3,0.1L158.7,233
									L158.7,233z M138.9,217.2l20,14.6l22.6-10l2.7-24.6l-20-14.6l-22.6,10L138.9,217.2L138.9,217.2z"/>
								<path class="st7" d="M235.2,205.2l-20.9-15.3l0-0.3l2.8-25.5l0.3-0.1l23.4-10.4l20.9,15.3l0,0.3l-2.8,25.5l-0.3,0.1
									L235.2,205.2L235.2,205.2z M215.4,189.4l20,14.6l22.6-10l2.7-24.6l-20-14.6l-22.6,10L215.4,189.4L215.4,189.4z"/>
								<path class="st7" d="M315.1,83.8l-23.3-17.1l0-0.3l3.1-28.4l0.3-0.1l26.2-11.5l23.3,17.1l0,0.3l-3.1,28.4l-0.3,0.1
									L315.1,83.8L315.1,83.8z M293,66.2l22.3,16.3l25.2-11.2l3-27.4l-22.3-16.3L296,38.8L293,66.2L293,66.2z"/>
								<path class="st7" d="M230.7,31.9L200,9.4l0-0.4l4-37.4l0.4-0.2l34.4-15.2l30.7,22.4l0,0.4l-4.1,37.4l-0.4,0.2L230.7,31.9z
									 M201.6,8.7l29.3,21.4l33.2-14.6l3.9-36.1L238.7-42l-33.2,14.7L201.6,8.7L201.6,8.7z"/>
								
									<rect x="164.6" y="44" transform="matrix(0.59 -0.8074 0.8074 0.59 10.2025 162.6572)" class="st7" width="1.4" height="54.5"/>
								<polygon class="st7" points="8.3,73.6 7.6,72.4 52.4,44.8 53.2,46 								"/>
								
									<rect x="24" y="84.9" transform="matrix(0.59 -0.8074 0.8074 0.59 -77.5544 64.5038)" class="st7" width="1.4" height="47.5"/>
								<polygon class="st7" points="9.8,186.1 9.1,184.9 38.8,167.4 39.5,168.6 								"/>
								<polygon class="st7" points="226.1,71.1 230.2,30.7 231.6,30.8 227.5,71.2 								"/>
								
									<rect x="279.5" y="7.6" transform="matrix(0.59 -0.8074 0.8074 0.59 93.1356 237.2452)" class="st7" width="1.4" height="38.7"/>
							</g>
						</g>
						<g>
							<g>
								<path class="st7" d="M1.8,238.8l0-0.1l11.9-5.3l0.1-0.1l10.6,7.8L23.1,254l0,0.1l-11.9,5.3l-0.1,0.1l-10.6-7.8L1.8,238.8
									L1.8,238.8z M22.5,253.8l1.3-12.5l-10.1-7.4L2.3,239l-1.3,12.5l10.1,7.4L22.5,253.8z"/>
								<path class="st7" d="M36.5,333.1l0-0.2l17-7.5l0.2-0.1L69,336.4l-2,18.5l0,0.2l-17,7.5l-0.2,0.1l-15.2-11.1L36.5,333.1
									L36.5,333.1z M66.3,354.6l1.9-17.9l-14.5-10.6l-16.4,7.3l-1.9,17.9l14.5,10.6L66.3,354.6L66.3,354.6z"/>
								<path class="st7" d="M41.4,402.6l0-0.2l18.6-8.2l0.2-0.1l16.6,12.1l-2.2,20.2l0,0.2L56,434.9l-0.2,0.1l-16.6-12.1
									L41.4,402.6L41.4,402.6z M73.8,426.1l2.1-19.5L60.1,395l-17.9,7.9L40,422.4L55.9,434L73.8,426.1L73.8,426.1z"/>
								<polygon class="st7" points="-4.2,371.2 35.6,351.7 35.1,350.7 -4.7,370.2 								"/>
								<polygon class="st7" points="-25.8,264.9 1.2,251.7 0.8,250.9 -26.2,264.1 								"/>
							</g>
							<g>
								<path class="st7" d="M106.7,135.9l0.1-0.5l40.5-17.9l0.5-0.2l36.2,26.4l-4.8,44l-0.1,0.5l-40.5,17.9l-0.5,0.2l-36.2-26.4
									L106.7,135.9L106.7,135.9z M177.4,187l4.6-42.5l-34.5-25.2l-39.1,17.3l-4.6,42.5l34.5,25.2L177.4,187L177.4,187z"/>
								<path class="st7" d="M15.1,68.9l0.1-0.4l32.4-14.3l0.4-0.2l29,21.2l-3.8,35.2l-0.1,0.4l-32.4,14.3l-0.4,0.2l-29-21.2
									L15.1,68.9L15.1,68.9z M71.8,109.8l3.7-34L47.8,55.6L16.5,69.4l-3.7,34l27.6,20.2C40.5,123.6,71.8,109.8,71.8,109.8z"/>
								<path class="st7" d="M20.2,186.7l0.1-0.4l34.3-15.2l0.4-0.2l30.6,22.4l-4,37.3l-0.1,0.4l-34.3,15.2l-0.4,0.2L16.1,224
									L20.2,186.7L20.2,186.7z M80.1,230l3.9-36l-29.2-21.4l-33.1,14.6l-3.9,36L47,244.6L80.1,230L80.1,230z"/>
								<path class="st7" d="M20.6,280.6l0-0.2l19.7-8.7l0.2-0.1l17.6,12.9l-2.3,21.5l0,0.2l-19.7,8.7l-0.2,0.1L18.3,302L20.6,280.6
									L20.6,280.6z M55.1,305.5l2.2-20.7l-16.8-12.3l-19.1,8.4l-2.2,20.7L36,313.9L55.1,305.5L55.1,305.5z"/>
								<path class="st7" d="M111.2,252.7l0-0.2l16.7-7.4l0.2-0.1l14.9,10.9l-2,18.1l0,0.2l-16.7,7.4l-0.2,0.1l-14.9-10.9
									L111.2,252.7L111.2,252.7z M140.4,273.8l1.9-17.5L128,245.9l-16.1,7.1l-1.9,17.5l14.2,10.4L140.4,273.8z"/>
								<path class="st7" d="M-31,147.8l0-0.2l19.1-8.4l0.2-0.1l17,12.4l-2.2,20.7l0,0.2l-19.1,8.4l-0.2,0.1l-17-12.4L-31,147.8
									L-31,147.8z M2.3,171.9l2.2-20L-11.8,140l-18.4,8.1l-2.2,20l16.2,11.9L2.3,171.9L2.3,171.9z"/>
								<path class="st7" d="M-28.3,81.6l0-0.2L-9.2,73l0.2-0.1l17,12.4l-2.2,20.7l0,0.2l-19.1,8.4l-0.2,0.1l-17-12.4L-28.3,81.6
									L-28.3,81.6z M5,105.7l2.2-20L-9.1,73.8L-27.5,82l-2.2,20l16.2,11.9L5,105.7L5,105.7z"/>
								<path class="st7" d="M46.3-12.7l0-0.3l21.3-9.4l0.2-0.1l19,13.9l-2.5,23.1l0,0.3L63,24.2l-0.2,0.1l-19-13.9L46.3-12.7
									L46.3-12.7z M83.4,14.2l2.4-22.3L67.7-21.4l-20.5,9.1L44.8,10l18.1,13.2L83.4,14.2L83.4,14.2z"/>
								<path class="st7" d="M188.2,12.6l0-0.1l11.9-5.3l0.1-0.1l10.6,7.8l-1.4,13l0,0.1l-11.9,5.3l-0.1,0.1l-10.6-7.8L188.2,12.6
									L188.2,12.6z M209,27.6l1.3-12.5l-10.1-7.4l-11.5,5.1l-1.3,12.5l10.1,7.4C197.5,32.7,209,27.6,209,27.6z"/>
								<path class="st7" d="M223,106.9l0-0.2l17-7.5l0.2-0.1l15.2,11.1l-2,18.5l0,0.2l-17,7.5l-0.2,0.1L221,125.4L223,106.9
									L223,106.9z M252.8,128.4l1.9-17.9l-14.5-10.6l-16.4,7.3l-1.9,17.8l14.5,10.6L252.8,128.4L252.8,128.4z"/>
								<path class="st7" d="M227.9,176.4l0-0.2l18.6-8.2l0.2-0.1l16.6,12.1l-2.2,20.2l0,0.2l-18.6,8.2l-0.2,0.1l-16.6-12.1
									L227.9,176.4L227.9,176.4z M260.3,199.9l2.1-19.5l-15.8-11.6l-17.9,7.9l-2.1,19.5l15.8,11.6L260.3,199.9L260.3,199.9z"/>
								<path class="st7" d="M108.2,32.6l0-0.4l28-12.4l0.3-0.1l25,18.2l-3.3,30.4l0,0.4l-28,12.4l-0.3,0.1l-25-18.2L108.2,32.6
									L108.2,32.6z M157,67.9l3.2-29.3l-23.8-17.4l-27,11.9l-3.2,29.3L130,79.8L157,67.9z"/>
								<polygon class="st7" points="182.2,145 222.1,125.5 221.6,124.5 181.8,144 								"/>
								<polygon class="st7" points="160.7,38.7 187.7,25.5 187.3,24.7 160.3,37.9 								"/>
								
									<rect x="90" y="101.3" transform="matrix(0.59 -0.8074 0.8074 0.59 -62.6095 123.7257)" class="st7" width="1.1" height="44.4"/>
								<polygon class="st7" points="127.5,245.7 128.6,246 138.9,204.4 137.8,204.2 								"/>
								
									<rect x="95.7" y="222.3" transform="matrix(0.59 -0.8074 0.8074 0.59 -155.6317 176.819)" class="st7" width="1.1" height="38.7"/>
								<polygon class="st7" points="39.9,272.4 41,272.6 47.3,245.2 46.2,245 								"/>
								<polygon class="st7" points="75.7,76.3 106,63.2 105.5,62.1 75.2,75.2 								"/>
								
									<rect x="95.9" y="7.7" transform="matrix(0.59 -0.8074 0.8074 0.59 20.6154 87.549)" class="st7" width="1.1" height="31.5"/>
							</g>
						</g>
					</g>
				</g>
			</g>
		</g>
		<g>
			<defs>
				<rect id="SVGID_00000119830900971048567920000012092633222616411294_" x="937.2" width="428.8" height="768"/>
			</defs>
			<clipPath id="SVGID_00000167365761427031671590000008637607635734994330_">
				<use xlink:href="#SVGID_00000119830900971048567920000012092633222616411294_"  style="overflow:visible;"/>
			</clipPath>
			<g style="clip-path:url(#SVGID_00000167365761427031671590000008637607635734994330_);">
				<g id="TRAMA-2">
					<g>
						<g class="st3">
							<g>
								<path class="st7" d="M1343.8,308.4l35.6,26l-0.1,0.5l-4.7,43.3l-0.5,0.2l-39.9,17.6l-35.6-26l0.1-0.5l4.7-43.4l0.5-0.2
									C1303.9,326,1343.8,308.4,1343.8,308.4z M1377.5,335.2l-34-24.8l-38.5,17l-4.5,41.8l34,24.8l38.5-17
									C1373,377,1377.5,335.2,1377.5,335.2z"/>
								<path class="st7" d="M1326.2,260l20.9,15.3l0,0.3l-2.8,25.5l-0.3,0.1l-23.5,10.4l-20.9-15.3l0-0.3l2.8-25.5l0.3-0.1
									L1326.2,260L1326.2,260z M1346,275.8l-20-14.6l-22.6,10l-2.7,24.6l20,14.6l22.6-10C1343.3,300.4,1346,275.8,1346,275.8z"/>
								<path class="st7" d="M1246.2,381.3l23.4,17.1l0,0.3l-3.1,28.4l-0.3,0.1l-26.2,11.5l-23.3-17.1l0-0.3l3.1-28.4l0.3-0.1
									L1246.2,381.3L1246.2,381.3z M1268.3,398.9l-22.3-16.3l-25.2,11.1l-3,27.4l22.3,16.3l25.2-11.2L1268.3,398.9L1268.3,398.9z"
									/>
								<path class="st7" d="M1317.2,543.3l13.1,9.5l0,0.2l-1.7,15.9l-0.2,0.1l-14.6,6.5l-13.1-9.5l0-0.2l1.7-15.9l0.2-0.1
									L1317.2,543.3L1317.2,543.3z M1329.6,553.1l-12.5-9.1l-14.1,6.2l-1.7,15.4l12.5,9.1l14.1-6.2L1329.6,553.1L1329.6,553.1z"/>
								<path class="st7" d="M1330.6,433.3l30.7,22.4l0,0.4l-4,37.4l-0.4,0.2l-34.4,15.2l-30.7-22.4l0-0.4l4-37.4l0.4-0.2
									L1330.6,433.3L1330.6,433.3z M1359.7,456.4l-29.3-21.4l-33.2,14.6l-3.9,36.1l29.3,21.4l33.2-14.7L1359.7,456.4L1359.7,456.4
									z"/>
								<polygon class="st7" points="1322.9,507.7 1317.5,544.2 1316.4,544.1 1321.8,507.5 								"/>
								<polygon class="st7" points="1335.2,394.1 1331.2,434.5 1329.8,434.3 1333.8,393.9 								"/>
								
									<rect x="1280.4" y="419" transform="matrix(0.59 -0.8074 0.8074 0.59 171.3228 1214.0409)" class="st7" width="1.4" height="38.7"/>
							</g>
							<g>
								<path class="st7" d="M1271.1,689l44.5,32.5l-0.1,0.6l-5.8,54.1l-0.6,0.3l-49.8,22l-44.5-32.5l0.1-0.6l5.9-54.2l0.6-0.3
									L1271.1,689L1271.1,689z M1313.2,722.6l-42.4-31l-48.1,21.2l-5.7,52.2l42.4,31l48.1-21.2
									C1307.6,774.8,1313.2,722.6,1313.2,722.6z"/>
								<path class="st7" d="M1148.5,611.2l35.6,26l-0.1,0.5l-4.7,43.3l-0.5,0.2l-39.9,17.6l-35.6-26l0-0.5l4.7-43.3l0.5-0.2
									L1148.5,611.2L1148.5,611.2z M1182.2,638l-33.9-24.8l-38.5,17l-4.5,41.8l33.9,24.8l38.5-17L1182.2,638z"/>
								<path class="st7" d="M1290.6,572.1l37.7,27.5l-0.1,0.5l-5,45.8l-0.5,0.2l-42.2,18.6l-37.7-27.5l0.1-0.5l5-45.8l0.5-0.2
									L1290.6,572.1L1290.6,572.1z M1326.3,600.5l-35.9-26.2l-40.7,18l-4.8,44.2l35.9,26.2l40.7-18L1326.3,600.5L1326.3,600.5z"/>
								<path class="st7" d="M1382.9,545.5l21.7,15.8l0,0.3l-2.9,26.4l-0.3,0.1l-24.3,10.7l-21.7-15.8l0-0.3l2.9-26.4l0.3-0.1
									L1382.9,545.5L1382.9,545.5z M1403.4,561.8l-20.7-15.1l-23.4,10.3l-2.8,25.5l20.7,15.1l23.4-10.3L1403.4,561.8L1403.4,561.8
									z"/>
								<path class="st7" d="M1380.3,663.7l18.3,13.4l0,0.3l-2.4,22.3l-0.2,0.1l-20.5,9.1l-18.3-13.4l0-0.3l2.4-22.3l0.2-0.1
									C1359.8,672.7,1380.3,663.7,1380.3,663.7z M1397.7,677.5l-17.5-12.8l-19.8,8.8l-2.3,21.5l17.5,12.8l19.8-8.8L1397.7,677.5z"
									/>
								<path class="st7" d="M1207.3,535l20.9,15.3l0,0.3l-2.8,25.5l-0.3,0.1l-23.5,10.4l-20.9-15.3l0-0.3l2.8-25.5l0.3-0.1
									L1207.3,535L1207.3,535z M1227.1,550.8l-20-14.6l-22.6,10l-2.7,24.6l20,14.6l22.6-10L1227.1,550.8L1227.1,550.8z"/>
								<path class="st7" d="M1130.8,562.8l20.9,15.3l0,0.3l-2.8,25.5l-0.3,0.1l-23.5,10.4l-20.9-15.3l0-0.3l2.8-25.5l0.3-0.1
									L1130.8,562.8L1130.8,562.8z M1150.7,578.6l-20-14.6l-22.6,10l-2.7,24.6l20,14.6l22.6-10L1150.7,578.6L1150.7,578.6z"/>
								<path class="st7" d="M1050.9,684.2l23.3,17.1l0,0.3l-3.1,28.4l-0.3,0.1l-26.2,11.5l-23.4-17.1l0-0.3l3.1-28.4l0.3-0.1
									L1050.9,684.2L1050.9,684.2z M1073,701.8l-22.3-16.3l-25.2,11.2l-3,27.4l22.3,16.3l25.2-11.2L1073,701.8L1073,701.8z"/>
								<path class="st7" d="M1135.3,736.2l30.7,22.4l0,0.4l-4,37.4l-0.4,0.2l-34.4,15.2l-30.7-22.4l0-0.4l4.1-37.4l0.4-0.2
									L1135.3,736.2z M1164.4,759.3l-29.3-21.4l-33.2,14.7l-3.9,36.1l29.3,21.4l33.2-14.7L1164.4,759.3L1164.4,759.3z"/>
								
									<rect x="1200" y="669.6" transform="matrix(0.59 -0.8074 0.8074 0.59 -70.3608 1255.0918)" class="st7" width="1.4" height="54.5"/>
								<polygon class="st7" points="1357.7,694.4 1358.4,695.6 1313.6,723.2 1312.8,722 								"/>
								
									<rect x="1340.6" y="635.7" transform="matrix(0.59 -0.8074 0.8074 0.59 17.4092 1353.2549)" class="st7" width="1.4" height="47.5"/>
								<polygon class="st7" points="1356.2,581.9 1356.9,583.1 1327.2,600.6 1326.5,599.4 								"/>
								<polygon class="st7" points="1139.9,696.9 1135.8,737.3 1134.4,737.2 1138.5,696.8 								"/>
								
									<rect x="1085.1" y="721.9" transform="matrix(0.59 -0.8074 0.8074 0.59 -153.2858 1180.4996)" class="st7" width="1.4" height="38.7"/>
							</g>
						</g>
						<g>
							<g>
								<path class="st7" d="M1364.2,529.2l0,0.2l-11.9,5.3l-0.1,0.1l-10.6-7.8l1.4-12.9l0-0.2l11.9-5.3l0.1-0.1l10.6,7.8
									L1364.2,529.2L1364.2,529.2z M1343.5,514.2l-1.3,12.5l10.1,7.4l11.5-5.1l1.3-12.5l-10.1-7.4L1343.5,514.2L1343.5,514.2z"/>
								<path class="st7" d="M1329.5,434.9l0,0.2l-17,7.5l-0.2,0.1l-15.2-11.1l2-18.5l0-0.2l17-7.5l0.2-0.1l15.2,11.1L1329.5,434.9
									L1329.5,434.9z M1299.7,413.4l-1.9,17.9l14.5,10.6l16.4-7.3l1.9-17.9l-14.5-10.6L1299.7,413.4L1299.7,413.4z"/>
								<path class="st7" d="M1324.6,365.4l0,0.2l-18.6,8.2l-0.2,0.1l-16.6-12.1l2.2-20.2l0-0.2l18.6-8.2l0.2-0.1l16.6,12.1
									L1324.6,365.4L1324.6,365.4z M1292.2,341.9l-2.1,19.5l15.8,11.6l17.9-7.9l2.1-19.5l-15.8-11.6L1292.2,341.9L1292.2,341.9z"
									/>
								<polygon class="st7" points="1370.2,396.8 1330.4,416.3 1330.9,417.3 1370.7,397.8 								"/>
								<polygon class="st7" points="1391.8,503.1 1364.8,516.3 1365.2,517.1 1392.2,503.9 								"/>
							</g>
							<g>
								<path class="st7" d="M1259.3,632.1l-0.1,0.5l-40.5,17.9l-0.5,0.2l-36.2-26.4l4.8-44l0.1-0.5l40.5-17.9l0.5-0.2l36.2,26.4
									L1259.3,632.1L1259.3,632.1z M1188.6,581l-4.6,42.5l34.5,25.2l39.1-17.3l4.6-42.5l-34.5-25.2L1188.6,581L1188.6,581z"/>
								<path class="st7" d="M1350.9,699.1l-0.1,0.4l-32.4,14.3l-0.4,0.2l-29-21.2l3.8-35.2l0.1-0.4l32.4-14.3l0.4-0.2l29,21.2
									C1354.7,663.9,1350.9,699.1,1350.9,699.1z M1294.2,658.2l-3.7,34l27.6,20.2l31.3-13.8l3.7-34l-27.6-20.2L1294.2,658.2z"/>
								<path class="st7" d="M1345.8,581.3l0,0.4l-34.3,15.2l-0.4,0.2l-30.6-22.4l4-37.3l0.1-0.4l34.3-15.2l0.4-0.2l30.6,22.4
									L1345.8,581.3L1345.8,581.3z M1285.9,538l-3.9,36l29.2,21.3l33.1-14.6l3.9-36l-29.2-21.3L1285.9,538L1285.9,538z"/>
								<path class="st7" d="M1345.4,487.4l0,0.2l-19.7,8.7l-0.2,0.1l-17.6-12.9l2.3-21.5l0-0.2l19.7-8.7l0.2-0.1l17.6,12.9
									L1345.4,487.4L1345.4,487.4z M1310.9,462.5l-2.2,20.7l16.8,12.3l19.1-8.4l2.2-20.7l-16.8-12.3L1310.9,462.5L1310.9,462.5z"
									/>
								<path class="st7" d="M1254.8,515.3l0,0.2l-16.7,7.4l-0.2,0.1l-14.9-10.9l2-18.1l0-0.2l16.7-7.4l0.2-0.1l14.9,10.9
									C1256.7,497.2,1254.8,515.3,1254.8,515.3z M1225.6,494.2l-1.9,17.5l14.2,10.4l16.1-7.1l1.9-17.5l-14.2-10.4L1225.6,494.2z"
									/>
								<path class="st7" d="M1397,620.2l0,0.2l-19.1,8.4l-0.2,0.1l-17-12.5l2.2-20.7l0-0.2l19.1-8.4l0.2-0.1l17,12.5L1397,620.2
									L1397,620.2z M1363.7,596.1l-2.2,20l16.2,11.9l18.4-8.1l2.2-20l-16.2-11.9L1363.7,596.1L1363.7,596.1z"/>
								<path class="st7" d="M1394.3,686.4l0,0.2l-19.1,8.4l-0.2,0.1l-17-12.5l2.2-20.7l0-0.2l19.1-8.4l0.2-0.1l17,12.5
									L1394.3,686.4L1394.3,686.4z M1361,662.3l-2.2,20l16.2,11.9l18.4-8.1l2.2-20l-16.2-11.9L1361,662.3L1361,662.3z"/>
								<path class="st7" d="M1319.7,780.7l0,0.3l-21.3,9.4l-0.2,0.1l-19-13.9l2.5-23.1l0-0.3l21.3-9.4l0.2-0.1l19,13.9
									L1319.7,780.7L1319.7,780.7z M1282.6,753.8l-2.4,22.3l18.1,13.2l20.5-9.1l2.4-22.3l-18.1-13.2L1282.6,753.8L1282.6,753.8z"
									/>
								<path class="st7" d="M1177.8,755.4l0,0.2l-11.9,5.3l-0.1,0.1l-10.6-7.8l1.4-13l0-0.2l11.9-5.3l0.1-0.1l10.6,7.8
									L1177.8,755.4L1177.8,755.4z M1157,740.4l-1.3,12.5l10.1,7.4l11.5-5.1l1.3-12.5l-10.1-7.4L1157,740.4z"/>
								<path class="st7" d="M1143,661.1l0,0.2l-17,7.5l-0.2,0.1l-15.2-11.1l2-18.5l0-0.2l17-7.5l0.2-0.1l15.2,11.1L1143,661.1
									L1143,661.1z M1113.2,639.6l-1.9,17.9l14.5,10.6l16.4-7.3l1.9-17.8l-14.5-10.6L1113.2,639.6L1113.2,639.6z"/>
								<path class="st7" d="M1138.1,591.6l0,0.2l-18.6,8.2l-0.2,0.1l-16.6-12.1l2.2-20.2l0-0.2l18.6-8.2l0.2-0.1l16.6,12.1
									L1138.1,591.6L1138.1,591.6z M1105.7,568.1l-2.1,19.5l15.8,11.6l17.9-7.9l2.1-19.5l-15.8-11.6L1105.7,568.1L1105.7,568.1z"
									/>
								<path class="st7" d="M1257.8,735.4l0,0.4l-28,12.4l-0.3,0.1l-25-18.2l3.3-30.4l0-0.4l28-12.4l0.3-0.1l25,18.2L1257.8,735.4
									L1257.8,735.4z M1209,700.1l-3.2,29.3l23.8,17.4l27-11.9l3.2-29.3l-23.8-17.4L1209,700.1z"/>
								<polygon class="st7" points="1183.8,623 1143.9,642.5 1144.4,643.5 1184.2,624 								"/>
								<polygon class="st7" points="1205.3,729.3 1178.3,742.5 1178.7,743.3 1205.7,730.1 								"/>
								
									<rect x="1274.9" y="622.4" transform="matrix(0.59 -0.8074 0.8074 0.59 2.4602 1294.0249)" class="st7" width="1.1" height="44.4"/>
								<polygon class="st7" points="1238.5,522.3 1237.4,522 1227.1,563.6 1228.2,563.8 								"/>
								
									<rect x="1269.1" y="507.1" transform="matrix(0.59 -0.8074 0.8074 0.59 95.4837 1240.9227)" class="st7" width="1.2" height="38.7"/>
								<polygon class="st7" points="1326.1,495.6 1325,495.4 1318.7,522.8 1319.8,523 								"/>
								<polygon class="st7" points="1290.3,691.7 1260,704.8 1260.5,705.9 1290.8,692.8 								"/>
								
									<rect x="1268.9" y="728.9" transform="matrix(0.59 -0.8074 0.8074 0.59 -80.7552 1330.1886)" class="st7" width="1.2" height="31.5"/>
							</g>
						</g>
					</g>
				</g>
			</g>
		</g>
	</g>
</g>
</svg>
