<?xml version="1.0" encoding="UTF-8"?>
<svg id="Capa_2" data-name="Capa 2" xmlns="http://www.w3.org/2000/svg" viewBox="0 0 605.18 175.11">
  <defs>
    <style>
      .cls-1 {
        fill: #b6e326;
      }

      .cls-2 {
        fill: #f2f2f2;
      }
    </style>
  </defs>
  <g id="LOGO">
    <g>
      <path class="cls-1" d="m88.52,19.53c4.17,0,7.56,3.39,7.56,7.56v10.9c0,4.17-3.39,7.56-7.56,7.56H27.08c-4.17,0-7.56-3.39-7.56-7.56v-10.9c0-4.17,3.39-7.56,7.56-7.56h61.44m0-19.53H27.08C12.13,0,0,12.13,0,27.08v10.9c0,14.96,12.13,27.08,27.08,27.08h61.44c14.96,0,27.08-12.13,27.08-27.08v-10.9c0-14.96-12.13-27.08-27.08-27.08h0Z"/>
      <path class="cls-1" d="m88.53,97c4.17,0,7.56,3.39,7.56,7.56v43.47c0,4.17-3.39,7.56-7.56,7.56h-11.27v-8.42c0-13.32-10.83-24.15-24.15-24.15h-26.03c-4.17,0-7.56-3.39-7.56-7.56v-10.9c0-4.17,3.39-7.56,7.56-7.56h61.44m0-19.53H27.08C12.13,77.48,0,89.6,0,104.56v10.9c0,14.96,12.13,27.08,27.08,27.08h26.03c2.55,0,4.62,2.07,4.62,4.62v21.14c0,3.76,3.04,6.8,6.8,6.8h23.99c14.96,0,27.08-12.13,27.08-27.08v-43.47c0-14.96-12.12-27.08-27.08-27.08h0Z"/>
    </g>
    <g>
      <path class="cls-2" d="m177.09,76.35c-2.34,0-4.22.42-5.65,1.25-1.44.83-2.57,1.85-3.4,3.05-.83,1.2-1.4,2.52-1.7,3.95-.3,1.43-.45,2.75-.45,3.95s.15,2.52.45,3.95c.3,1.44.87,2.75,1.7,3.95.83,1.2,1.97,2.22,3.4,3.05,1.43.84,3.32,1.25,5.65,1.25h55.12c1.33,0,2.47.47,3.4,1.4.93.93,1.4,2.07,1.4,3.4s-.47,2.47-1.4,3.4-2.07,1.4-3.4,1.4h-58.33c-2.74,0-5.17-.67-7.3-2-2.14-1.33-3.95-3.05-5.45-5.15-1.5-2.1-2.65-4.45-3.45-7.05-.8-2.6-1.2-5.13-1.2-7.6s.42-5.08,1.25-7.65c.83-2.57,2.05-4.9,3.65-7s3.53-3.82,5.8-5.15c2.27-1.33,4.83-2,7.7-2h57.33c1.33,0,2.47.47,3.4,1.4.93.93,1.4,2.07,1.4,3.4s-.47,2.47-1.4,3.4-2.07,1.4-3.4,1.4h-55.12Zm54.32,8.8c.93.93,1.4,2.07,1.4,3.4s-.47,2.47-1.4,3.4c-.93.93-2.07,1.4-3.4,1.4h-49.82c-1.33,0-2.47-.47-3.4-1.4-.93-.93-1.4-2.07-1.4-3.4s.47-2.47,1.4-3.4c.93-.93,2.07-1.4,3.4-1.4h49.82c1.33,0,2.47.47,3.4,1.4Z"/>
      <path class="cls-2" d="m316.55,68.15c.93-.93,2.07-1.4,3.4-1.4s2.47.47,3.4,1.4c.93.93,1.4,2.07,1.4,3.4v29.11c0,2.74-.92,5.04-2.75,6.9-1.84,1.87-4.12,2.8-6.85,2.8-.93,0-1.85-.13-2.75-.4-.9-.27-1.72-.63-2.45-1.1l-45.82-28.01c-1.27-.73-2.32-1.32-3.15-1.75-.83-.43-1.52-.65-2.05-.65-1,0-1.64.63-1.9,1.9-.27,1.27-.4,3.1-.4,5.5v19.71c0,1.34-.47,2.47-1.4,3.4s-2.07,1.4-3.4,1.4-2.47-.47-3.4-1.4c-.93-.93-1.4-2.07-1.4-3.4v-29.11c0-2.73.92-5.04,2.75-6.9,1.83-1.87,4.12-2.8,6.85-2.8.93,0,1.85.14,2.75.4.9.27,1.72.64,2.45,1.1l45.82,28.01c1.27.74,2.32,1.32,3.15,1.75.83.44,1.52.65,2.05.65,1,0,1.63-.63,1.9-1.9.27-1.27.4-3.1.4-5.5v-19.71c0-1.33.47-2.47,1.4-3.4Z"/>
      <path class="cls-2" d="m404.29,68.15c.93-.93,2.07-1.4,3.4-1.4s2.47.47,3.4,1.4c.93.93,1.4,2.07,1.4,3.4v29.11c0,2.74-.92,5.04-2.75,6.9-1.84,1.87-4.12,2.8-6.85,2.8-.93,0-1.85-.13-2.75-.4-.9-.27-1.72-.63-2.45-1.1l-45.82-28.01c-1.27-.73-2.32-1.32-3.15-1.75-.83-.43-1.52-.65-2.05-.65-1,0-1.64.63-1.9,1.9-.27,1.27-.4,3.1-.4,5.5v19.71c0,1.34-.47,2.47-1.4,3.4s-2.07,1.4-3.4,1.4-2.47-.47-3.4-1.4c-.93-.93-1.4-2.07-1.4-3.4v-29.11c0-2.73.92-5.04,2.75-6.9,1.83-1.87,4.12-2.8,6.85-2.8.93,0,1.85.14,2.75.4.9.27,1.72.64,2.45,1.1l45.82,28.01c1.27.74,2.32,1.32,3.15,1.75.83.44,1.52.65,2.05.65,1,0,1.63-.63,1.9-1.9.27-1.27.4-3.1.4-5.5v-19.71c0-1.33.47-2.47,1.4-3.4Z"/>
      <path class="cls-2" d="m503.93,88.55c0,2.54-.42,5.09-1.25,7.65-.83,2.57-2.05,4.9-3.65,7-1.6,2.1-3.54,3.82-5.8,5.15-2.27,1.34-4.84,2-7.7,2h-45.62c-2.74-.13-5.17-.88-7.3-2.25-2.14-1.37-3.95-3.08-5.45-5.15-1.5-2.07-2.65-4.37-3.45-6.9s-1.2-5.04-1.2-7.5.42-5.08,1.25-7.65c.83-2.57,2.05-4.9,3.65-7s3.53-3.82,5.8-5.15c2.27-1.33,4.83-2,7.7-2h45.62c2.73.14,5.17.88,7.3,2.25,2.13,1.37,3.95,3.09,5.45,5.15,1.5,2.07,2.65,4.37,3.45,6.9s1.2,5.04,1.2,7.5Zm-14.91,10.95c1.47-.83,2.62-1.85,3.45-3.05.83-1.2,1.4-2.52,1.7-3.95.3-1.43.45-2.75.45-3.95s-.15-2.52-.45-3.95c-.3-1.43-.87-2.75-1.7-3.95-.83-1.2-1.99-2.22-3.45-3.05-1.47-.83-3.34-1.25-5.6-1.25h-40.42c-2.34,0-4.22.42-5.65,1.25-1.44.83-2.57,1.85-3.4,3.05-.83,1.2-1.4,2.52-1.7,3.95-.3,1.43-.45,2.75-.45,3.95s.15,2.52.45,3.95c.3,1.44.87,2.75,1.7,3.95.83,1.2,1.97,2.22,3.4,3.05,1.43.84,3.32,1.25,5.65,1.25h40.42c2.27,0,4.13-.42,5.6-1.25Z"/>
      <path class="cls-2" d="m522.14,108.96c-.93.93-2.07,1.4-3.4,1.4s-2.47-.47-3.4-1.4c-.93-.93-1.4-2.07-1.4-3.4v-34.02c0-1.33.47-2.47,1.4-3.4.93-.93,2.07-1.4,3.4-1.4s2.47.47,3.4,1.4c.93.93,1.4,2.07,1.4,3.4v34.02c0,1.34-.47,2.47-1.4,3.4Z"/>
      <path class="cls-2" d="m542.05,108.56c-1,1.2-2.23,1.8-3.7,1.8-1.33,0-2.47-.47-3.4-1.4-.93-.93-1.4-2.07-1.4-3.4,0-1.2.33-2.17,1-2.9l24.31-32.71c1.13-1.53,2.63-2.78,4.5-3.75,1.87-.97,3.87-1.45,6-1.45,2,0,3.9.43,5.7,1.3,1.8.87,3.27,2.07,4.4,3.6l24.31,32.51c.4.47.73.99,1,1.55.27.57.4,1.18.4,1.85,0,1.34-.47,2.47-1.4,3.4-.93.93-2.07,1.4-3.4,1.4-1.6,0-2.87-.63-3.8-1.9l-23.31-31.11c-.47-.53-1.05-1.12-1.75-1.75-.7-.63-1.42-.95-2.15-.95s-1.45.32-2.15.95c-.7.64-1.25,1.22-1.65,1.75l-23.51,31.21Z"/>
    </g>
  </g>
</svg>