<?xml version="1.0" encoding="UTF-8"?>
<svg id="Capa_2" data-name="Capa 2" xmlns="http://www.w3.org/2000/svg" viewBox="0 0 356.43 537.02">
  <defs>
    <style>
      .cls-1 {
        fill: #fff;
      }

      .cls-2 {
        fill: #b6e326;
      }
    </style>
  </defs>
  <g id="Capa_1-2" data-name="Capa 1">
    <g>
      <ellipse class="cls-2" cx="178.22" cy="101.21" rx="178.21" ry="101.21"/>
      <path class="cls-2" d="m312.52,272.57c33.62,25.99,48.1,69.81,37.51,110.97l-.1.38c-22.12,85.54-98.17,149.38-189.71,153.08-4.59.19-8.41-3.52-8.41-8.12v-53.19c0-2.9-2.18-5.31-5.06-5.65C63.34,460.01,0,410.83,0,351.63s65.92-110.35,151.81-118.96c8.62-.86,17.43-1.31,26.41-1.31,53.58,0,101.64,15.95,134.31,41.21Z"/>
      <ellipse class="cls-1" cx="164.32" cy="116.61" rx="13.9" ry="27.14"/>
      <ellipse class="cls-1" cx="231.06" cy="116.61" rx="13.9" ry="27.14"/>
    </g>
  </g>
</svg>