<?xml version="1.0" encoding="UTF-8"?>
<svg id="Capa_2" data-name="Capa 2" xmlns="http://www.w3.org/2000/svg" viewBox="0 0 775.95 629.87">
  <defs>
    <style>
      .cls-1 {
        fill: #b6e326;
      }

      .cls-2 {
        fill: #f2f2f2;
      }
    </style>
  </defs>
  <g id="LOGO">
    <g>
      <g>
        <path class="cls-1" d="m472.35,53.63c11.45,0,20.76,9.31,20.76,20.76v29.94c0,11.45-9.31,20.76-20.76,20.76h-168.76c-11.45,0-20.76-9.31-20.76-20.76v-29.94c0-11.45,9.31-20.76,20.76-20.76h168.76m0-53.63h-168.76c-41.08,0-74.39,33.31-74.39,74.39v29.94c0,41.08,33.31,74.39,74.39,74.39h168.76c41.08,0,74.39-33.31,74.39-74.39v-29.94c0-41.08-33.31-74.39-74.39-74.39h0Z"/>
        <path class="cls-1" d="m472.35,266.43c11.44,0,20.75,9.31,20.75,20.75v119.39c0,11.44-9.31,20.75-20.75,20.75h-30.94v-23.12c0-36.57-29.75-66.33-66.33-66.33h-71.49c-11.44,0-20.75-9.31-20.75-20.75v-29.95c0-11.44,9.31-20.75,20.75-20.75h168.76m0-53.63h-168.76c-41.08,0-74.39,33.3-74.39,74.39v29.95c0,41.08,33.3,74.39,74.39,74.39h71.49c7.01,0,12.69,5.68,12.69,12.69v58.08c0,10.31,8.36,18.68,18.68,18.68h65.9c41.08,0,74.39-33.3,74.39-74.39v-119.39c0-41.08-33.3-74.39-74.39-74.39h0Z"/>
      </g>
      <g>
        <path class="cls-2" d="m35.64,571.05c-4.04,0-7.3.72-9.77,2.16-2.48,1.44-4.44,3.2-5.88,5.28-1.44,2.07-2.42,4.36-2.94,6.83-.52,2.48-.78,4.76-.78,6.83s.26,4.36.78,6.83c.52,2.48,1.5,4.76,2.94,6.84,1.44,2.07,3.4,3.83,5.88,5.28,2.48,1.45,5.74,2.16,9.77,2.16h95.33c2.31,0,4.27.81,5.88,2.42,1.61,1.62,2.42,3.58,2.42,5.88s-.81,4.27-2.42,5.88c-1.62,1.62-3.58,2.42-5.88,2.42H30.1c-4.73,0-8.94-1.15-12.63-3.46-3.69-2.3-6.83-5.28-9.43-8.91-2.6-3.63-4.59-7.7-5.97-12.2-1.38-4.5-2.08-8.88-2.08-13.15s.72-8.79,2.16-13.23c1.44-4.44,3.55-8.48,6.31-12.11s6.11-6.6,10.03-8.91c3.92-2.31,8.36-3.46,13.32-3.46h99.13c2.31,0,4.27.81,5.88,2.42,1.61,1.62,2.42,3.58,2.42,5.88s-.81,4.27-2.42,5.88c-1.62,1.62-3.58,2.42-5.88,2.42H35.64Zm93.95,15.22c1.61,1.62,2.42,3.58,2.42,5.88s-.81,4.27-2.42,5.88c-1.62,1.62-3.58,2.42-5.88,2.42H37.54c-2.31,0-4.27-.8-5.88-2.42-1.62-1.61-2.42-3.57-2.42-5.88s.81-4.27,2.42-5.88c1.61-1.61,3.57-2.42,5.88-2.42h86.16c2.31,0,4.27.81,5.88,2.42Z"/>
        <path class="cls-2" d="m276.81,556.86c1.61-1.61,3.57-2.42,5.88-2.42s4.27.81,5.88,2.42c1.61,1.62,2.42,3.58,2.42,5.88v50.35c0,4.73-1.59,8.71-4.76,11.94-3.17,3.23-7.12,4.85-11.85,4.85-1.62,0-3.2-.23-4.76-.69-1.56-.46-2.97-1.1-4.24-1.9l-79.24-48.44c-2.19-1.27-4.01-2.28-5.45-3.03-1.44-.75-2.62-1.12-3.55-1.12-1.73,0-2.83,1.1-3.29,3.29-.46,2.19-.69,5.36-.69,9.52v34.08c0,2.31-.81,4.27-2.42,5.88s-3.58,2.42-5.88,2.42-4.27-.8-5.88-2.42c-1.62-1.61-2.42-3.57-2.42-5.88v-50.35c0-4.73,1.58-8.71,4.76-11.94,3.17-3.23,7.12-4.85,11.85-4.85,1.61,0,3.2.23,4.76.69,1.56.46,2.97,1.1,4.24,1.9l79.24,48.44c2.19,1.27,4.01,2.28,5.45,3.03,1.44.75,2.62,1.13,3.55,1.13,1.73,0,2.83-1.1,3.29-3.29.46-2.19.69-5.36.69-9.52v-34.08c0-2.3.8-4.26,2.42-5.88Z"/>
        <path class="cls-2" d="m428.54,556.86c1.61-1.61,3.57-2.42,5.88-2.42s4.27.81,5.88,2.42c1.61,1.62,2.42,3.58,2.42,5.88v50.35c0,4.73-1.59,8.71-4.76,11.94-3.17,3.23-7.12,4.85-11.85,4.85-1.62,0-3.2-.23-4.76-.69-1.56-.46-2.97-1.1-4.24-1.9l-79.24-48.44c-2.19-1.27-4.01-2.28-5.45-3.03-1.44-.75-2.62-1.12-3.55-1.12-1.73,0-2.83,1.1-3.29,3.29-.46,2.19-.69,5.36-.69,9.52v34.08c0,2.31-.81,4.27-2.42,5.88-1.62,1.62-3.58,2.42-5.88,2.42s-4.27-.8-5.88-2.42c-1.62-1.61-2.42-3.57-2.42-5.88v-50.35c0-4.73,1.58-8.71,4.76-11.94,3.17-3.23,7.12-4.85,11.85-4.85,1.61,0,3.2.23,4.76.69,1.56.46,2.97,1.1,4.24,1.9l79.24,48.44c2.19,1.27,4.01,2.28,5.45,3.03,1.44.75,2.62,1.13,3.55,1.13,1.73,0,2.83-1.1,3.29-3.29.46-2.19.69-5.36.69-9.52v-34.08c0-2.3.8-4.26,2.42-5.88Z"/>
        <path class="cls-2" d="m600.86,592.16c0,4.39-.72,8.8-2.16,13.23-1.44,4.44-3.55,8.48-6.31,12.11-2.77,3.63-6.12,6.61-10.03,8.91-3.92,2.31-8.36,3.46-13.32,3.46h-78.89c-4.73-.23-8.94-1.53-12.63-3.89-3.69-2.36-6.83-5.33-9.43-8.91-2.6-3.57-4.59-7.55-5.97-11.94-1.38-4.38-2.08-8.71-2.08-12.98s.72-8.79,2.16-13.23c1.44-4.44,3.55-8.48,6.31-12.11,2.77-3.63,6.11-6.6,10.03-8.91,3.92-2.31,8.36-3.46,13.32-3.46h78.89c4.73.23,8.94,1.53,12.63,3.89,3.69,2.37,6.84,5.34,9.43,8.91,2.6,3.58,4.58,7.56,5.97,11.94s2.08,8.71,2.08,12.97Zm-25.78,18.94c2.53-1.44,4.52-3.2,5.97-5.28,1.44-2.08,2.42-4.35,2.94-6.84.52-2.48.78-4.76.78-6.83s-.26-4.35-.78-6.83c-.52-2.48-1.5-4.76-2.94-6.83-1.44-2.08-3.43-3.83-5.97-5.28-2.54-1.44-5.77-2.16-9.69-2.16h-69.9c-4.04,0-7.3.72-9.78,2.16-2.48,1.44-4.44,3.2-5.88,5.28-1.44,2.07-2.42,4.36-2.94,6.83-.52,2.48-.78,4.76-.78,6.83s.26,4.36.78,6.83c.52,2.48,1.5,4.76,2.94,6.84,1.44,2.07,3.4,3.83,5.88,5.28,2.48,1.45,5.74,2.16,9.78,2.16h69.9c3.92,0,7.15-.72,9.69-2.16Z"/>
        <path class="cls-2" d="m632.35,627.45c-1.62,1.62-3.58,2.42-5.88,2.42s-4.27-.8-5.88-2.42c-1.62-1.61-2.42-3.57-2.42-5.88v-58.82c0-2.3.81-4.26,2.42-5.88,1.61-1.61,3.57-2.42,5.88-2.42s4.27.81,5.88,2.42c1.61,1.62,2.42,3.58,2.42,5.88v58.82c0,2.31-.81,4.27-2.42,5.88Z"/>
        <path class="cls-2" d="m666.78,626.76c-1.73,2.07-3.86,3.11-6.4,3.11-2.31,0-4.27-.8-5.88-2.42-1.62-1.61-2.42-3.57-2.42-5.88,0-2.08.58-3.75,1.73-5.02l42.04-56.57c1.96-2.65,4.55-4.82,7.78-6.49,3.23-1.67,6.69-2.51,10.38-2.51,3.46,0,6.75.75,9.86,2.25,3.11,1.5,5.65,3.58,7.61,6.23l42.04,56.23c.69.81,1.27,1.7,1.73,2.68.46.98.69,2.05.69,3.2,0,2.31-.81,4.27-2.42,5.88-1.61,1.62-3.58,2.42-5.88,2.42-2.77,0-4.96-1.1-6.58-3.29l-40.31-53.8c-.81-.92-1.82-1.93-3.03-3.03-1.21-1.09-2.45-1.64-3.72-1.64s-2.51.55-3.72,1.64c-1.21,1.1-2.16,2.11-2.86,3.03l-40.66,53.98Z"/>
      </g>
    </g>
  </g>
</svg>