<?xml version="1.0" encoding="UTF-8"?>
<svg id="Capa_2" data-name="Capa 2" xmlns="http://www.w3.org/2000/svg" viewBox="0 0 897.4 91.24">
  <defs>
    <style>
      .cls-1 {
        fill: #1d334b;
      }
    </style>
  </defs>
  <g id="LOGO">
    <g>
      <path class="cls-1" d="m41.22,23.21c-4.67,0-8.44.84-11.3,2.5-2.87,1.67-5.14,3.7-6.8,6.1-1.67,2.4-2.8,5.04-3.4,7.9-.6,2.87-.9,5.5-.9,7.9s.3,5.04.9,7.9c.6,2.87,1.73,5.5,3.4,7.91,1.67,2.4,3.93,4.43,6.8,6.1,2.87,1.67,6.63,2.5,11.3,2.5h110.25c2.67,0,4.93.93,6.8,2.8,1.87,1.87,2.8,4.14,2.8,6.8s-.93,4.94-2.8,6.8-4.14,2.8-6.8,2.8H34.82c-5.47,0-10.34-1.33-14.61-4-4.27-2.67-7.9-6.1-10.9-10.3-3-4.2-5.3-8.9-6.9-14.11-1.6-5.2-2.4-10.27-2.4-15.21s.83-10.17,2.5-15.31c1.67-5.13,4.1-9.81,7.3-14.01s7.07-7.63,11.6-10.3c4.53-2.67,9.67-4,15.41-4h114.65c2.67,0,4.93.94,6.8,2.8,1.87,1.87,2.8,4.14,2.8,6.8s-.93,4.94-2.8,6.8-4.14,2.8-6.8,2.8H41.22Zm108.65,17.61c1.86,1.87,2.8,4.14,2.8,6.8s-.94,4.94-2.8,6.8c-1.87,1.87-4.14,2.8-6.8,2.8H43.42c-2.67,0-4.94-.93-6.8-2.8-1.87-1.87-2.8-4.13-2.8-6.8s.93-4.93,2.8-6.8,4.13-2.8,6.8-2.8h99.65c2.67,0,4.93.94,6.8,2.8Z"/>
      <path class="cls-1" d="m320.14,6.8c1.87-1.87,4.13-2.8,6.8-2.8s4.93.94,6.8,2.8c1.87,1.87,2.8,4.14,2.8,6.8v58.23c0,5.47-1.83,10.07-5.5,13.81-3.67,3.74-8.24,5.6-13.71,5.6-1.87,0-3.7-.27-5.5-.8-1.8-.53-3.44-1.27-4.9-2.2l-91.64-56.03c-2.53-1.47-4.64-2.63-6.3-3.5-1.67-.87-3.03-1.3-4.1-1.3-2,0-3.27,1.27-3.8,3.8-.53,2.54-.8,6.2-.8,11v39.42c0,2.67-.93,4.94-2.8,6.8s-4.14,2.8-6.8,2.8-4.94-.93-6.8-2.8c-1.87-1.87-2.8-4.13-2.8-6.8V23.41c0-5.47,1.83-10.07,5.5-13.81,3.67-3.73,8.23-5.6,13.71-5.6,1.87,0,3.7.27,5.5.8,1.8.53,3.43,1.27,4.9,2.2l91.64,56.03c2.53,1.47,4.63,2.64,6.3,3.5,1.67.87,3.03,1.3,4.1,1.3,2,0,3.27-1.27,3.8-3.8.53-2.53.8-6.2.8-11V13.6c0-2.67.93-4.93,2.8-6.8Z"/>
      <path class="cls-1" d="m495.62,6.8c1.87-1.87,4.13-2.8,6.8-2.8s4.93.94,6.8,2.8c1.87,1.87,2.8,4.14,2.8,6.8v58.23c0,5.47-1.83,10.07-5.5,13.81-3.67,3.74-8.24,5.6-13.71,5.6-1.87,0-3.7-.27-5.5-.8-1.8-.53-3.44-1.27-4.9-2.2l-91.64-56.03c-2.53-1.47-4.64-2.63-6.3-3.5-1.67-.87-3.03-1.3-4.1-1.3-2,0-3.27,1.27-3.8,3.8-.53,2.54-.8,6.2-.8,11v39.42c0,2.67-.93,4.94-2.8,6.8s-4.14,2.8-6.8,2.8-4.94-.93-6.8-2.8c-1.87-1.87-2.8-4.13-2.8-6.8V23.41c0-5.47,1.83-10.07,5.5-13.81,3.67-3.73,8.23-5.6,13.71-5.6,1.87,0,3.7.27,5.5.8,1.8.53,3.43,1.27,4.9,2.2l91.64,56.03c2.53,1.47,4.63,2.64,6.3,3.5,1.67.87,3.03,1.3,4.1,1.3,2,0,3.27-1.27,3.8-3.8.53-2.53.8-6.2.8-11V13.6c0-2.67.93-4.93,2.8-6.8Z"/>
      <path class="cls-1" d="m694.91,47.62c0,5.07-.84,10.17-2.5,15.31-1.67,5.14-4.1,9.81-7.3,14.01-3.2,4.2-7.07,7.64-11.6,10.3-4.53,2.67-9.67,4-15.41,4h-91.24c-5.47-.27-10.34-1.77-14.61-4.5-4.27-2.73-7.9-6.17-10.9-10.3-3-4.13-5.3-8.74-6.9-13.81-1.6-5.07-2.4-10.07-2.4-15.01s.83-10.17,2.5-15.31c1.67-5.13,4.1-9.81,7.3-14.01s7.07-7.63,11.6-10.3c4.53-2.67,9.67-4,15.41-4h91.24c5.47.27,10.34,1.77,14.61,4.5,4.27,2.74,7.91,6.17,10.91,10.3,3,4.14,5.3,8.74,6.9,13.81,1.6,5.07,2.4,10.07,2.4,15Zm-29.81,21.91c2.93-1.67,5.23-3.7,6.9-6.1,1.67-2.4,2.8-5.03,3.4-7.91.6-2.87.9-5.5.9-7.9s-.3-5.03-.9-7.9c-.6-2.87-1.74-5.5-3.4-7.9-1.67-2.4-3.97-4.43-6.9-6.1-2.94-1.67-6.67-2.5-11.21-2.5h-80.84c-4.67,0-8.44.84-11.31,2.5-2.87,1.67-5.14,3.7-6.8,6.1-1.67,2.4-2.8,5.04-3.4,7.9-.6,2.87-.9,5.5-.9,7.9s.3,5.04.9,7.9c.6,2.87,1.73,5.5,3.4,7.91,1.67,2.4,3.93,4.43,6.8,6.1,2.87,1.67,6.64,2.5,11.31,2.5h80.84c4.53,0,8.27-.83,11.21-2.5Z"/>
      <path class="cls-1" d="m731.32,88.44c-1.87,1.87-4.14,2.8-6.8,2.8s-4.94-.93-6.8-2.8c-1.87-1.87-2.8-4.13-2.8-6.8V13.6c0-2.67.93-4.93,2.8-6.8,1.86-1.87,4.13-2.8,6.8-2.8s4.93.94,6.8,2.8c1.87,1.87,2.8,4.14,2.8,6.8v68.03c0,2.67-.93,4.94-2.8,6.8Z"/>
      <path class="cls-1" d="m771.14,87.64c-2,2.4-4.47,3.6-7.4,3.6-2.67,0-4.94-.93-6.8-2.8-1.87-1.87-2.8-4.13-2.8-6.8,0-2.4.67-4.33,2-5.8l48.62-65.43c2.27-3.07,5.27-5.57,9-7.5,3.73-1.93,7.73-2.9,12.01-2.9,4,0,7.8.87,11.41,2.6,3.6,1.74,6.53,4.14,8.8,7.21l48.62,65.03c.8.94,1.47,1.97,2,3.1.53,1.13.8,2.37.8,3.7,0,2.67-.94,4.94-2.8,6.8-1.87,1.87-4.14,2.8-6.8,2.8-3.2,0-5.74-1.27-7.6-3.8l-46.62-62.23c-.93-1.07-2.1-2.23-3.5-3.5-1.4-1.26-2.84-1.9-4.3-1.9s-2.9.64-4.3,1.9c-1.4,1.27-2.5,2.44-3.3,3.5l-47.02,62.43Z"/>
    </g>
  </g>
</svg>