<?xml version="1.0" encoding="utf-8"?>
<!-- Generator: Adobe Illustrator 27.1.0, SVG Export Plug-In . SVG Version: 6.00 Build 0)  -->
<svg version="1.1" id="Capa_2_00000121987810365773772010000017698461956750508465_"
	 xmlns="http://www.w3.org/2000/svg" xmlns:xlink="http://www.w3.org/1999/xlink" x="0px" y="0px" viewBox="0 0 356.4 537"
	 style="enable-background:new 0 0 356.4 537;" xml:space="preserve">
<style type="text/css">
	.st0{fill:#B6E326;}
	.st1{fill:#131F2B;}
</style>
<g id="Capa_1-2">
	<g>
		<ellipse class="st0" cx="178.2" cy="101.2" rx="178.2" ry="101.2"/>
		<path class="st0" d="M312.5,272.6c33.6,26,48.1,69.8,37.5,111l-0.1,0.4c-22.1,85.5-98.2,149.4-189.7,153.1
			c-4.6,0.2-8.4-3.5-8.4-8.1v-53.2c0-2.9-2.2-5.3-5.1-5.6C63.3,460,0,410.8,0,351.6s65.9-110.4,151.8-119c8.6-0.9,17.4-1.3,26.4-1.3
			C231.8,231.4,279.9,247.3,312.5,272.6L312.5,272.6z"/>
		<ellipse class="st1" cx="164.3" cy="116.6" rx="13.9" ry="27.1"/>
		<ellipse class="st1" cx="231.1" cy="116.6" rx="13.9" ry="27.1"/>
	</g>
</g>
</svg>
