<?xml version="1.0" encoding="UTF-8"?>
<svg id="Capa_2" data-name="Capa 2" xmlns="http://www.w3.org/2000/svg" viewBox="0 0 367.07 556">
  <defs>
    <style>
      .cls-1 {
        fill: #b6e326;
      }
    </style>
  </defs>
  <g id="LOGO">
    <g>
      <path class="cls-1" d="m281.08,62c13.23,0,23.99,10.76,23.99,23.99v34.62c0,13.23-10.76,23.99-23.99,23.99H85.99c-13.23,0-23.99-10.76-23.99-23.99v-34.62c0-13.23,10.76-23.99,23.99-23.99h195.08m0-62H85.99C38.5,0,0,38.5,0,85.99v34.62c0,47.49,38.5,85.99,85.99,85.99h195.08c47.49,0,85.99-38.5,85.99-85.99v-34.62c0-47.49-38.5-85.99-85.99-85.99h0Z"/>
      <path class="cls-1" d="m281.08,308c13.23,0,23.99,10.76,23.99,23.99v138.02c0,13.23-10.76,23.99-23.99,23.99h-35.77v-26.73c0-42.28-34.4-76.67-76.67-76.67h-82.65c-13.23,0-23.99-10.76-23.99-23.99v-34.62c0-13.23,10.76-23.99,23.99-23.99h195.09m0-62H85.99C38.5,246,0,284.5,0,331.99v34.62C0,414.1,38.5,452.6,85.99,452.6h82.65c8.1,0,14.67,6.57,14.67,14.67v67.14c0,11.92,9.67,21.59,21.59,21.59h76.18c47.49,0,85.99-38.5,85.99-85.99v-138.02c0-47.49-38.5-85.99-85.99-85.99h0Z"/>
    </g>
  </g>
</svg>